{"glyphs":{"0":{"ha":646,"x_min":0,"x_max":0,"o":"m 361 964 b 338 967 353 965 344 967 b 267 936 311 967 289 956 b 150 744 207 883 176 815 b 146 726 147 739 146 732 b 150 711 146 721 147 717 b 156 693 154 706 156 699 b 149 667 156 685 151 676 b 29 144 100 608 29 336 l 29 115 b 243 -224 40 -29 118 -153 b 300 -239 263 -233 282 -239 b 560 242 456 -239 536 117 b 583 503 572 307 583 403 b 361 964 583 704 538 924 z m 442 304 b 261 -140 431 242 329 -140 l 260 -140 b 222 -92 236 -139 231 -111 b 199 61 204 -49 199 8 b 200 111 199 78 200 96 b 321 663 221 329 256 458 b 332 703 325 675 328 689 b 336 725 335 711 336 718 b 322 764 336 739 332 751 b 308 793 314 779 308 786 b 328 822 308 801 315 808 b 376 867 343 839 357 856 b 401 876 386 874 394 876 b 425 850 413 876 419 868 b 468 567 456 751 468 660 b 442 304 468 482 457 396 z "},"1":{"ha":644,"x_min":0,"x_max":0,"o":"m 617 817 b 618 836 618 824 618 831 b 551 967 618 893 592 932 b 493 993 535 981 515 993 b 475 990 488 993 482 992 b 399 954 449 982 421 972 b 319 894 372 935 346 915 b 192 774 274 858 231 818 b 176 742 182 761 176 751 b 192 710 176 732 182 722 b 214 685 199 700 206 692 b 258 664 229 671 244 664 b 303 686 274 664 288 671 b 354 739 319 704 338 722 b 433 803 378 761 401 783 l 433 797 b 419 735 433 772 426 754 b 215 25 386 631 225 26 b 38 -37 151 17 96 -12 b 24 -56 28 -42 24 -47 b 25 -67 24 -58 24 -62 b 151 -161 42 -124 94 -161 b 200 -151 167 -161 183 -158 b 231 -140 210 -149 219 -143 b 378 -107 294 -118 336 -107 b 510 -132 415 -107 453 -117 b 528 -135 517 -133 522 -135 b 544 -128 535 -135 540 -133 b 556 -100 553 -118 556 -110 b 429 1 556 -53 461 -14 b 401 29 410 11 401 17 b 407 53 401 35 404 42 b 617 817 463 249 597 631 z "},"2":{"ha":838,"x_min":0,"x_max":0,"o":"m 608 282 b 778 567 674 371 732 467 b 807 689 797 606 807 647 b 792 775 807 717 801 746 b 511 993 736 935 624 993 b 200 783 363 993 215 892 b 197 749 199 772 197 760 b 251 594 197 693 218 642 b 292 567 261 581 276 572 b 310 563 299 564 304 563 b 329 589 322 563 328 571 b 321 621 329 600 326 611 b 307 663 311 633 307 647 b 586 882 307 757 481 882 b 668 803 632 882 665 860 l 668 788 b 640 647 668 740 661 693 b 407 282 579 514 496 396 b 146 -10 386 256 160 -7 b 57 -40 114 -17 86 -29 b 28 -67 38 -49 28 -56 b 39 -93 28 -74 32 -82 b 89 -157 53 -117 68 -140 b 157 -189 110 -174 132 -189 b 188 -182 167 -189 176 -186 b 393 -131 253 -153 319 -135 b 556 -119 447 -128 501 -119 b 646 -129 586 -119 615 -122 b 656 -131 650 -131 653 -131 b 674 -112 667 -131 674 -124 b 671 -99 674 -108 672 -104 b 653 -71 667 -87 660 -78 b 517 7 617 -28 572 -1 b 424 19 486 11 457 19 b 394 17 414 19 404 18 b 424 58 403 36 414 47 b 608 282 492 128 551 204 z "},"3":{"ha":638,"x_min":0,"x_max":0,"o":"m 585 89 b 549 219 579 135 564 178 b 389 421 517 303 465 372 b 371 439 376 429 371 433 b 385 457 371 443 375 449 b 550 633 443 510 506 567 b 569 696 564 654 569 675 b 550 774 569 722 561 747 b 340 950 507 865 436 922 b 282 958 319 956 300 958 b 129 910 228 958 178 938 b 113 886 118 903 113 894 b 117 871 113 881 114 876 b 179 797 131 842 150 814 b 206 790 189 792 197 790 b 250 801 221 790 235 796 b 383 826 271 808 336 826 b 442 793 417 826 442 818 b 431 758 442 783 439 772 b 164 508 369 646 285 558 b 142 486 151 503 142 500 l 142 481 b 246 363 144 428 193 374 b 472 167 403 332 472 251 b 261 -64 472 76 393 -18 b 131 -96 218 -79 175 -96 b 35 -62 99 -96 67 -86 b 29 -60 33 -61 31 -60 b 22 -72 25 -60 22 -65 l 22 -75 b 35 -100 22 -85 29 -92 b 249 -200 82 -169 163 -200 b 586 63 410 -200 586 -93 b 585 89 586 71 586 81 z "},"4":{"ha":682,"x_min":0,"x_max":0,"o":"m 661 800 b 513 953 660 886 596 951 b 460 954 490 953 474 954 b 396 922 432 954 418 950 b 86 376 278 733 185 578 b 76 339 79 363 76 350 b 263 261 76 276 176 261 b 368 269 306 261 346 265 b 364 250 367 263 365 256 b 333 -56 346 149 333 47 l 333 -72 b 456 -208 333 -140 389 -200 l 465 -208 b 496 -179 486 -208 496 -200 l 496 -175 b 494 -117 494 -156 494 -136 b 628 593 494 106 574 389 b 661 800 646 663 654 733 z m 451 618 b 407 444 438 560 422 503 b 336 408 400 419 367 408 b 285 432 310 408 285 417 b 286 438 285 433 285 436 b 440 692 310 504 397 628 b 465 724 447 703 457 713 b 467 703 467 717 467 710 b 451 618 467 674 458 646 z "},"5":{"ha":704,"x_min":0,"x_max":0,"o":"m 638 261 b 338 506 561 539 346 490 b 336 526 336 508 336 515 b 424 822 336 596 361 803 b 624 849 471 838 593 826 b 638 894 632 858 638 876 b 593 967 638 925 624 958 b 501 981 564 975 532 981 b 468 978 490 981 479 979 b 224 940 381 964 304 975 b 200 918 208 933 200 926 b 210 897 200 913 203 906 b 226 821 222 882 226 854 b 146 407 226 696 163 478 b 143 385 144 400 143 392 b 217 282 143 340 176 306 b 254 265 233 271 244 265 b 294 296 268 265 278 275 b 439 386 319 325 390 386 b 483 351 458 386 475 376 b 510 197 500 300 510 249 b 497 89 510 161 506 125 b 369 -101 479 8 432 -51 b 306 -124 344 -117 324 -124 b 183 114 218 -124 206 35 b 135 -28 150 67 135 18 b 368 -246 135 -149 242 -246 b 532 -189 421 -246 478 -229 b 660 106 621 -122 660 -12 b 638 261 660 157 651 210 z "},"6":{"ha":628,"x_min":0,"x_max":0,"o":"m 574 901 b 600 938 592 911 600 924 b 586 971 600 947 594 958 b 513 1028 568 997 540 1013 b 479 1036 501 1033 490 1036 b 440 1022 467 1036 453 1032 b 89 508 275 899 156 703 b 25 207 54 411 25 314 l 25 193 b 24 169 24 185 24 178 b 35 88 24 143 28 115 b 103 -72 47 31 67 -25 b 285 -203 151 -133 211 -176 b 343 -214 304 -210 325 -214 b 463 -156 388 -214 429 -194 b 535 -33 493 -119 517 -78 b 582 181 565 38 582 108 b 556 333 582 231 574 282 b 308 551 508 469 433 506 b 574 901 381 685 449 828 z m 425 161 b 276 -122 418 103 350 -122 b 226 -83 260 -122 243 -110 b 189 86 200 -40 189 21 b 274 476 189 224 235 386 b 281 481 275 479 278 481 b 428 214 313 481 428 389 b 425 161 428 197 428 179 z "},"7":{"ha":642,"x_min":0,"x_max":0,"o":"m 511 428 b 486 450 493 431 486 436 b 488 461 486 453 486 457 b 493 481 489 468 490 475 b 553 647 518 535 533 592 b 599 854 576 715 599 782 b 597 883 599 864 599 874 b 446 1100 586 1010 543 1056 b 428 1104 440 1103 433 1104 b 407 1099 421 1104 414 1101 b 128 914 303 1051 213 986 b 111 888 117 904 111 896 b 124 861 111 879 115 871 b 222 789 151 829 179 797 b 268 818 253 796 264 815 b 399 911 311 849 354 881 b 426 924 411 919 421 924 b 442 899 438 924 442 914 b 293 493 442 811 304 522 b 218 435 279 457 256 440 b 83 404 172 429 126 425 b 58 374 65 396 58 385 b 169 313 58 344 107 313 l 172 313 b 199 281 192 306 199 294 b 186 235 199 268 193 253 b 111 35 161 168 135 103 b 57 -140 92 -22 67 -79 b 56 -160 57 -147 56 -153 b 61 -181 56 -167 57 -174 b 156 -262 83 -218 114 -247 b 178 -267 164 -265 171 -267 b 210 -235 193 -267 203 -257 b 468 311 242 -140 388 310 l 506 311 b 582 307 532 311 557 311 b 596 306 588 306 592 306 b 613 335 610 306 613 313 b 614 393 613 360 614 379 b 597 431 614 424 611 431 b 542 426 588 431 569 426 b 511 428 533 426 522 426 z "},"8":{"ha":683,"x_min":0,"x_max":0,"o":"m 614 940 b 514 1017 588 975 551 994 b 394 1049 475 1039 435 1049 b 289 1029 360 1049 324 1040 b 107 894 214 1006 154 957 b 40 711 64 838 40 776 b 58 613 40 679 46 646 b 167 456 79 551 119 500 b 192 424 183 440 192 432 b 172 386 192 415 185 406 b 53 93 110 297 68 200 b 49 42 50 76 49 58 b 83 -85 49 -3 58 -46 b 235 -219 121 -143 169 -192 b 339 -243 269 -233 304 -243 b 433 -219 371 -243 403 -235 b 574 -86 490 -189 539 -146 b 600 10 590 -54 600 -22 b 588 79 600 32 596 56 b 379 346 557 171 442 274 b 603 629 451 364 575 563 b 656 774 621 676 650 721 b 657 808 657 786 657 797 b 614 940 657 856 646 900 z m 436 129 b 444 81 442 113 444 96 b 410 -19 444 44 432 13 b 251 -132 371 -75 301 -132 b 190 -29 217 -132 190 -104 l 190 -19 b 300 289 197 69 242 218 b 318 301 307 296 313 301 b 333 293 324 301 328 299 b 436 129 378 244 418 193 z m 514 885 b 263 475 501 785 356 475 b 221 506 247 475 232 483 b 190 628 201 543 190 583 b 246 796 192 689 207 750 b 453 932 299 861 363 919 b 465 933 457 932 461 933 b 485 935 472 933 479 935 b 515 906 507 935 515 928 b 514 885 515 900 515 893 z "},"9":{"ha":628,"x_min":0,"x_max":0,"o":"m 593 736 b 525 896 581 793 561 849 b 343 1026 476 957 417 1000 b 285 1038 322 1033 303 1038 b 165 979 240 1038 200 1017 b 93 857 135 942 111 901 b 46 643 63 786 46 715 b 72 490 46 593 54 542 b 319 271 119 354 194 318 b 54 -79 247 139 179 -4 b 28 -114 36 -89 28 -100 b 42 -147 28 -124 33 -135 b 115 -204 60 -174 86 -190 b 149 -214 126 -210 138 -214 b 188 -199 161 -214 175 -208 b 539 314 353 -75 472 121 b 603 617 572 413 603 508 l 603 631 b 604 654 604 638 604 646 b 593 736 604 681 600 708 z m 353 347 b 346 343 351 344 350 343 b 200 610 315 343 200 435 b 203 663 200 626 200 644 b 351 946 210 721 278 946 b 401 907 368 946 385 933 b 439 738 428 864 439 804 b 353 347 439 600 393 438 z "}," ":{"ha":604,"x_min":0,"x_max":0,"o":""},"!":{"ha":279,"x_min":0,"x_max":0,"o":"m 138 238 b 153 235 143 236 149 235 b 189 272 174 233 185 244 b 281 858 221 465 251 664 l 282 868 b 164 1003 288 935 231 999 l 161 1003 b 132 976 139 1004 133 1000 b 47 382 126 897 60 551 b 138 238 40 281 40 247 z m 86 147 b 69 150 81 149 75 150 b 32 114 47 151 38 142 b 6 -35 18 65 11 15 l 6 -43 b 69 -142 1 -100 14 -119 b 96 -149 79 -146 88 -149 b 153 -108 121 -151 140 -137 b 176 -12 165 -76 174 -44 l 176 -1 b 179 24 178 10 179 17 b 86 147 183 85 149 133 z "},"\"":{"ha":467,"x_min":0,"x_max":0,"o":"m 174 1129 b 89 1192 149 1154 121 1176 b 67 1197 82 1194 75 1197 b 50 1190 61 1197 56 1196 b 43 1175 46 1185 43 1181 b 51 1153 43 1168 47 1160 b 65 1132 56 1146 60 1138 b 82 1092 76 1119 82 1106 b 72 1056 82 1079 78 1068 b 33 983 61 1031 51 1006 b 25 963 28 976 25 969 b 35 944 25 956 28 950 b 104 913 56 928 78 914 b 147 925 122 913 133 917 b 203 1046 182 947 203 999 b 174 1129 203 1079 193 1110 z m 396 1129 b 311 1192 371 1154 343 1176 b 289 1197 304 1194 297 1197 b 272 1190 283 1197 278 1196 b 265 1175 268 1185 265 1181 b 274 1153 265 1168 269 1160 b 288 1132 278 1146 282 1138 b 304 1090 299 1119 304 1104 b 296 1056 304 1079 301 1067 b 256 983 283 1031 274 1006 b 247 963 250 976 247 969 b 257 944 247 956 250 950 b 326 913 278 928 300 914 b 369 925 344 913 356 917 b 425 1046 406 947 425 997 b 396 1129 425 1078 417 1108 z "},"#":{"ha":710,"x_min":0,"x_max":0,"o":"m 681 214 b 647 256 669 228 660 242 b 556 350 617 288 586 318 b 536 381 543 363 536 371 b 544 407 536 388 539 396 b 604 528 564 447 585 488 b 669 661 626 572 649 617 b 678 699 675 674 678 686 b 635 767 678 728 663 751 b 599 779 622 774 610 779 b 558 744 583 779 569 769 b 549 726 556 739 553 732 l 440 510 b 419 488 435 501 431 488 l 415 488 b 385 517 400 489 390 501 b 383 524 383 519 383 521 b 389 540 383 529 386 535 b 422 610 400 564 411 586 b 492 754 446 658 471 706 b 500 790 497 768 500 781 b 450 842 500 815 485 831 b 429 846 440 844 433 846 b 406 822 419 846 415 840 b 308 646 372 764 340 704 b 297 625 304 639 300 632 b 281 611 292 617 286 611 b 267 617 276 611 272 613 b 210 657 249 631 228 643 b 147 675 192 671 169 674 l 144 675 b 129 661 135 675 129 669 b 133 649 129 658 131 653 b 150 631 138 642 144 636 b 226 556 175 606 201 581 b 238 529 235 547 238 539 b 228 504 238 521 235 513 b 211 493 222 496 217 493 b 186 507 203 493 194 501 b 156 528 175 514 165 521 b 101 544 139 540 121 543 l 93 544 b 72 535 85 544 76 543 b 71 526 71 532 71 529 b 81 504 71 518 75 510 b 140 432 100 481 119 456 b 165 393 157 413 165 403 b 149 354 165 383 160 374 b 56 190 115 301 89 244 b 40 142 46 174 40 157 b 114 69 40 106 68 76 b 124 68 117 69 121 68 b 154 89 138 68 147 74 b 175 133 161 104 167 119 b 251 283 200 183 226 233 b 268 299 256 290 260 299 b 276 297 271 299 274 299 b 304 261 294 289 304 278 b 299 239 304 254 303 247 b 265 168 288 215 275 192 b 256 138 260 157 258 144 b 325 54 256 101 286 67 b 342 51 331 53 338 51 b 392 89 361 51 375 63 b 422 147 403 108 413 128 b 438 161 426 156 431 161 b 451 154 442 161 446 158 b 507 113 469 139 488 125 b 565 85 525 100 543 88 l 574 85 b 596 94 582 85 590 86 b 600 107 599 99 600 103 b 592 128 600 115 597 122 b 567 154 585 138 575 146 b 475 231 536 181 506 204 b 468 251 469 236 468 243 b 482 286 468 263 472 276 b 493 293 486 290 490 293 b 514 275 501 293 508 281 b 604 192 544 247 572 218 b 653 172 619 181 635 175 l 660 172 b 682 183 669 172 676 175 b 686 196 685 188 686 192 b 681 214 686 203 683 208 z m 357 354 b 349 350 354 351 351 350 b 343 351 347 350 344 350 b 317 386 329 360 317 371 b 339 436 317 406 325 424 b 344 439 340 438 343 439 b 350 436 347 439 349 438 b 378 399 364 426 375 415 b 357 354 374 382 365 368 z "},"$":{"ha":874,"x_min":0,"x_max":0,"o":"m 533 992 l 533 1003 b 504 1085 533 1033 524 1061 b 450 1119 483 1108 465 1119 b 442 1118 447 1119 444 1119 b 435 1117 440 1117 438 1117 b 419 1110 428 1115 422 1113 b 414 1089 415 1107 414 1100 b 400 911 414 1063 410 1003 b 207 739 335 864 271 807 b 40 469 125 654 69 564 b 33 418 36 451 33 435 b 86 276 33 367 51 319 b 286 133 144 207 211 160 b 299 129 290 132 294 131 b 333 119 310 126 322 122 b 322 -25 329 74 326 25 b 285 -17 310 -24 297 -21 b 235 14 267 -10 250 0 b 219 26 229 18 224 22 l 218 26 l 218 28 b 215 29 217 29 217 29 b 206 38 213 33 210 36 b 192 40 201 39 196 40 b 169 33 185 40 178 38 b 151 -3 157 24 151 11 b 158 -24 153 -11 156 -18 b 163 -29 160 -26 161 -28 b 165 -36 164 -32 164 -35 b 168 -37 167 -37 167 -37 b 168 -40 168 -39 168 -39 b 258 -125 193 -78 224 -107 b 313 -150 276 -135 294 -143 b 310 -185 311 -161 311 -174 b 317 -283 310 -231 313 -264 b 358 -314 321 -304 335 -314 b 372 -312 363 -314 368 -314 b 389 -314 378 -314 383 -314 b 421 -275 410 -314 419 -301 b 431 -175 424 -240 426 -207 b 474 -172 444 -175 460 -174 b 492 -171 482 -171 488 -171 b 542 -160 510 -169 526 -165 b 586 -137 557 -154 572 -147 b 625 -107 600 -128 613 -118 b 654 -71 636 -96 646 -83 b 689 19 678 -40 689 -10 b 688 33 689 24 689 29 b 633 129 683 67 665 99 b 521 200 601 158 564 182 b 465 221 503 208 483 215 b 497 578 479 371 489 489 b 515 778 504 653 510 719 b 581 821 536 793 558 807 b 688 872 621 847 657 864 l 688 864 b 686 844 688 858 688 851 b 639 715 676 799 661 756 b 565 593 617 674 592 633 b 561 586 564 592 563 589 b 553 575 558 583 556 579 b 543 558 550 571 547 565 b 535 546 540 554 538 550 b 521 504 525 532 521 518 l 521 499 b 538 457 522 483 528 469 b 560 433 544 447 551 440 b 586 419 568 428 576 424 b 621 410 599 413 611 410 b 629 411 624 410 626 410 b 667 438 643 414 656 422 b 800 635 713 489 757 556 b 853 804 832 696 850 753 b 835 890 853 835 847 864 b 785 960 824 915 807 939 b 735 996 769 975 753 986 b 697 1013 722 1001 710 1007 b 682 1018 692 1014 686 1017 b 640 1025 668 1022 654 1025 b 576 1013 618 1025 597 1021 b 533 992 561 1006 547 999 z m 447 8 b 454 92 454 86 456 113 b 471 88 460 90 465 89 b 504 79 483 86 494 83 l 507 79 l 507 76 b 501 63 507 72 506 68 b 476 32 496 53 488 42 b 447 8 468 24 457 15 z m 378 663 b 343 251 368 551 357 414 b 213 311 279 264 236 283 b 197 361 203 324 197 340 b 224 461 197 388 206 421 b 304 588 247 511 274 553 b 378 663 326 613 350 638 z "},"%":{"ha":801,"x_min":0,"x_max":0,"o":"m 521 1001 b 506 1004 515 1003 511 1004 b 482 975 490 1004 482 994 l 482 971 b 483 954 482 965 483 960 b 456 840 483 914 471 876 b 350 622 425 765 388 693 b 224 369 307 539 265 454 b 97 107 182 282 140 194 b 90 78 93 97 90 88 b 106 39 90 64 94 51 b 160 -8 121 19 139 4 b 199 -21 175 -17 188 -21 b 243 17 217 -21 231 -10 b 288 110 258 47 274 78 b 625 833 385 325 564 618 b 631 876 629 849 631 863 b 521 1001 631 940 586 985 z m 776 354 b 726 478 765 397 757 442 b 628 515 707 500 664 515 b 589 507 614 515 600 513 b 544 472 571 499 557 486 b 397 115 478 403 397 224 b 399 99 397 110 399 104 b 550 -37 404 43 485 -31 b 567 -39 556 -39 561 -39 b 636 -1 594 -39 619 -29 b 772 306 707 111 750 158 b 778 342 774 318 778 331 b 776 354 778 346 778 350 z m 529 99 b 671 401 529 171 606 339 b 529 89 646 283 604 181 z m 261 514 b 372 817 318 585 372 710 b 353 914 372 853 367 885 b 351 918 353 915 351 917 b 257 997 332 958 299 981 b 204 1008 238 1004 221 1008 b 104 949 163 1008 131 985 b 21 690 51 871 26 782 b 142 492 22 599 63 532 b 188 481 156 485 172 481 b 261 514 217 481 244 493 z m 139 656 b 218 867 151 732 167 806 b 243 889 225 876 231 886 b 258 897 249 890 256 890 b 268 906 261 901 261 906 l 271 906 b 276 856 274 889 276 872 b 271 817 276 842 275 829 b 167 613 246 744 214 675 b 157 601 164 610 161 606 b 147 594 154 597 151 594 l 144 594 b 135 610 138 597 135 604 z "},"&":{"ha":967,"x_min":0,"x_max":0,"o":"m 960 399 b 913 449 951 422 931 436 b 890 457 906 454 897 457 b 871 450 883 457 878 456 b 408 278 822 418 414 288 b 406 269 407 275 406 272 b 414 250 406 263 410 256 b 526 204 440 217 479 204 b 671 232 569 204 619 215 b 496 88 619 186 558 135 b 222 -79 392 8 285 -60 b 201 -83 214 -82 207 -83 b 192 -81 197 -83 194 -82 b 178 -53 185 -76 182 -68 b 174 3 176 -33 174 -15 b 176 42 174 15 175 29 b 206 133 182 72 190 104 b 267 242 224 171 244 206 b 343 340 292 275 317 307 b 381 375 356 354 368 367 b 426 393 394 385 410 390 b 451 399 435 394 444 397 b 463 403 454 400 460 401 b 508 439 489 411 504 421 b 510 449 510 442 510 444 b 489 493 510 461 503 475 b 390 558 446 544 417 558 b 349 551 376 558 363 556 b 307 543 336 549 322 543 b 297 543 303 543 300 543 b 293 543 294 543 293 543 l 293 544 b 292 547 292 544 292 546 b 294 558 292 550 292 553 b 357 681 301 599 325 642 b 478 796 392 728 436 769 b 574 851 507 817 540 836 b 676 888 607 867 640 881 l 678 888 l 683 889 b 699 892 688 890 694 892 b 706 890 701 892 704 892 b 704 886 706 890 704 889 b 707 869 704 882 706 875 b 740 835 711 857 725 843 b 778 822 751 828 765 822 b 788 824 782 822 785 824 b 819 856 801 828 813 840 b 825 886 822 864 825 875 b 824 899 825 890 825 894 b 810 951 821 918 815 935 b 711 1040 788 999 754 1026 b 636 1053 688 1049 663 1053 b 579 1047 617 1053 599 1050 b 483 1019 546 1040 514 1032 b 308 910 418 990 360 956 b 185 756 260 867 219 817 b 150 646 165 721 153 683 l 150 635 b 172 535 150 601 156 568 b 192 501 178 524 185 511 b 213 469 197 489 206 481 b 218 464 215 467 218 465 l 213 460 b 167 403 196 442 181 422 b 126 343 151 383 138 364 b 71 250 107 314 86 282 b 31 146 54 218 40 182 b 22 69 25 119 22 94 b 43 -44 22 31 29 -8 b 163 -183 64 -100 104 -149 b 283 -221 204 -210 244 -221 b 365 -206 311 -221 338 -215 b 536 -100 426 -186 482 -143 b 689 47 578 -64 636 -8 b 793 182 732 96 772 143 b 824 244 804 203 815 224 b 839 297 831 260 836 278 b 933 336 874 313 907 325 b 965 375 954 344 965 357 b 960 399 965 382 963 390 z "},"'":{"ha":244,"x_min":0,"x_max":0,"o":"m 174 1129 b 89 1192 149 1154 121 1176 b 67 1197 82 1194 75 1197 b 50 1190 61 1197 56 1196 b 43 1175 46 1185 43 1181 b 51 1153 43 1168 47 1160 b 65 1132 56 1146 60 1138 b 82 1092 76 1119 82 1106 b 72 1056 82 1079 78 1068 b 33 983 61 1031 51 1006 b 25 963 28 976 25 969 b 35 944 25 956 28 950 b 104 913 56 928 78 914 b 147 925 122 913 133 917 b 203 1046 182 947 203 999 b 174 1129 203 1079 193 1110 z "},"(":{"ha":571,"x_min":0,"x_max":0,"o":"m 536 1049 b 456 1093 521 1089 485 1085 b 396 1072 433 1090 414 1083 b 32 385 199 929 32 638 l 32 361 b 122 58 38 253 61 151 b 297 -122 169 -12 224 -76 b 407 -165 331 -143 367 -161 b 421 -167 411 -165 417 -167 b 443 -154 431 -167 439 -164 b 444 -144 444 -151 444 -147 b 424 -118 444 -133 435 -125 b 399 -104 415 -114 407 -110 b 340 -60 378 -92 358 -76 b 254 53 303 -28 282 14 b 192 238 215 110 203 174 b 186 315 188 264 186 289 b 189 372 186 335 186 353 b 336 772 204 510 260 657 b 514 972 372 829 457 940 b 544 1015 535 983 544 997 b 536 1049 544 1025 542 1036 z "},")":{"ha":563,"x_min":0,"x_max":0,"o":"m 538 565 b 449 868 533 674 508 775 b 272 1049 401 939 346 1003 b 163 1092 239 1069 203 1088 b 149 1093 158 1092 153 1093 b 126 1081 139 1093 131 1090 b 125 1072 125 1078 125 1075 b 146 1044 125 1060 135 1051 b 171 1031 154 1040 163 1035 b 231 986 192 1017 211 1003 b 315 874 267 954 289 913 b 378 689 354 817 368 753 b 385 606 382 661 385 633 b 382 554 385 589 383 571 b 303 279 371 457 339 368 b 57 -46 265 186 136 -1 b 26 -89 36 -58 26 -72 b 35 -124 26 -99 29 -111 b 108 -165 46 -153 76 -165 b 174 -146 132 -165 157 -158 b 508 358 347 -21 456 151 b 538 543 524 419 538 481 z "},"*":{"ha":439,"x_min":0,"x_max":0,"o":"m 331 1001 b 314 1022 319 1011 314 1017 b 333 1043 314 1029 321 1033 b 389 1138 360 1063 389 1106 b 364 1174 389 1154 382 1167 b 358 1175 363 1174 360 1175 b 336 1160 349 1175 343 1167 b 289 1133 322 1147 304 1133 b 274 1142 283 1133 278 1136 b 222 1253 250 1171 260 1247 b 204 1256 215 1254 210 1256 b 179 1225 190 1256 185 1247 b 157 1142 172 1197 165 1169 b 133 1115 151 1122 143 1115 b 60 1147 113 1115 85 1147 b 26 1118 47 1147 36 1140 b 25 1110 25 1115 25 1113 b 38 1089 25 1101 31 1096 b 100 1038 57 1071 78 1053 b 114 1022 110 1032 114 1026 b 101 1007 114 1017 110 1013 b 58 975 86 997 72 988 b 42 949 47 964 42 956 b 63 928 42 940 49 935 b 75 925 67 926 71 925 b 146 947 103 925 146 947 b 151 929 150 943 151 938 b 146 876 151 914 146 894 b 147 863 146 871 146 867 b 208 831 151 849 182 831 b 253 867 229 831 247 840 b 260 907 256 881 254 894 b 283 932 267 926 271 932 b 299 931 288 932 293 932 b 339 921 313 928 325 924 l 342 921 b 367 935 351 921 361 926 b 371 946 369 939 371 943 b 363 964 371 953 367 958 b 331 1001 353 976 342 989 z "},"+":{"ha":614,"x_min":0,"x_max":0,"o":"m 456 563 b 411 585 419 563 411 564 b 413 611 411 592 411 600 l 413 615 b 411 644 413 624 411 642 l 411 649 b 299 750 411 703 353 746 l 294 750 b 267 725 279 750 268 743 b 235 586 263 678 246 632 b 182 544 225 549 221 544 b 129 549 164 546 146 549 l 122 549 b 38 486 63 549 38 518 b 68 431 38 465 49 443 b 196 382 101 413 196 418 l 196 378 b 192 329 193 361 192 344 b 199 256 192 304 194 279 b 296 153 208 188 260 153 b 335 185 315 153 332 163 l 335 210 b 363 388 342 269 346 329 b 526 450 376 435 467 417 b 556 490 547 461 556 475 b 456 563 556 525 511 561 z "},",":{"ha":246,"x_min":0,"x_max":0,"o":"m 174 17 b 89 79 149 42 121 64 b 68 86 82 83 75 86 b 50 78 61 86 56 83 b 43 63 46 74 43 68 b 51 40 43 56 47 47 b 65 19 56 33 60 26 b 82 -22 76 7 82 -8 b 74 -57 82 -33 79 -46 b 33 -128 63 -82 51 -107 b 25 -149 28 -135 25 -142 b 35 -168 25 -156 28 -162 b 104 -200 56 -183 78 -199 b 147 -186 122 -200 133 -196 b 204 -67 183 -164 204 -114 b 174 17 204 -35 194 -3 z "},"-":{"ha":522,"x_min":0,"x_max":0,"o":"m 483 396 b 447 450 471 414 460 432 b 68 490 417 493 157 471 l 61 490 b 43 489 56 490 49 490 b 24 469 31 486 24 481 b 25 460 24 467 24 464 b 40 436 28 450 33 443 b 222 349 86 378 149 351 l 328 349 b 329 350 328 350 328 350 l 460 350 b 492 374 481 351 492 360 b 483 396 492 381 489 388 z "},".":{"ha":190,"x_min":0,"x_max":0,"o":"m 69 71 b 58 72 65 72 63 72 b 33 44 43 72 36 64 b 26 4 31 32 31 18 b 24 -14 25 -1 24 -8 b 38 -58 24 -29 29 -44 b 83 -110 49 -78 65 -96 b 118 -124 96 -119 108 -124 b 157 -93 133 -124 146 -114 b 169 -53 164 -79 169 -65 b 69 71 169 -12 106 64 z "},"/":{"ha":386,"x_min":0,"x_max":0,"o":"m 56 -131 b 72 -135 61 -132 67 -135 b 111 -103 92 -139 104 -129 b 410 951 169 85 354 763 l 413 961 b 313 1110 425 1026 378 1097 l 310 1110 b 276 1088 288 1115 282 1111 b -15 25 261 1010 19 192 b 56 -131 -35 -75 -39 -108 z "},":":{"ha":206,"x_min":0,"x_max":0,"o":"m 69 71 b 58 72 65 72 63 72 b 33 44 43 72 36 64 b 26 4 31 32 31 18 b 24 -15 25 -3 24 -8 b 38 -58 24 -31 29 -44 b 83 -110 49 -78 64 -96 b 118 -124 96 -119 108 -124 b 157 -93 133 -124 146 -114 b 169 -53 164 -79 169 -65 b 69 71 168 -12 106 64 z m 83 675 b 74 676 81 675 76 676 b 47 649 58 676 51 667 b 42 608 46 635 46 621 b 39 589 40 601 39 594 b 51 546 39 574 43 560 b 99 493 64 525 79 507 b 132 479 111 485 121 479 b 172 511 147 479 160 490 b 183 547 178 522 183 535 l 183 551 b 83 675 183 590 121 668 z "},";":{"ha":244,"x_min":0,"x_max":0,"o":"m 174 17 b 89 79 149 42 121 64 b 68 86 82 83 75 86 b 50 78 61 86 56 83 b 43 63 46 74 43 68 b 51 40 43 56 47 47 b 65 19 56 33 60 26 b 82 -21 76 7 82 -7 b 72 -57 82 -33 78 -44 b 33 -128 61 -82 51 -107 b 25 -149 28 -135 25 -142 b 35 -168 25 -156 28 -162 b 104 -200 56 -183 78 -199 b 147 -186 122 -200 133 -196 b 203 -65 182 -164 203 -114 b 174 17 203 -33 193 -3 z m 107 675 b 97 676 103 675 100 676 b 71 649 82 676 74 667 b 64 608 68 635 68 621 b 61 590 63 601 61 596 b 75 546 61 574 67 560 b 121 493 86 525 101 507 b 154 479 133 485 144 479 b 194 511 169 479 183 490 b 207 551 201 524 207 538 b 107 675 207 590 143 668 z "},"<":{"ha":642,"x_min":0,"x_max":0,"o":"m 615 286 b 346 432 579 390 422 392 b 369 461 351 449 363 454 b 539 615 429 508 485 563 b 567 668 557 633 567 651 b 543 719 567 685 558 701 b 489 761 529 738 511 753 b 464 767 481 764 472 767 b 429 750 451 767 440 761 b 325 651 396 715 360 683 b 183 533 278 611 232 571 b 150 478 160 514 150 496 b 583 253 150 371 503 281 b 600 247 589 250 594 247 b 614 254 606 247 610 250 b 619 269 618 260 619 264 b 615 286 619 275 618 281 z "},"=":{"ha":454,"x_min":0,"x_max":0,"o":"m 428 388 b 385 449 421 413 411 436 b 221 479 331 472 276 479 b 54 471 165 479 110 472 b 33 453 40 471 33 464 b 36 439 33 449 33 444 b 275 339 69 357 175 339 b 385 344 314 339 353 342 b 429 381 410 346 429 363 b 428 388 429 383 428 385 z m 333 535 b 342 538 336 535 339 536 b 365 568 356 544 365 556 b 360 588 365 575 363 581 b 276 649 342 622 314 649 l 274 649 b 63 654 204 649 132 653 b 29 633 40 654 29 647 b 35 613 29 628 31 621 b 211 532 68 543 139 532 b 314 535 246 532 282 535 z "},">":{"ha":626,"x_min":0,"x_max":0,"o":"m 60 719 b 42 726 54 722 47 726 b 29 721 38 726 33 725 b 22 703 24 715 22 710 b 24 690 22 699 22 694 b 279 519 51 583 207 567 b 253 493 272 504 261 500 b 71 354 189 451 129 403 b 38 300 49 336 38 319 b 57 251 38 285 44 269 b 107 206 69 232 86 215 b 135 197 117 200 126 197 b 168 211 146 197 157 201 b 281 300 204 242 242 271 b 432 406 331 336 381 371 b 471 461 460 424 471 442 b 60 719 471 565 136 686 z "},"?":{"ha":610,"x_min":0,"x_max":0,"o":"m 346 1101 b 274 1114 321 1110 297 1114 b 146 1063 226 1114 183 1097 b 46 864 76 997 46 933 b 82 725 46 819 58 774 b 192 653 99 692 157 660 b 181 794 189 694 181 743 b 204 919 181 835 186 878 b 336 1018 225 967 283 1018 b 421 936 371 1018 404 996 b 424 904 424 928 424 917 b 417 831 424 878 421 846 b 246 596 393 729 349 642 b 119 347 144 551 119 447 b 122 292 119 328 121 310 b 208 219 125 250 174 231 b 229 215 217 217 224 215 b 264 253 247 215 258 228 b 276 371 275 292 275 332 b 379 508 281 442 317 482 b 482 575 418 524 454 543 b 583 824 544 647 583 728 l 583 843 b 346 1101 578 969 457 1065 z m 143 129 b 101 106 114 129 104 126 b 90 -29 97 61 90 17 b 92 -65 90 -40 90 -53 b 178 -143 97 -111 132 -143 l 181 -143 b 215 -126 194 -142 208 -140 b 271 35 239 -74 268 -24 b 261 74 271 49 271 63 b 143 129 229 106 193 129 z "},"@":{"ha":1251,"x_min":0,"x_max":0,"o":"m 261 972 b 161 828 222 928 189 881 b 43 358 83 683 49 524 b 343 22 44 144 189 22 b 415 31 368 22 392 25 b 456 56 432 35 446 42 b 463 78 460 63 463 71 b 458 94 463 83 461 89 b 431 111 454 107 443 111 l 425 111 b 392 110 413 110 401 110 b 179 342 232 110 179 211 b 332 821 179 507 265 717 b 543 950 390 911 467 950 b 838 600 692 950 838 801 b 799 417 838 543 826 481 b 697 301 779 369 742 331 b 681 293 690 296 685 293 b 671 315 675 293 672 300 l 671 328 b 683 392 671 350 676 372 b 740 572 703 451 722 511 b 744 599 743 581 744 590 b 599 783 744 674 651 740 b 567 801 590 790 578 796 b 486 822 536 815 510 822 b 376 750 444 822 413 800 b 251 401 304 646 269 526 b 250 381 250 394 250 388 b 360 226 250 307 304 250 b 389 219 369 222 379 219 b 435 242 406 219 421 226 b 507 326 458 269 486 294 b 525 343 511 333 515 343 l 528 343 b 542 319 539 340 539 328 b 600 236 553 286 574 258 b 710 193 635 208 672 193 b 825 244 750 193 789 210 b 961 572 921 340 961 457 b 518 1101 961 839 746 1101 b 261 972 431 1101 342 1064 z m 600 635 b 578 606 593 624 586 614 b 431 439 528 551 479 494 l 431 446 b 504 646 431 497 483 606 b 533 685 513 660 522 674 b 564 703 544 697 554 703 b 582 696 569 703 576 701 b 606 654 596 685 606 669 b 600 635 606 647 603 640 z "},"A":{"ha":885,"x_min":0,"x_max":0,"o":"m 764 1013 b 582 1078 722 1046 647 1078 b 507 1058 554 1078 528 1072 b 415 974 472 1035 442 1007 b 233 699 346 889 285 797 b 103 399 185 601 140 501 b 39 164 76 322 58 243 b 22 33 28 121 22 78 l 22 19 b 113 -78 22 -28 65 -74 l 121 -78 b 156 -42 146 -78 156 -67 l 156 -24 b 219 257 156 60 194 179 b 225 269 224 269 219 267 b 296 261 250 264 272 261 b 408 285 333 261 369 269 b 549 333 454 303 499 325 b 569 336 557 335 564 336 b 582 321 579 336 582 332 b 581 307 582 317 581 313 b 564 188 576 267 571 228 b 542 -31 554 115 543 43 l 542 -39 b 551 -69 542 -50 543 -61 b 665 -149 581 -107 619 -133 b 688 -153 674 -151 681 -153 b 719 -114 707 -153 717 -140 b 736 -3 724 -76 732 -40 b 846 635 760 211 828 435 b 864 803 851 690 864 746 b 764 1013 861 886 832 958 z m 608 464 b 589 442 606 450 603 442 b 578 443 586 442 582 442 b 539 449 565 447 551 449 b 476 440 518 449 497 444 b 265 378 438 432 299 378 b 260 379 263 378 261 378 b 571 903 317 558 453 758 b 639 956 601 940 624 956 b 669 871 661 956 669 921 b 608 464 669 738 614 493 z "},"B":{"ha":1042,"x_min":0,"x_max":0,"o":"m 765 458 b 917 624 824 507 872 564 b 1013 825 961 685 1001 749 b 1015 858 1014 836 1015 847 b 972 975 1015 901 1001 940 b 674 1131 907 1054 781 1131 l 660 1131 b 358 1003 544 1122 447 1074 b 229 878 313 967 268 924 b 172 803 210 854 190 829 b 156 756 163 789 156 772 b 165 725 156 746 158 735 b 224 669 181 703 199 682 b 265 656 240 660 254 656 b 311 692 283 656 297 667 b 381 788 331 726 357 757 b 636 976 450 872 538 932 b 761 1007 675 994 718 1007 b 803 1003 775 1007 789 1006 b 849 947 840 997 847 986 b 819 825 849 904 836 863 b 619 551 772 719 704 629 b 529 489 593 528 568 500 b 526 503 528 496 526 500 b 560 651 538 553 549 603 b 564 679 563 661 564 669 b 551 714 564 692 560 703 b 457 776 525 743 496 767 b 435 779 449 778 440 779 b 401 743 417 779 408 769 b 314 388 367 625 339 507 b 231 11 288 263 250 139 b 229 -12 229 3 229 -6 b 279 -94 229 -49 243 -76 b 343 -121 300 -106 321 -115 b 361 -124 350 -122 356 -124 b 397 -85 382 -124 393 -110 b 467 261 413 31 438 147 b 482 311 469 271 482 311 b 678 346 508 325 603 346 b 767 321 718 346 753 340 b 803 200 793 283 803 243 b 801 176 803 193 801 185 b 656 -111 792 60 732 -32 b 347 -321 568 -203 472 -283 b 322 -322 339 -322 329 -322 b 133 40 118 -322 186 -78 b 118 22 125 31 119 28 b 85 -162 96 -43 85 -106 b 342 -440 85 -322 171 -440 b 469 -422 381 -440 422 -435 b 668 -319 543 -403 608 -364 b 906 -72 761 -250 842 -169 b 961 101 943 -15 961 43 b 926 244 961 150 950 197 b 769 414 893 314 840 374 b 749 435 756 422 749 428 b 765 458 749 440 754 447 z "},"C":{"ha":893,"x_min":0,"x_max":0,"o":"m 869 896 b 858 917 867 904 863 911 b 599 1090 793 1007 707 1068 b 563 1094 586 1093 574 1094 b 196 750 401 1094 267 871 b 85 338 126 631 85 482 b 336 -128 85 147 157 -33 b 435 -153 369 -146 401 -153 b 832 353 647 -153 832 186 b 756 282 793 333 778 304 b 360 -19 681 210 453 11 b 339 -24 351 -22 344 -24 b 288 38 308 -24 290 4 b 278 175 282 86 278 132 b 332 493 278 281 296 376 b 643 921 371 621 514 879 b 704 932 664 928 685 932 b 789 893 735 932 764 922 b 825 863 799 881 811 871 b 844 856 831 858 838 856 b 860 861 850 856 854 857 b 871 885 868 868 871 876 b 869 896 871 889 871 892 z "},"D":{"ha":1214,"x_min":0,"x_max":0,"o":"m 447 207 b 496 249 471 207 488 218 b 540 418 511 306 528 361 b 582 606 553 482 563 544 b 606 749 597 656 601 708 l 606 753 b 496 881 606 831 561 878 b 464 858 479 881 468 878 b 440 763 457 825 447 794 b 386 456 422 660 401 558 b 374 331 381 414 374 374 b 381 260 374 307 375 283 b 439 207 389 226 406 210 z m 1179 688 b 1110 838 1165 744 1142 793 b 986 957 1076 883 1035 924 b 858 1029 946 986 903 1010 b 715 1069 814 1049 765 1063 b 658 1075 697 1071 678 1074 l 631 1079 b 556 1083 606 1082 581 1083 b 493 1081 535 1083 514 1082 b 360 1047 447 1075 403 1064 b 336 1039 353 1046 344 1042 b 260 1008 311 1029 285 1021 l 260 1007 b 122 907 210 982 158 957 b 113 885 117 899 114 892 b 121 861 113 876 114 869 b 153 819 131 846 142 832 b 194 786 165 807 179 796 b 233 772 210 776 222 772 l 239 772 b 282 794 253 774 265 782 b 307 817 290 801 299 810 b 343 847 318 828 331 839 b 415 886 365 864 390 876 b 493 913 440 896 467 904 b 585 932 524 921 554 928 b 676 939 615 938 646 939 b 789 929 714 939 751 936 b 899 899 826 922 863 911 b 958 861 922 890 942 878 b 994 803 974 846 986 826 b 1014 699 1006 768 1013 733 l 1014 685 b 1003 593 1014 656 1010 625 b 940 435 988 538 967 485 b 847 293 914 386 882 338 b 706 139 804 238 757 186 b 538 14 654 92 599 50 b 336 -57 454 -35 389 -57 b 193 32 269 -57 224 -22 b 126 449 136 131 128 297 l 126 456 l 121 457 l 114 457 b 36 354 99 457 61 449 l 36 353 b 26 226 29 310 26 267 b 47 61 26 168 33 113 b 142 -108 65 -7 96 -65 b 324 -193 188 -153 247 -182 b 385 -197 343 -196 363 -197 b 569 -169 439 -197 500 -189 b 660 -133 601 -161 631 -149 b 740 -85 688 -119 714 -103 b 869 11 786 -56 829 -24 b 983 125 910 46 947 83 b 1094 283 1026 175 1064 228 b 1172 461 1126 340 1153 399 b 1192 571 1185 497 1192 535 l 1192 583 b 1179 688 1192 618 1186 654 z "},"E":{"ha":926,"x_min":0,"x_max":0,"o":"m 903 299 b 883 321 900 308 894 315 b 868 325 878 324 874 325 b 850 319 861 325 856 322 b 835 304 843 315 839 310 b 535 29 790 243 665 129 b 242 -153 424 -57 310 -132 b 221 -157 233 -156 226 -157 b 208 -154 215 -157 211 -156 b 194 -125 201 -150 197 -140 b 190 -64 192 -104 190 -83 b 193 -21 190 -49 192 -35 b 224 79 197 14 207 46 b 290 196 243 119 265 158 b 372 306 315 233 343 269 b 413 343 385 319 397 333 b 461 363 426 353 442 360 b 488 369 471 364 479 367 b 499 374 492 371 496 372 b 549 413 528 382 543 394 b 550 422 550 415 550 419 b 528 471 550 436 543 453 b 422 544 482 528 450 544 b 376 535 407 544 392 539 b 333 526 364 531 350 528 l 326 526 b 317 528 321 526 318 526 b 318 543 317 529 317 535 b 386 676 328 586 353 633 b 515 803 424 728 472 774 b 618 863 549 825 582 846 b 731 903 654 881 692 893 l 736 904 b 754 907 742 906 749 907 b 760 906 756 907 758 907 l 760 904 b 758 901 760 904 758 903 b 763 883 760 894 760 889 b 797 844 767 868 782 854 b 836 832 810 836 824 832 b 849 833 840 832 844 832 b 882 867 864 839 875 851 b 889 900 886 876 889 889 b 888 914 889 906 889 910 b 871 971 883 935 878 954 b 767 1069 849 1022 811 1053 b 686 1082 742 1078 715 1082 b 624 1076 667 1082 644 1081 b 522 1046 589 1071 554 1060 b 335 926 453 1014 389 975 b 201 760 282 881 238 825 b 164 638 181 719 167 679 l 164 628 b 188 517 164 592 171 556 b 208 481 194 504 201 492 b 232 447 217 468 225 457 b 236 440 235 443 236 442 b 232 435 236 440 235 438 b 182 374 214 415 197 394 b 139 308 167 351 153 331 b 79 206 117 275 97 242 b 38 93 61 171 47 133 b 28 7 31 64 28 36 b 50 -114 28 -35 35 -75 b 176 -267 74 -175 115 -229 b 308 -308 222 -296 267 -308 b 394 -292 339 -308 367 -301 b 578 -175 460 -268 521 -222 b 742 -14 624 -136 686 -75 b 854 133 789 39 831 92 b 888 200 867 154 878 176 b 904 278 897 225 904 250 l 904 283 b 903 299 904 289 904 293 z "},"F":{"ha":689,"x_min":0,"x_max":0,"o":"m 790 983 b 668 1072 775 1057 728 1072 b 608 1069 650 1072 629 1071 l 590 1069 b 496 1075 567 1069 533 1072 b 336 1083 447 1079 390 1083 b 271 1081 314 1083 292 1082 b 113 974 182 1072 113 1046 l 113 963 b 49 333 106 874 49 333 l 47 325 b 21 61 35 243 21 160 l 21 60 b 24 29 22 50 22 39 b 54 -117 25 -15 26 -68 b 92 -162 64 -136 76 -150 b 143 -187 106 -174 122 -182 b 169 -193 153 -190 163 -193 b 190 -186 178 -193 185 -190 b 204 -154 199 -181 204 -169 b 203 -142 204 -150 203 -146 b 201 -99 201 -126 201 -112 b 203 -40 201 -79 201 -60 b 204 -7 203 -29 204 -18 b 225 200 206 63 215 131 l 226 203 b 240 271 229 226 233 249 b 260 336 246 293 253 315 b 308 399 265 356 285 378 b 393 454 336 425 371 447 l 404 458 b 575 507 460 479 515 500 b 613 510 588 510 600 510 b 682 519 636 511 660 513 b 714 540 699 524 708 531 b 717 551 715 544 717 547 b 708 575 717 558 714 567 b 701 588 707 579 704 583 b 692 597 699 592 694 594 b 522 656 638 640 579 656 b 343 618 451 656 386 633 b 303 606 325 611 310 606 b 319 810 304 632 311 735 b 329 885 325 851 328 885 b 403 888 329 885 361 886 b 603 893 479 890 589 893 b 692 903 633 894 663 899 b 722 907 703 904 713 907 l 739 911 b 756 917 744 913 750 915 b 786 944 769 924 779 933 b 792 969 790 951 792 961 b 790 983 792 974 792 979 z "},"G":{"ha":900,"x_min":0,"x_max":0,"o":"m 847 511 b 813 543 839 526 828 538 b 790 547 806 546 799 547 b 767 543 783 547 775 546 l 750 539 b 718 528 739 536 729 533 b 525 463 656 501 590 482 b 471 447 508 458 493 453 b 453 438 464 444 458 442 b 436 415 444 432 439 425 b 433 400 433 411 433 406 b 435 388 433 396 433 392 b 443 369 438 381 440 375 b 568 276 494 299 532 276 b 639 297 592 276 614 288 b 665 308 647 301 656 306 b 557 160 631 256 596 207 b 396 -10 508 100 456 44 b 349 -44 381 -22 365 -33 b 297 -71 333 -54 315 -62 b 265 -78 285 -75 275 -78 b 224 -46 247 -76 233 -64 b 201 42 211 -24 204 8 b 199 107 199 63 199 85 b 211 233 199 160 204 208 b 229 293 215 253 222 274 b 251 350 235 313 243 332 b 450 663 303 461 369 568 b 711 903 526 756 614 836 b 725 914 721 910 725 914 b 736 894 726 914 729 907 b 775 860 743 879 758 867 b 808 851 786 854 797 851 b 826 854 815 851 821 853 b 853 889 840 861 850 872 b 856 910 856 896 856 903 b 853 935 856 918 856 926 b 849 946 851 939 850 943 b 847 951 847 949 847 950 b 807 1025 838 979 824 1003 b 750 1081 790 1046 771 1064 b 699 1104 733 1093 717 1101 b 685 1106 694 1106 690 1106 b 644 1097 672 1106 658 1103 b 389 915 551 1061 464 994 b 161 597 294 818 215 701 b 86 446 133 547 107 497 b 36 279 63 393 46 338 b 26 176 29 244 26 210 b 44 46 26 131 32 88 b 172 -154 67 -28 107 -94 b 261 -208 200 -178 229 -197 b 363 -226 293 -221 326 -226 b 426 -217 385 -225 406 -222 b 488 -187 449 -211 468 -201 b 625 -62 538 -151 585 -110 b 731 92 667 -17 701 35 b 782 208 751 129 769 168 b 800 321 793 244 800 282 l 800 339 b 801 354 800 344 800 350 b 806 360 801 356 803 358 b 847 408 826 372 836 390 b 856 424 850 414 853 419 l 857 424 b 868 458 865 436 868 447 b 849 510 868 478 858 494 z "},"H":{"ha":839,"x_min":0,"x_max":0,"o":"m 821 1003 b 769 1036 807 1017 788 1028 b 724 1050 749 1046 735 1050 b 686 989 699 1050 692 1029 b 594 515 665 826 629 675 b 550 475 589 488 574 475 b 538 476 546 475 542 476 b 490 479 524 479 507 479 b 388 476 456 479 418 476 b 326 500 351 476 326 481 l 326 504 b 331 524 328 511 329 518 b 422 975 351 597 422 854 b 414 1025 422 996 419 1014 b 292 1114 388 1076 343 1100 b 276 1117 286 1115 281 1117 b 250 1081 258 1117 250 1104 b 238 996 249 1053 244 1024 b 164 697 213 897 188 797 l 118 510 b 86 360 97 424 106 454 b 22 -36 63 240 24 83 l 22 -39 b 158 -176 22 -122 89 -160 b 176 -179 165 -178 171 -179 b 211 -129 201 -179 211 -162 b 279 307 211 19 247 163 b 515 363 289 353 465 361 l 525 363 b 554 342 547 363 554 356 b 550 311 554 333 553 324 b 525 125 540 249 529 188 b 524 110 525 119 524 115 b 542 54 524 90 529 71 b 640 -7 567 22 600 1 b 653 -8 644 -8 650 -8 b 690 24 671 -8 681 1 b 700 64 694 36 699 50 b 758 394 713 175 733 285 b 833 722 785 503 807 613 b 863 904 847 782 853 843 l 863 915 b 821 1003 863 950 846 979 z "},"I":{"ha":601,"x_min":0,"x_max":0,"o":"m 728 1060 b 711 1093 724 1071 717 1082 b 682 1114 704 1107 694 1114 b 667 1111 676 1114 672 1113 b 268 1071 635 1099 301 1071 l 239 1071 b 207 1054 217 1071 207 1067 b 213 1032 207 1049 210 1040 b 351 911 233 981 299 926 b 381 889 374 904 381 901 b 378 868 381 885 379 878 b 189 94 340 675 189 278 l 189 79 b 56 64 189 79 89 64 l 43 64 b 25 50 31 64 25 60 b 29 33 25 46 26 40 b 193 -61 56 -37 119 -61 b 478 -6 289 -61 403 -22 b 513 31 499 0 507 13 b 514 44 514 35 514 39 b 453 140 514 82 483 140 b 432 131 446 140 439 138 b 379 104 418 117 400 106 b 539 892 403 218 539 722 b 533 935 539 911 538 925 b 542 939 533 935 533 936 b 675 967 585 951 631 958 b 735 1028 713 974 735 996 b 728 1060 735 1038 732 1049 z "},"J":{"ha":858,"x_min":0,"x_max":0,"o":"m 818 956 b 788 1042 814 986 811 1018 b 683 1104 757 1072 721 1090 b 667 1107 678 1107 672 1107 b 644 1081 653 1107 644 1097 l 644 1075 b 647 1029 646 1060 647 1044 b 633 871 647 976 639 924 b 517 99 615 701 572 244 b 449 -28 499 53 485 7 b 351 -90 403 -72 372 -90 b 315 -19 324 -90 315 -60 b 361 228 315 74 361 224 b 363 250 363 236 363 243 b 313 322 363 301 329 314 b 194 43 282 317 194 176 b 431 -199 194 -64 249 -167 b 443 -200 435 -199 439 -200 b 650 -85 511 -200 613 -136 b 821 876 756 58 821 628 b 818 956 821 908 821 936 z "},"K":{"ha":592,"x_min":0,"x_max":0,"o":"m 657 853 b 672 900 668 868 672 885 b 647 958 672 919 664 940 b 553 1014 621 986 588 1001 b 542 1017 549 1015 544 1017 b 518 1001 532 1017 524 1011 b 322 715 486 943 371 756 b 346 928 339 785 335 857 b 347 953 347 936 347 944 b 326 1022 347 976 342 1001 b 193 1094 294 1067 246 1086 b 183 1096 190 1094 186 1096 b 160 1064 168 1096 163 1085 b 156 1003 158 1044 158 1024 b 101 608 142 871 124 740 b 42 269 83 496 64 382 b 22 82 29 208 26 144 l 22 69 b 36 19 22 53 25 35 b 176 -54 71 -28 119 -50 l 181 -54 b 210 -26 197 -54 208 -46 b 240 247 217 72 224 149 b 254 271 242 256 239 267 b 267 221 261 254 264 238 b 421 -97 278 156 322 -97 b 440 -94 426 -97 433 -97 b 474 -54 460 -87 468 -72 l 474 -53 b 450 118 474 -39 453 104 b 404 381 433 206 417 293 b 397 449 400 411 397 432 b 450 551 397 483 411 497 b 657 853 519 653 589 753 z "},"L":{"ha":814,"x_min":0,"x_max":0,"o":"m 781 182 b 738 213 771 197 757 210 b 647 224 708 217 678 224 l 640 224 b 358 143 513 218 464 172 b 353 142 357 143 354 142 b 342 154 346 142 342 146 l 342 158 b 344 175 342 164 343 169 b 442 500 374 285 400 394 b 507 572 444 507 490 554 b 657 915 583 657 657 796 b 493 1121 657 1006 614 1086 b 463 1126 481 1124 471 1126 b 414 1082 439 1126 426 1113 b 324 801 379 990 354 894 b 253 565 300 722 276 644 b 206 522 246 540 231 528 b 136 510 182 517 160 513 b 115 494 128 508 117 507 l 115 492 b 131 472 115 483 122 478 b 197 451 151 460 174 457 b 214 435 208 449 214 443 b 213 425 214 432 214 428 b 206 393 211 414 208 404 b 154 194 189 326 174 260 b 149 156 150 181 149 168 b 182 78 149 126 160 101 b 190 63 188 72 190 67 b 176 46 190 57 185 53 b 97 -29 147 25 117 3 b 76 -93 82 -53 76 -75 b 165 -175 76 -146 126 -175 b 204 -157 182 -175 197 -169 b 510 56 254 -69 421 17 b 765 146 593 92 679 119 b 786 167 779 150 786 157 b 781 182 786 171 785 176 z m 536 938 b 557 985 543 971 550 985 b 567 946 563 985 567 969 b 475 696 567 892 544 788 z "},"M":{"ha":893,"x_min":0,"x_max":0,"o":"m 851 1011 b 761 1050 824 1031 792 1040 b 744 1053 754 1053 749 1053 b 714 1026 731 1053 724 1044 b 506 644 640 896 569 781 b 451 910 478 733 475 828 b 271 1067 426 993 351 1060 b 253 1068 264 1068 258 1068 b 218 1025 228 1068 221 1058 b 176 858 213 967 193 913 b 7 101 147 753 18 297 b 6 58 6 86 6 71 b 97 -44 6 -8 21 -44 b 126 -43 107 -44 117 -44 b 158 8 154 -42 154 -12 b 188 136 169 50 176 94 b 310 672 197 171 308 671 b 321 625 314 654 317 639 b 363 463 333 571 346 517 b 508 365 382 404 449 365 b 526 367 514 365 521 365 b 553 396 546 369 553 379 l 549 429 b 547 446 547 435 547 440 b 553 474 547 456 549 464 b 694 790 597 578 635 685 b 696 781 694 789 696 786 b 638 375 696 721 646 422 b 621 143 628 322 621 197 l 621 139 b 674 47 621 99 639 68 b 756 21 699 33 726 25 b 768 19 760 21 765 19 b 804 60 792 19 800 31 b 808 150 807 90 806 119 b 903 897 828 444 890 683 l 903 908 b 851 1011 903 951 888 986 z "},"N":{"ha":706,"x_min":0,"x_max":0,"o":"m 750 989 b 632 1061 732 1025 674 1061 l 628 1061 b 601 1044 615 1061 601 1057 l 601 1043 b 493 428 601 1042 499 447 b 476 451 479 435 478 443 b 172 978 454 596 351 961 b 153 979 165 979 158 979 b 122 932 128 979 124 969 b 7 50 113 682 36 429 l 7 47 b 81 -39 7 4 38 -32 b 122 -43 97 -42 111 -43 b 178 36 163 -43 174 -24 b 242 511 186 151 225 396 b 256 556 243 525 246 540 b 408 74 285 461 346 150 b 532 22 442 33 485 22 b 614 122 564 22 608 96 b 751 925 663 429 699 719 b 757 960 754 938 757 949 b 750 989 757 969 756 979 z "},"O":{"ha":728,"x_min":0,"x_max":0,"o":"m 694 782 b 560 938 672 854 631 911 b 426 1011 485 964 478 985 b 343 1032 401 1024 372 1032 b 236 981 306 1032 268 1018 b 75 689 163 894 113 794 b 22 415 43 600 22 508 l 22 406 b 28 318 25 375 21 347 b 94 157 39 260 60 206 b 174 82 117 125 139 99 l 194 69 b 333 29 240 43 288 29 b 457 61 375 29 417 40 b 596 203 515 93 565 142 b 699 447 636 282 675 363 b 725 614 715 510 725 561 b 694 782 725 665 715 718 z m 583 664 b 544 475 583 596 564 536 b 465 292 525 410 500 349 b 303 136 426 225 378 167 b 253 124 282 128 265 124 b 200 181 228 124 214 140 b 174 336 183 232 174 283 b 183 426 174 365 176 396 b 250 663 201 507 217 588 b 275 714 258 681 267 697 b 494 886 322 819 424 886 b 565 833 529 886 557 869 b 586 708 576 790 586 749 b 583 671 586 696 586 683 z "},"P":{"ha":775,"x_min":0,"x_max":0,"o":"m 821 1013 b 557 1103 747 1068 656 1103 b 322 1035 482 1103 401 1082 b 143 879 254 993 189 944 b 31 606 85 797 44 707 b 29 586 29 599 29 593 b 115 467 29 533 64 485 b 133 464 122 464 128 464 b 157 497 149 464 156 474 b 290 769 160 572 235 731 b 293 756 292 761 293 758 b 138 -167 244 490 139 79 b 169 -233 138 -196 149 -217 b 253 -274 194 -253 222 -268 b 272 -275 260 -275 267 -275 b 311 -228 300 -275 310 -262 b 388 272 321 -74 344 128 b 429 244 388 272 403 260 b 472 228 447 233 460 228 b 517 250 488 228 500 235 b 713 482 599 319 651 394 b 858 710 764 556 819 628 b 871 731 861 717 865 724 b 901 835 892 763 901 799 b 821 1013 901 907 867 978 z m 736 925 b 697 814 729 886 714 850 b 565 603 660 739 611 671 b 433 429 524 543 478 486 b 425 415 431 425 428 421 b 414 421 421 417 418 419 b 425 513 417 451 419 482 b 467 767 438 597 460 681 l 467 782 b 438 856 467 811 460 835 b 418 882 425 869 418 876 b 443 906 418 889 426 894 b 683 990 517 954 594 989 l 690 990 b 739 954 725 990 739 982 b 736 925 739 946 738 936 z "},"Q":{"ha":775,"x_min":0,"x_max":0,"o":"m 743 58 b 635 293 726 122 644 228 b 633 310 633 299 633 304 b 640 346 633 321 636 333 b 682 626 679 436 682 532 b 656 758 682 671 674 717 b 489 943 619 839 572 906 b 486 949 489 943 489 944 b 546 989 504 965 526 975 b 567 1011 554 994 567 1001 b 565 1017 567 1014 565 1015 b 526 1067 558 1038 547 1057 b 465 1079 507 1075 486 1079 b 114 769 319 1079 165 878 b 31 439 64 664 31 554 b 33 385 31 421 32 403 b 364 4 51 194 210 4 b 525 92 421 4 476 31 b 558 121 535 103 542 117 b 569 107 563 115 565 110 b 699 8 603 68 646 8 b 736 18 711 8 724 11 b 747 36 744 22 747 29 b 743 58 747 43 744 51 z m 524 492 b 504 472 518 481 514 472 b 488 476 500 472 494 474 b 404 494 456 489 429 494 b 260 426 349 494 307 467 b 238 388 244 414 238 401 b 260 344 238 374 246 360 b 313 319 275 328 294 319 b 361 338 329 319 346 326 b 435 375 381 354 410 375 b 472 342 451 375 465 367 b 383 172 443 285 425 222 b 289 110 346 128 315 110 b 182 369 211 110 183 274 l 182 382 b 238 622 182 460 206 542 b 349 817 265 692 301 758 b 425 897 372 846 397 872 b 453 910 435 907 443 910 b 481 901 461 910 471 907 b 561 699 540 871 561 786 b 524 492 561 619 544 536 z "},"R":{"ha":953,"x_min":0,"x_max":0,"o":"m 938 190 b 919 213 933 206 928 213 b 903 204 915 213 910 210 b 599 29 856 169 669 29 b 585 32 593 29 589 31 b 486 250 519 57 504 203 b 483 261 485 254 483 257 b 504 279 483 271 494 275 b 724 468 590 326 660 396 b 858 664 776 528 819 594 b 897 797 883 708 897 753 b 851 935 897 844 882 890 b 522 1103 772 1049 658 1103 l 513 1103 b 228 1021 413 1100 317 1072 b 50 844 153 978 90 924 b 42 808 44 832 42 819 b 114 704 42 760 82 715 b 133 700 121 701 128 700 b 164 733 149 700 158 711 b 307 886 179 788 261 857 b 521 967 374 928 446 951 b 624 979 556 974 589 979 b 700 969 649 979 675 976 b 747 906 736 961 747 936 b 710 783 747 864 725 814 b 540 533 664 693 608 608 b 417 432 507 497 464 457 b 458 656 433 496 453 593 b 463 697 460 669 463 683 b 443 754 463 718 458 738 b 335 815 415 788 376 806 b 325 817 331 817 328 817 b 299 792 311 817 301 808 b 289 719 296 768 294 743 b 240 503 274 647 256 575 b 151 44 206 350 172 199 b 150 21 150 36 150 28 b 286 -79 150 -57 207 -74 l 290 -79 b 328 -43 311 -79 324 -67 b 338 39 332 -15 333 13 b 372 225 347 99 354 160 b 394 156 382 196 388 175 b 663 -119 464 -49 565 -119 b 943 154 808 -119 943 40 b 938 190 943 167 942 179 z "},"S":{"ha":861,"x_min":0,"x_max":0,"o":"m 883 949 b 829 1024 871 976 853 1001 b 775 1061 813 1039 794 1051 b 718 1085 757 1071 738 1078 b 672 1093 703 1090 688 1093 b 538 1044 624 1093 579 1068 l 525 1038 b 211 786 424 982 307 892 b 35 497 129 696 63 596 b 26 440 29 478 26 460 b 82 290 26 388 49 336 b 297 138 138 218 224 161 b 371 115 321 129 346 122 b 444 97 394 108 419 103 b 475 92 454 96 465 93 b 529 79 494 88 513 83 b 533 78 532 78 533 78 b 526 60 533 74 531 68 b 500 28 521 50 511 39 b 351 -33 465 -6 411 -33 b 294 -24 333 -33 314 -31 b 242 8 275 -18 258 -4 b 225 22 235 14 229 18 l 224 22 b 194 38 215 29 207 38 b 172 29 189 38 181 35 b 153 -10 157 18 153 6 b 160 -32 154 -18 157 -26 b 168 -44 163 -37 165 -42 b 171 -50 169 -47 171 -49 b 267 -142 196 -92 229 -121 b 382 -186 303 -162 342 -175 b 446 -194 404 -192 425 -194 b 496 -192 464 -194 479 -193 b 515 -190 504 -190 511 -190 b 569 -178 535 -189 553 -185 b 617 -154 586 -172 601 -164 b 657 -121 632 -146 646 -133 b 690 -83 669 -110 681 -96 b 726 14 714 -50 726 -17 b 725 29 726 19 725 24 b 668 132 721 65 701 99 b 546 208 635 163 592 189 b 383 258 493 232 435 249 b 218 328 301 272 244 293 b 201 382 207 342 201 360 b 229 488 201 410 210 444 b 426 735 279 599 344 658 b 457 763 436 743 446 751 b 610 875 489 792 550 838 b 725 929 653 900 694 922 l 725 921 b 724 900 725 914 725 907 l 724 899 b 590 622 704 797 647 710 b 561 579 583 613 576 603 b 547 533 551 564 547 549 l 547 528 b 564 485 549 513 556 499 b 589 458 571 474 579 465 b 617 444 597 453 607 449 b 653 433 632 438 642 433 b 663 435 657 433 660 435 b 703 463 679 438 689 446 b 844 675 747 514 804 594 b 901 856 876 738 900 803 b 883 949 901 889 896 921 z "},"T":{"ha":643,"x_min":0,"x_max":0,"o":"m 504 1082 b 203 1029 400 1083 301 1057 b 64 997 157 1017 113 994 b 26 989 50 997 33 1004 b 89 851 22 979 21 856 b 244 868 131 850 244 868 b 18 -33 174 628 36 211 b 158 -158 11 -129 74 -143 b 204 -122 190 -164 200 -154 b 367 593 231 111 308 363 b 410 754 381 646 394 700 b 456 910 419 786 433 899 b 731 914 567 932 646 915 b 504 1082 775 910 785 1078 z "},"U":{"ha":703,"x_min":0,"x_max":0,"o":"m 700 886 b 579 989 694 996 583 982 b 568 972 568 983 568 978 b 364 114 550 738 440 344 b 314 31 353 81 336 54 b 288 14 304 19 296 14 b 263 35 279 14 271 21 b 204 339 221 108 204 219 b 263 763 204 493 232 660 b 325 965 283 831 293 901 b 329 986 328 972 329 979 b 318 1019 329 997 325 1008 b 218 1094 293 1057 258 1079 b 204 1097 213 1096 208 1097 b 172 1071 190 1097 179 1089 b 108 911 150 1018 124 967 b 42 588 79 806 54 697 b 29 393 35 522 29 458 b 42 224 29 336 33 281 b 317 -81 65 72 151 -46 b 346 -83 326 -82 336 -83 b 700 863 604 -83 700 643 z "},"V":{"ha":563,"x_min":0,"x_max":0,"o":"m 571 1090 b 296 338 429 899 379 574 b 222 751 260 475 249 613 b 207 824 218 775 214 800 b 53 924 185 896 106 924 l 49 924 b 24 904 32 924 24 917 b 25 894 24 901 24 897 b 69 628 47 807 53 715 b 89 497 76 585 83 542 b 161 132 104 374 128 253 b 321 -8 185 49 242 8 b 339 -11 328 -10 333 -11 b 388 33 364 -11 379 4 b 657 1074 442 265 657 913 b 590 1099 657 1074 618 1099 b 571 1090 582 1099 575 1096 z "},"W":{"ha":881,"x_min":0,"x_max":0,"o":"m 949 1094 b 928 1108 942 1104 935 1108 b 792 904 878 1108 804 935 b 671 596 749 801 715 696 b 658 579 668 589 671 579 l 656 579 b 642 654 651 604 646 629 b 569 803 631 710 614 763 b 486 847 536 833 508 847 b 306 506 419 847 389 721 b 272 424 297 481 286 457 b 261 543 268 471 265 507 b 226 771 250 619 246 696 b 56 903 204 854 124 893 l 47 903 b 28 886 35 903 28 897 b 33 868 28 881 29 875 b 61 788 47 842 57 815 b 103 375 85 650 93 513 b 138 90 110 279 115 185 b 274 -26 154 14 211 -14 b 290 -28 281 -28 286 -28 b 322 8 310 -28 317 -18 b 483 579 363 197 421 396 b 497 499 496 553 496 525 b 536 210 500 401 511 304 b 697 96 556 138 644 96 l 700 96 b 736 131 726 97 735 104 b 961 956 746 369 886 711 b 971 1017 967 976 971 996 b 949 1094 971 1043 964 1069 z "},"X":{"ha":686,"x_min":0,"x_max":0,"o":"m 649 890 b 669 956 663 915 669 938 b 607 1047 669 994 643 1021 b 569 1067 596 1056 582 1061 b 542 1075 557 1071 549 1075 b 517 1046 532 1075 526 1067 b 394 836 481 974 440 904 b 376 817 390 829 389 818 b 361 840 368 822 365 832 b 206 1099 333 903 303 1099 b 139 1072 186 1099 164 1090 b 271 661 139 1057 263 692 b 274 644 272 656 274 650 b 257 594 274 626 265 611 b 33 163 181 458 82 308 b 28 133 29 153 28 143 b 53 75 28 113 38 93 b 106 36 67 58 85 46 b 139 26 119 29 129 26 b 175 61 154 26 164 38 b 358 388 201 121 331 369 b 378 365 371 383 374 374 b 596 47 388 336 479 47 b 638 60 608 47 624 51 b 640 68 640 63 640 65 b 635 86 640 75 636 81 b 565 253 611 142 588 197 b 460 529 544 308 471 471 b 457 549 458 536 457 542 b 468 585 457 561 461 572 b 649 890 531 685 592 788 z "},"Y":{"ha":511,"x_min":0,"x_max":0,"o":"m 614 1019 b 525 1107 594 1058 564 1088 b 513 1111 521 1110 517 1111 b 493 1097 506 1111 499 1107 b 365 854 451 1024 404 931 b 289 706 340 804 314 756 b 97 1075 228 833 231 996 b 69 1085 89 1081 79 1083 b 61 1086 67 1086 64 1086 b 49 1071 53 1086 49 1081 l 49 1065 b 61 1001 51 1044 57 1022 b 108 813 72 949 97 865 b 185 489 121 758 185 549 b 183 476 185 483 185 479 b 24 88 128 350 54 221 b 22 76 22 83 22 79 b 29 44 22 65 25 56 b 126 -43 49 0 82 -26 b 153 -49 138 -47 146 -49 b 178 -19 165 -49 171 -40 b 314 314 217 94 267 203 b 410 513 343 382 379 446 b 486 671 433 567 463 617 b 536 778 503 707 518 743 b 618 994 557 818 618 933 b 614 1019 618 1004 617 1013 z "},"Z":{"ha":757,"x_min":0,"x_max":0,"o":"m 569 664 b 918 781 656 694 871 728 b 929 801 925 789 929 796 b 904 819 929 811 921 818 b 814 826 875 824 844 826 b 763 822 797 826 778 822 b 731 843 744 822 731 826 b 732 853 731 846 731 849 b 735 885 735 864 735 874 b 557 1092 735 981 654 1090 b 389 1060 499 1092 444 1071 b 250 1024 342 1051 297 1035 b 222 990 231 1018 224 1010 l 222 983 b 332 872 222 919 272 872 b 365 876 343 872 354 874 l 515 918 b 539 924 524 919 531 924 b 554 918 544 924 550 922 l 554 917 b 464 808 554 897 479 825 b 408 776 450 790 431 781 b 160 725 325 763 244 732 b 136 704 143 724 136 715 b 138 694 136 701 136 697 b 258 589 160 606 218 589 b 299 596 282 589 299 594 b 7 -7 186 376 7 113 b 17 -46 7 -22 10 -36 b 40 -74 24 -56 32 -65 b 74 -96 54 -87 64 -96 b 104 -75 82 -96 92 -89 b 294 33 157 -19 224 11 b 481 68 364 56 424 68 b 667 18 540 68 600 53 b 686 11 672 14 679 11 b 701 18 690 11 696 14 b 710 35 707 24 710 29 b 704 53 710 40 707 47 b 665 114 694 75 683 97 b 433 207 589 188 515 207 b 306 197 393 207 351 203 b 308 214 307 206 307 210 b 569 664 335 278 525 614 z "},"[":{"ha":600,"x_min":0,"x_max":0,"o":"m 565 1065 b 547 1086 561 1074 554 1081 b 449 1122 519 1110 486 1118 b 349 1099 417 1121 382 1111 b 126 1015 274 1072 200 1043 b 106 996 113 1010 106 1004 b 114 975 106 990 108 983 b 128 960 118 969 122 964 b 160 889 153 940 160 915 b 158 868 160 882 158 875 b 89 319 144 683 118 501 b 47 81 75 239 60 160 b 40 8 43 56 40 31 b 146 -132 40 -74 72 -132 b 236 -111 171 -132 201 -125 b 357 -86 275 -96 315 -86 b 436 -100 383 -86 410 -90 b 493 -107 454 -106 474 -107 b 517 -94 503 -107 513 -104 b 519 -83 518 -90 519 -87 b 510 -64 519 -76 515 -69 b 460 -29 496 -49 478 -37 b 271 11 399 -4 336 11 b 236 10 260 11 249 11 b 222 8 231 8 226 8 b 204 22 210 8 204 13 b 208 40 204 26 206 32 b 229 140 218 74 224 107 b 257 297 239 193 247 244 b 294 515 271 369 283 442 b 314 826 308 618 308 722 l 314 840 b 300 915 314 865 311 890 b 294 935 296 925 294 931 b 318 951 294 943 300 946 b 542 1015 392 972 461 1014 b 572 1042 561 1015 572 1025 b 565 1065 572 1049 569 1057 z "},"\\":{"ha":386,"x_min":0,"x_max":0,"o":"m 332 -131 b 403 25 426 -108 422 -75 b 111 1088 368 192 126 1010 b 78 1110 107 1111 100 1115 l 76 1110 b -24 961 11 1097 -37 1026 l -22 951 b 276 -103 33 763 219 85 b 317 -135 285 -129 296 -139 b 332 -131 321 -135 326 -132 z "},"]":{"ha":600,"x_min":0,"x_max":0,"o":"m 364 1101 b 244 1075 325 1085 285 1075 b 164 1089 218 1075 192 1079 b 119 1096 150 1094 135 1096 l 107 1096 b 83 1083 97 1096 88 1093 b 81 1074 82 1079 81 1076 b 90 1054 81 1067 85 1060 b 142 1019 106 1039 122 1028 b 325 978 200 994 261 978 b 365 981 338 978 351 979 l 376 981 b 396 967 390 981 396 978 b 393 950 396 963 396 957 b 371 850 383 917 376 883 b 343 693 363 797 353 744 b 307 475 331 621 318 547 b 288 164 292 371 292 267 l 288 150 b 300 75 288 124 290 99 b 307 54 304 65 307 58 b 283 39 307 46 300 44 b 60 -25 208 17 140 -24 b 29 -53 39 -25 29 -36 b 35 -75 29 -60 31 -67 b 54 -96 40 -83 47 -90 b 153 -132 82 -119 114 -128 b 253 -110 185 -131 219 -121 b 475 -25 326 -82 400 -53 b 496 -6 489 -19 496 -14 b 486 15 496 0 493 7 b 474 31 483 21 479 26 b 440 101 447 50 440 74 b 442 122 440 108 442 115 b 513 671 456 307 483 489 b 554 910 525 751 540 831 b 561 981 558 935 561 958 b 454 1122 561 1063 529 1122 b 364 1101 429 1122 399 1115 z "},"^":{"ha":397,"x_min":0,"x_max":0,"o":"m 372 918 b 321 1174 349 996 358 1114 b 200 1265 293 1219 261 1263 l 199 1265 b 86 1088 154 1265 111 1138 b 31 956 65 1044 44 1001 b 26 932 28 946 26 939 b 54 899 26 917 35 907 b 82 892 65 894 74 892 b 121 918 99 892 110 900 b 143 965 129 933 135 950 b 194 1074 160 1001 171 1040 b 332 886 228 1046 188 947 b 353 878 339 882 346 878 b 365 883 357 878 361 879 b 374 904 372 889 374 896 b 372 918 374 908 374 913 z "},"_":{"ha":572,"x_min":0,"x_max":0,"o":"m 522 61 b 496 76 515 71 506 76 b 486 75 493 76 489 76 b 29 51 435 60 36 58 b 24 38 25 47 24 43 b 26 24 24 33 25 29 b 249 -65 51 -47 146 -65 b 508 -47 342 -65 443 -50 b 550 -1 538 -44 550 -29 l 550 3 b 522 61 549 26 535 43 z "},"`":{"ha":275,"x_min":0,"x_max":0,"o":"m 244 972 b 146 1161 222 1046 215 1118 b 65 1189 121 1178 93 1182 b 54 1190 61 1190 58 1190 b 33 1179 46 1190 39 1188 b 32 1174 32 1178 32 1176 b 129 958 32 1139 115 981 b 190 917 144 931 167 917 l 199 917 b 247 954 231 917 247 931 b 244 972 247 960 246 965 z "},"a":{"ha":668,"x_min":0,"x_max":0,"o":"m 636 529 b 453 643 597 568 508 614 b 322 685 410 667 367 685 b 229 654 292 685 261 676 b 158 593 204 636 179 617 b 22 219 68 485 25 360 l 22 215 b 133 19 22 129 58 63 b 199 0 154 8 176 0 b 246 14 214 0 231 4 b 411 201 303 49 376 144 l 411 119 b 468 -17 415 68 426 19 b 511 -35 481 -28 496 -35 b 529 -32 517 -35 524 -35 b 556 19 551 -24 554 0 b 656 465 563 172 622 319 b 657 482 657 471 657 476 b 636 529 657 500 651 514 z m 450 501 b 181 163 411 457 204 167 l 181 171 b 193 244 181 197 186 222 b 336 503 219 342 265 431 b 417 557 361 528 389 557 b 453 538 428 557 440 551 b 460 522 458 532 460 526 b 450 501 460 514 456 508 z "},"b":{"ha":760,"x_min":0,"x_max":0,"o":"m 735 582 b 628 736 724 653 693 704 b 578 749 611 744 593 749 b 271 333 432 749 322 446 l 271 343 b 275 369 271 353 272 361 b 414 974 318 531 414 828 l 414 976 b 272 1118 413 1054 350 1118 l 265 1118 b 232 1092 243 1117 232 1110 b 233 1079 232 1088 232 1083 b 235 1061 235 1074 235 1068 b 176 765 235 988 190 824 b 54 310 140 613 97 461 b 25 138 38 253 25 197 l 25 115 b 131 3 29 60 81 21 b 163 -3 142 -1 151 -3 b 214 25 183 -3 200 6 b 574 654 326 186 433 568 b 582 632 581 647 582 640 l 582 618 b 583 592 583 611 583 601 b 432 100 583 465 519 165 b 390 83 418 89 404 83 b 357 93 379 83 368 86 b 328 106 347 99 339 104 l 322 106 b 307 90 311 106 307 100 l 307 85 b 332 47 310 68 321 58 b 474 0 372 13 422 0 l 489 0 b 740 492 676 6 740 303 b 735 582 740 526 739 557 z "},"c":{"ha":525,"x_min":0,"x_max":0,"o":"m 503 272 b 496 283 503 276 500 281 b 481 288 490 288 486 288 b 468 282 476 286 472 285 b 463 279 465 281 464 279 b 457 275 460 278 458 276 b 264 153 443 263 346 192 b 193 128 238 140 213 131 l 185 128 b 156 140 171 128 160 131 b 153 160 154 146 153 151 b 228 415 154 256 181 342 b 436 594 278 490 349 551 b 467 619 453 601 463 610 b 469 632 468 624 469 628 b 460 657 469 639 467 647 b 385 724 444 682 417 710 b 338 735 369 731 354 735 b 299 726 325 735 311 732 b 104 551 222 697 154 631 b 22 289 53 469 22 374 l 22 283 b 50 147 24 235 32 189 b 133 33 68 104 94 67 b 169 13 144 24 157 17 b 210 6 182 8 196 6 b 304 32 240 6 272 15 b 428 138 349 57 393 96 b 501 257 463 178 489 219 b 504 265 503 260 504 263 b 503 272 504 268 503 269 z "},"d":{"ha":649,"x_min":0,"x_max":0,"o":"m 613 1119 b 596 1122 606 1122 600 1122 b 565 1093 581 1122 572 1113 l 474 743 b 369 778 450 767 410 778 b 268 750 332 778 294 768 b 201 690 242 733 221 714 b 35 311 111 578 64 449 b 25 232 28 286 25 260 b 31 175 25 214 26 194 b 176 8 47 92 101 38 b 221 0 193 3 207 0 b 396 185 307 0 353 117 b 408 113 399 161 403 136 b 493 22 417 63 447 29 b 503 21 497 21 500 21 b 542 56 525 21 539 32 l 551 143 b 701 978 650 724 686 892 b 703 994 703 983 703 989 b 613 1119 703 1047 661 1106 z m 443 628 b 196 143 408 461 306 274 b 190 165 192 151 190 158 b 193 185 190 172 192 179 b 275 460 210 279 235 372 b 407 651 300 511 356 622 b 418 654 410 653 414 654 b 444 632 432 654 444 644 z "},"e":{"ha":585,"x_min":0,"x_max":0,"o":"m 528 244 b 253 81 483 214 340 81 b 185 164 217 81 190 103 b 181 225 182 189 181 208 b 207 364 181 261 188 293 b 301 357 242 358 274 357 b 571 563 494 357 571 461 b 401 751 571 658 504 751 b 256 694 358 751 308 735 b 122 547 201 654 154 608 b 50 292 79 464 50 379 b 83 133 50 240 60 188 b 246 -24 115 58 164 0 b 300 -32 264 -29 282 -32 b 364 -14 322 -32 343 -26 b 551 225 472 31 539 169 b 554 239 553 229 554 235 b 550 249 554 243 553 246 b 543 253 547 251 544 253 b 528 244 538 253 532 247 z m 438 601 b 453 606 442 603 447 604 b 469 608 458 607 464 608 b 497 586 488 608 497 600 b 493 569 497 582 496 576 b 325 467 456 515 392 472 b 303 464 318 467 310 464 b 283 474 294 464 288 467 b 282 479 282 475 282 476 b 438 601 282 513 404 593 z "},"f":{"ha":486,"x_min":0,"x_max":0,"o":"m 586 728 b 315 615 465 672 407 632 b 396 974 315 615 386 933 b 399 997 397 982 399 990 b 296 1107 399 1054 351 1092 l 292 1107 b 188 829 247 1107 199 865 b 61 313 138 657 92 476 b 25 -6 40 207 25 101 b 26 -54 25 -22 25 -37 b 172 -311 31 -162 67 -256 b 246 -331 199 -325 222 -331 b 458 86 378 -331 458 -122 b 303 471 458 247 410 407 b 610 672 388 504 504 579 b 622 697 617 678 621 689 b 624 706 622 700 624 703 b 599 731 624 719 613 731 b 586 728 594 731 590 731 z m 213 -243 b 178 -121 186 -240 178 -189 b 218 229 178 7 210 196 b 250 382 229 281 239 332 b 261 396 253 392 257 396 b 317 53 285 396 317 219 b 213 -243 317 -96 292 -239 z "},"g":{"ha":640,"x_min":0,"x_max":0,"o":"m 313 750 b 168 638 256 725 207 688 b 36 293 103 551 36 410 b 38 267 36 283 36 275 b 172 103 44 189 100 124 b 189 100 178 101 183 100 b 397 304 267 100 342 254 b 399 294 397 301 399 297 b 392 261 399 282 394 271 b 229 -318 353 111 306 -199 b 158 -360 214 -344 188 -360 b 139 -357 151 -360 146 -358 b 68 -126 71 -344 81 -189 b 39 -160 47 -133 43 -147 b 24 -261 28 -197 24 -232 b 243 -474 24 -417 149 -474 b 342 -442 288 -474 325 -461 b 449 -215 413 -362 422 -314 b 608 496 503 -3 590 283 l 608 506 b 354 758 608 614 463 758 b 313 750 339 758 325 756 z m 469 575 b 167 264 460 549 207 276 b 378 596 193 372 264 508 b 435 619 396 610 413 619 l 442 619 b 474 594 463 618 474 610 b 469 575 474 589 472 582 z "},"h":{"ha":619,"x_min":0,"x_max":0,"o":"m 538 588 b 474 607 514 600 493 607 b 401 567 447 607 424 594 b 254 319 328 475 311 410 l 254 324 b 372 956 254 376 365 879 l 372 967 b 268 1090 372 1028 328 1081 b 257 1092 264 1090 260 1092 b 215 1051 232 1092 218 1078 b 96 464 204 899 129 618 b 29 143 74 357 54 250 b 26 118 28 133 26 125 b 58 58 26 93 36 75 b 93 35 69 50 81 42 b 149 15 114 22 132 15 b 218 67 175 15 197 32 b 229 89 222 75 226 82 b 279 201 246 126 261 164 b 436 467 299 243 396 463 l 361 129 b 357 96 358 117 357 106 b 449 -7 357 40 390 4 b 469 -8 456 -8 463 -8 b 508 33 493 -8 504 3 b 536 169 515 81 525 125 b 590 431 558 256 571 344 b 596 479 594 447 594 463 l 596 489 b 538 588 596 532 578 564 z "},"i":{"ha":289,"x_min":0,"x_max":0,"o":"m 160 732 b 133 736 149 735 140 738 b 108 694 115 735 107 721 b 22 203 111 636 32 314 b 18 104 19 174 15 138 b 56 13 19 68 29 35 b 131 -26 90 -17 114 -28 b 182 81 164 -24 174 24 b 267 614 211 258 249 436 b 267 632 267 621 267 626 b 160 732 263 688 210 714 z m 282 914 b 174 993 269 949 208 993 l 168 993 b 142 964 151 992 143 983 b 139 847 139 921 139 879 b 206 758 143 781 158 763 l 214 758 b 247 779 228 760 239 764 b 286 878 264 811 276 843 b 286 894 286 883 288 889 b 282 914 286 901 285 908 z "},"j":{"ha":293,"x_min":0,"x_max":0,"o":"m 139 717 b 117 694 125 717 117 710 b -26 -10 115 604 3 85 b -92 -150 -42 -60 -58 -108 b -143 -179 -106 -167 -121 -178 l -147 -179 b -267 22 -226 -179 -258 -42 b -274 29 -267 24 -269 26 b -308 -19 -299 24 -306 3 b -310 -36 -308 -24 -310 -29 b -292 -131 -310 -65 -301 -108 b -69 -318 -244 -242 -156 -318 b 86 -204 -11 -318 44 -285 b 265 572 186 -12 247 356 l 265 582 b 143 717 265 647 211 710 z m 306 904 b 201 990 294 939 236 988 l 197 990 b 168 964 179 990 171 983 b 157 847 163 921 160 879 b 218 754 157 781 171 761 l 225 754 b 260 772 239 754 251 758 b 306 868 279 803 296 833 b 308 886 307 875 308 881 b 306 904 308 893 307 899 z "},"k":{"ha":660,"x_min":0,"x_max":0,"o":"m 636 226 b 606 263 631 250 619 263 b 572 249 596 263 585 258 b 433 126 522 213 481 167 b 375 101 413 108 393 101 b 319 164 343 101 319 129 b 335 211 319 179 325 196 b 546 674 375 274 546 525 b 475 776 546 724 526 761 b 456 779 468 778 463 779 b 275 536 389 779 346 671 b 303 774 279 568 296 692 b 318 928 307 821 318 876 b 199 1078 318 1000 296 1063 l 190 1078 b 163 1051 171 1078 163 1071 l 163 1047 b 1 90 117 671 60 418 b 0 74 0 85 0 79 b 24 19 0 53 7 35 b 108 -26 47 -3 75 -21 b 129 -29 117 -28 124 -29 b 164 13 151 -29 160 -17 b 189 125 168 32 189 125 b 433 -35 235 90 331 -35 b 567 51 478 -35 522 -11 b 638 210 592 85 638 160 b 636 226 638 215 638 221 z m 429 686 b 288 364 429 614 321 396 b 429 689 294 407 396 656 z "},"l":{"ha":258,"x_min":0,"x_max":0,"o":"m 318 978 b 194 1076 318 1019 239 1076 l 188 1076 b 167 1054 174 1074 169 1065 b 44 236 115 879 44 469 b 53 126 44 192 47 156 b 94 38 60 93 75 64 b 163 11 107 24 140 11 b 178 14 168 11 174 13 b 203 67 200 22 203 44 l 203 93 b 200 171 201 118 200 144 b 318 976 200 433 271 725 z "},"m":{"ha":881,"x_min":0,"x_max":0,"o":"m 811 668 b 750 692 785 681 765 692 b 703 647 733 692 719 681 b 600 443 668 579 638 510 b 518 274 569 388 544 331 l 518 283 b 557 539 518 333 550 492 b 558 553 557 543 558 549 b 531 608 558 575 549 593 b 463 643 511 625 488 636 b 442 647 454 646 447 647 b 386 596 418 647 407 631 b 197 303 386 596 231 322 b 235 513 214 369 225 444 b 236 528 235 518 236 522 b 126 640 236 589 188 638 l 121 640 b 79 601 94 640 81 629 b -3 131 72 467 24 267 b -6 107 -4 122 -6 115 b 33 38 -6 79 8 57 b 93 11 51 25 72 17 b 122 6 104 7 114 6 b 163 36 138 6 149 14 b 228 150 185 74 207 111 b 367 389 243 182 344 372 b 368 376 368 388 368 383 b 333 153 368 332 338 183 b 332 135 333 147 332 140 b 419 29 332 81 361 44 b 442 26 428 26 436 26 b 468 35 453 26 461 29 b 664 392 493 56 631 321 b 668 381 667 388 668 383 b 665 365 668 375 667 371 b 638 196 653 310 644 254 b 636 178 638 190 636 183 b 676 97 636 143 647 115 b 738 78 696 86 717 78 b 793 119 763 78 783 90 b 867 564 822 215 854 460 b 869 594 868 575 869 585 b 811 668 869 631 854 647 z "},"n":{"ha":619,"x_min":0,"x_max":0,"o":"m 500 654 b 475 660 490 658 482 660 b 446 632 463 660 454 651 b 233 321 421 576 254 321 b 274 558 233 324 272 550 b 276 585 275 568 276 576 b 144 678 276 651 219 681 b 111 651 125 678 114 672 b 14 151 100 564 36 229 b 8 117 10 139 8 128 b 110 31 8 65 49 39 b 133 26 117 28 125 26 b 156 36 142 26 150 29 b 404 424 249 169 315 296 b 414 421 407 422 410 422 b 406 365 411 403 408 383 b 364 143 392 292 379 217 b 361 111 363 132 361 121 b 372 56 361 92 364 74 b 457 1 383 28 414 11 l 464 1 b 521 51 494 4 507 25 b 558 158 542 90 551 124 b 618 543 582 283 593 418 b 619 551 618 546 619 549 b 500 654 619 599 551 646 z "},"o":{"ha":436,"x_min":0,"x_max":0,"o":"m 258 667 b 224 672 246 671 235 672 b 22 285 89 672 22 394 l 22 282 b 121 60 25 194 44 117 b 207 31 149 40 178 31 b 299 76 243 31 276 46 b 428 432 364 172 428 310 b 258 667 428 535 383 624 z m 185 147 b 163 226 174 151 163 190 b 189 285 163 256 169 283 b 281 308 219 289 249 299 b 185 147 258 247 225 179 z m 288 432 b 197 372 261 413 235 390 b 276 608 197 415 219 563 b 324 513 307 590 324 551 b 288 432 324 481 311 449 z "},"p":{"ha":600,"x_min":0,"x_max":0,"o":"m 486 669 b 440 678 469 675 454 678 b 310 557 375 678 342 619 l 310 603 b 199 713 307 663 256 713 l 194 713 b 167 692 181 711 167 707 l 167 674 b 28 -85 167 518 49 103 b 22 -140 25 -103 22 -122 l 22 -150 b 118 -253 24 -199 74 -242 b 142 -257 128 -256 135 -257 b 178 -214 164 -257 175 -243 b 401 558 186 -56 281 456 b 410 513 407 554 410 536 b 372 222 410 428 379 257 b 354 176 368 206 363 190 b 331 156 347 163 339 156 b 306 169 324 156 315 161 b 275 188 297 179 289 186 l 269 188 b 256 174 260 188 256 182 b 314 89 256 151 289 104 b 404 60 350 68 379 60 b 550 267 494 60 525 174 b 582 481 568 336 582 413 b 486 669 582 569 558 644 z "},"q":{"ha":514,"x_min":0,"x_max":0,"o":"m 481 82 b 447 100 457 82 447 86 b 450 118 447 106 449 111 b 511 494 474 199 511 386 b 510 529 511 507 511 519 b 421 631 506 574 461 625 b 363 658 397 633 381 643 b 288 689 338 681 313 689 b 40 376 169 689 67 472 b 26 281 32 344 26 313 b 40 192 26 251 31 222 b 133 89 57 142 88 108 b 168 82 146 83 157 82 b 289 193 224 82 256 149 l 289 192 b 229 13 289 179 288 32 b 138 -24 199 1 168 -11 b 113 -43 121 -31 113 -35 b 126 -67 113 -49 118 -57 b 211 -110 149 -93 178 -104 b 249 -154 249 -117 249 -117 l 249 -157 b 240 -264 249 -189 240 -228 b 333 -356 240 -312 256 -353 l 336 -356 b 451 -17 457 -356 349 -57 l 493 0 b 525 25 507 6 517 14 b 532 47 531 33 532 40 b 497 82 532 65 519 81 z m 168 246 b 160 261 163 247 160 251 b 296 526 160 315 269 499 b 371 568 315 547 339 561 l 371 564 b 168 246 371 494 199 251 z "},"r":{"ha":511,"x_min":0,"x_max":0,"o":"m 488 374 b 464 544 474 429 474 488 b 339 649 453 599 394 649 l 335 649 b 231 457 294 647 240 489 l 231 460 b 239 567 231 489 239 528 b 110 686 239 628 218 686 b 76 654 86 686 76 676 l 76 650 b 21 117 71 525 36 324 b 146 18 21 65 96 18 l 156 18 b 189 56 182 22 186 28 b 328 443 196 124 289 439 b 453 340 349 390 390 340 b 489 367 475 340 489 349 b 488 374 489 368 488 371 z "},"s":{"ha":408,"x_min":0,"x_max":0,"o":"m 442 513 b 432 515 438 515 435 515 b 408 499 421 515 415 506 b 278 315 367 454 321 371 b 264 307 274 310 269 307 b 254 313 261 307 257 308 b 188 390 231 338 207 361 b 169 464 175 410 169 435 b 232 615 169 521 193 588 b 200 515 232 615 200 535 b 201 511 200 513 200 511 b 257 485 219 494 240 485 b 290 503 269 485 282 490 b 368 721 311 535 368 682 l 368 725 b 308 800 368 779 333 800 b 282 788 296 800 286 794 b 264 732 275 774 264 732 b 203 761 244 753 224 761 b 43 504 118 761 43 603 l 43 485 b 78 385 43 446 54 414 b 178 231 118 338 178 293 b 64 64 178 171 121 88 b 44 46 51 58 44 53 b 165 0 44 25 103 0 b 310 133 235 0 310 32 l 310 135 b 321 192 310 153 321 192 b 457 474 354 289 454 406 l 457 482 b 442 513 457 496 454 506 z "},"t":{"ha":382,"x_min":0,"x_max":0,"o":"m 563 868 b 428 922 522 871 428 878 l 428 924 b 429 940 428 929 429 935 b 294 1086 429 1042 343 1086 b 263 1067 275 1086 263 1079 l 263 1056 b 179 864 263 997 239 876 b 32 831 131 853 82 835 b 15 817 21 829 15 825 b 19 804 15 813 17 808 b 151 731 46 757 92 731 l 158 731 b 176 713 169 731 176 724 b 175 704 176 710 176 707 b 169 685 174 697 172 690 b 82 119 144 606 82 242 l 82 100 b 193 -7 88 46 143 7 b 219 -11 204 -10 213 -11 b 249 29 238 -11 243 0 b 386 753 285 263 299 531 b 422 781 394 771 404 778 b 553 797 465 788 508 797 l 578 797 b 604 811 589 797 599 800 b 607 824 606 815 607 819 b 567 868 607 844 592 868 z "},"u":{"ha":597,"x_min":0,"x_max":0,"o":"m 469 625 b 250 115 442 497 335 196 b 231 101 244 110 239 101 b 225 103 229 101 226 103 b 208 157 214 107 208 126 b 296 588 208 274 282 542 b 301 611 299 594 301 603 b 296 631 301 618 300 624 b 194 721 278 663 235 715 b 185 722 192 722 188 722 b 157 696 169 722 161 714 b 85 447 140 610 106 531 b 53 239 68 376 53 304 b 126 60 53 167 71 103 b 210 28 156 38 183 28 b 363 110 260 28 308 61 b 354 46 363 110 354 68 b 358 31 354 38 356 31 b 390 29 369 29 381 29 b 513 182 467 29 494 69 b 583 557 540 353 578 475 l 583 558 b 503 643 583 617 536 643 b 469 625 486 643 472 638 z "},"v":{"ha":469,"x_min":0,"x_max":0,"o":"m 482 750 b 453 779 482 769 468 779 b 418 747 438 779 422 769 b 250 344 404 619 301 425 b 240 367 240 354 242 361 b 194 594 231 444 218 519 b 60 689 178 646 103 689 l 58 689 b 25 669 35 688 25 683 b 28 653 25 664 26 660 b 61 464 44 590 51 526 b 71 336 67 422 71 379 b 69 283 71 318 69 301 b 74 121 69 229 72 175 b 86 75 75 104 74 86 b 175 15 111 50 138 22 b 213 10 188 14 200 10 b 253 29 228 10 242 14 b 483 700 413 239 483 443 b 482 750 483 717 482 733 z "},"w":{"ha":706,"x_min":0,"x_max":0,"o":"m 756 776 b 642 615 732 776 657 639 b 561 501 617 578 599 533 b 556 519 557 508 556 514 b 557 533 556 525 557 529 b 558 578 558 549 558 564 b 493 725 558 668 533 725 b 385 624 464 725 426 694 b 228 356 332 535 279 446 b 63 629 213 425 240 629 l 58 629 b 28 607 38 628 28 621 b 32 589 28 601 29 596 b 65 243 60 528 65 342 l 65 104 b 89 49 65 82 72 63 b 186 -1 117 25 147 6 b 197 -3 190 -3 194 -3 b 239 21 214 -3 228 6 b 290 118 258 51 276 83 b 368 299 315 179 342 239 b 386 318 372 307 374 317 b 393 301 392 314 393 307 l 393 292 b 479 119 394 208 394 160 b 519 108 493 113 507 108 b 574 160 544 108 564 125 b 785 653 608 226 733 486 b 792 708 788 664 792 686 b 757 776 792 740 785 774 z "},"x":{"ha":428,"x_min":0,"x_max":0,"o":"m 403 839 b 367 847 388 844 376 847 b 325 799 346 847 336 832 b 247 618 303 735 279 678 b 215 672 228 636 225 656 b 78 756 185 725 138 753 l 74 756 b 51 742 60 756 51 750 b 60 724 51 736 54 731 b 136 433 94 678 136 535 b 119 349 136 399 131 368 b -22 100 71 267 26 182 b -36 61 -32 83 -36 72 b -7 14 -36 46 -25 33 b 22 -8 1 6 13 -1 b 72 -28 42 -21 58 -28 b 129 18 94 -28 113 -12 b 218 183 158 72 188 128 b 231 197 222 192 226 197 b 243 185 233 197 238 193 b 346 35 285 124 308 75 l 350 35 b 417 82 365 35 417 40 b 411 108 417 89 415 99 b 394 154 408 125 401 140 b 333 285 374 197 353 242 b 322 338 326 301 322 318 b 475 708 322 451 438 611 b 483 750 481 724 483 738 b 403 839 483 790 457 819 z "},"y":{"ha":571,"x_min":0,"x_max":0,"o":"m 419 739 b 254 418 418 738 322 418 b 218 460 240 418 228 431 b 215 482 217 465 215 474 b 240 618 215 524 232 592 b 260 682 247 639 251 661 b 265 710 264 692 265 701 b 236 767 265 731 254 749 b 154 800 219 782 200 790 b 138 803 147 801 143 803 b 115 782 128 803 121 797 b 47 517 88 699 47 606 b 106 361 47 463 63 410 b 211 322 131 333 158 324 b 365 424 281 321 349 392 l 365 422 b 196 -150 365 361 268 -150 l 193 -150 b 165 -18 175 -146 165 -43 l 165 -11 b 142 15 165 7 154 15 b 96 -40 124 15 100 -3 b 94 -69 94 -50 94 -60 b 238 -244 94 -156 140 -244 l 251 -244 b 569 636 457 -226 561 525 l 569 639 b 457 769 569 682 522 775 b 419 739 443 768 431 760 z "},"z":{"ha":533,"x_min":0,"x_max":0,"o":"m 285 361 b 486 656 324 449 426 528 b 494 690 492 668 494 679 b 488 722 494 701 492 713 b 369 808 461 788 418 808 b 181 756 307 808 236 775 b 167 738 171 753 167 746 b 168 729 167 735 168 732 b 258 663 176 692 219 663 b 278 665 265 663 272 664 b 321 676 292 668 307 676 b 331 675 325 676 328 676 b 332 667 332 672 332 669 b 319 644 332 657 325 651 b 24 310 272 581 94 329 b 6 285 11 307 6 297 b 7 276 6 282 7 279 b 90 203 13 235 49 203 b 106 204 96 203 100 203 b 325 250 181 217 251 232 b 75 -104 238 157 89 17 l 75 -112 b 156 -196 75 -154 118 -196 b 179 -190 164 -196 172 -194 b 525 306 268 -110 525 169 b 419 382 525 351 496 382 b 285 361 385 382 340 375 z "},"{":{"ha":651,"x_min":0,"x_max":0,"o":"m 347 636 b 406 1010 361 731 360 938 b 483 1061 422 1038 446 1058 b 585 1069 517 1064 551 1069 b 619 1100 607 1071 619 1083 b 611 1125 619 1108 617 1117 b 546 1171 596 1147 575 1165 b 429 1185 504 1179 465 1185 b 235 1008 329 1185 257 1142 b 140 594 215 894 232 651 b 49 549 111 576 78 565 b 26 524 35 540 26 533 b 33 506 26 518 29 513 b 221 374 75 464 221 447 b 219 364 221 369 219 367 b 172 93 206 274 179 185 b 171 64 171 83 171 74 b 397 -172 171 -97 282 -172 b 563 -117 456 -172 515 -154 b 583 -86 572 -108 579 -97 b 588 -67 586 -79 588 -72 b 561 -17 588 -47 578 -29 b 538 -6 551 -8 544 -6 b 503 -19 529 -6 519 -10 b 392 -69 468 -42 432 -60 b 372 -72 385 -72 378 -72 b 332 -46 356 -72 343 -64 b 317 24 321 -28 317 -3 b 322 82 317 44 319 65 b 368 319 338 161 354 240 b 372 360 371 333 372 347 b 306 479 372 407 353 449 b 265 513 293 486 278 492 b 347 636 331 531 339 582 z "},"|":{"ha":251,"x_min":0,"x_max":0,"o":"m 151 -144 b 167 -146 157 -146 163 -146 b 197 -104 188 -144 196 -132 b 224 990 206 92 218 794 l 224 1001 b 89 1119 219 1067 156 1124 l 88 1119 b 61 1089 65 1118 60 1114 b 43 -12 65 1010 36 158 b 151 -144 49 -114 54 -147 z "},"}":{"ha":650,"x_min":0,"x_max":0,"o":"m 618 506 b 431 638 575 547 431 564 b 432 647 431 640 432 643 b 478 918 446 738 471 826 b 479 949 479 929 479 939 b 253 1183 479 1108 368 1183 b 88 1128 194 1183 135 1165 b 68 1097 78 1119 72 1108 b 64 1076 65 1090 64 1083 b 89 1028 64 1057 72 1040 b 114 1017 99 1021 106 1017 b 147 1031 122 1017 132 1021 b 260 1082 182 1053 219 1071 b 276 1085 265 1083 271 1085 b 318 1058 293 1085 307 1075 b 333 986 329 1040 333 1013 b 328 929 333 965 332 944 b 282 693 313 851 297 772 b 278 653 279 679 278 665 b 346 533 278 604 297 563 b 386 499 358 525 372 519 b 304 376 321 481 313 429 b 246 3 290 281 290 74 b 168 -50 228 -26 204 -47 b 65 -58 133 -53 100 -57 b 31 -89 43 -60 31 -72 b 39 -114 31 -97 33 -106 b 106 -158 56 -136 76 -153 b 224 -172 147 -167 188 -172 b 417 3 322 -172 393 -131 b 511 417 436 117 419 360 b 603 463 540 435 572 446 b 624 489 617 471 624 478 b 618 506 624 493 622 499 z "},"~":{"ha":754,"x_min":0,"x_max":0,"o":"m 11 493 l 29 456 b 199 522 64 399 111 518 b 500 390 286 526 389 410 b 740 606 613 372 732 569 b 700 646 749 642 700 646 l 633 560 b 297 658 543 475 410 626 b 11 493 185 692 11 493 z "},"":{"ha":279,"x_min":0,"x_max":0,"o":"m 150 617 b 133 619 144 618 139 619 b 99 582 114 621 103 610 b 6 -4 67 389 36 190 l 4 -15 b 124 -149 0 -81 57 -144 l 125 -149 b 156 -122 147 -150 154 -147 b 240 472 161 -43 228 301 b 150 617 247 574 247 607 z m 200 706 b 218 703 207 704 213 704 b 256 740 239 701 250 713 b 281 889 269 789 276 839 l 282 897 b 218 996 286 954 274 974 b 190 1003 208 1000 199 1003 b 135 963 167 1004 147 990 b 111 867 121 931 114 897 l 111 856 b 107 831 110 844 108 838 b 200 706 103 769 139 721 z "},"":{"ha":607,"x_min":0,"x_max":0,"o":"m 572 354 b 547 381 569 371 560 381 b 524 369 540 381 532 376 b 488 331 511 357 500 343 b 367 217 449 292 411 253 b 358 286 361 226 358 251 b 386 757 358 407 386 643 b 385 793 386 771 386 783 b 383 825 383 806 383 817 b 414 886 383 871 396 886 b 517 833 443 886 485 850 b 536 828 524 829 531 828 b 558 860 550 828 558 839 b 538 913 558 881 550 897 b 439 997 511 949 476 975 b 382 1063 411 1013 390 1029 b 335 1114 376 1086 361 1107 b 319 1117 329 1115 324 1117 b 303 1096 310 1117 306 1111 b 301 1069 301 1088 301 1078 l 301 1053 b 203 935 301 981 243 981 b 46 449 101 818 46 619 b 58 319 46 403 50 360 b 219 79 79 215 126 133 b 253 3 250 63 253 33 l 253 -18 b 257 -67 253 -35 253 -50 b 286 -94 261 -86 271 -94 b 299 -93 290 -94 294 -94 b 350 -36 335 -86 346 -74 l 350 -7 b 383 65 350 24 353 53 b 574 339 460 96 574 243 b 572 354 574 344 574 349 z m 251 172 b 204 328 217 190 204 251 b 278 739 204 475 250 676 b 279 690 279 733 279 715 b 251 172 279 557 263 200 z "},"":{"ha":754,"x_min":0,"x_max":0,"o":"m 722 -36 b 489 93 671 43 579 93 b 403 76 460 93 431 88 b 447 231 435 124 447 178 b 360 517 447 375 360 517 b 511 528 407 525 463 522 b 550 557 529 529 546 536 b 553 579 551 565 553 572 b 446 653 553 639 499 653 b 350 640 397 653 350 640 b 349 664 350 649 349 656 b 640 915 349 838 468 914 b 681 947 665 917 681 928 b 675 969 681 953 679 961 b 608 1026 663 999 639 1018 b 532 1038 583 1033 557 1038 b 419 1018 493 1038 456 1029 b 203 767 310 983 235 872 b 182 613 192 729 183 650 b 39 578 182 613 75 582 b 21 556 26 576 21 569 b 107 461 21 503 57 461 b 122 463 111 461 117 461 b 211 479 146 467 188 474 b 267 232 211 479 267 350 b 81 39 267 132 226 39 l 75 39 b 44 17 54 39 44 32 b 47 0 44 13 46 7 b 225 -108 67 -56 161 -108 l 232 -108 b 471 -74 313 -104 392 -86 b 558 -67 500 -68 529 -67 b 686 -81 601 -67 643 -71 b 707 -83 694 -82 701 -83 b 724 -75 714 -83 719 -82 b 729 -58 728 -69 729 -64 b 722 -36 729 -51 726 -43 z "},"":{"ha":769,"x_min":0,"x_max":0,"o":"m 610 404 b 631 504 624 435 631 469 b 610 606 631 540 624 575 b 724 761 649 663 700 739 b 732 783 731 767 732 775 b 693 851 732 810 710 842 b 664 863 682 858 672 863 b 631 840 651 863 640 856 b 528 707 596 788 554 747 b 382 754 486 736 436 754 b 240 710 329 754 281 738 b 139 840 214 749 174 789 b 106 863 129 856 118 863 b 75 851 96 863 86 858 b 38 783 60 842 38 810 b 46 761 38 775 39 767 b 157 611 69 739 118 667 b 133 504 142 579 133 543 b 156 400 133 467 142 432 b 46 250 118 344 69 272 b 38 228 39 244 38 236 b 75 158 38 201 60 168 b 106 147 86 151 96 147 b 139 169 118 147 129 154 b 239 300 174 221 213 261 b 382 256 279 272 329 256 b 528 303 436 256 488 274 b 631 169 554 264 596 222 b 664 147 640 154 651 147 b 693 158 674 147 683 151 b 732 228 710 168 732 201 b 724 250 732 236 731 244 b 610 404 700 272 649 349 z m 467 419 b 382 383 446 397 415 383 b 297 419 349 383 318 397 b 293 422 296 421 294 421 b 261 504 274 443 261 472 b 297 590 261 538 275 568 b 382 625 318 611 349 625 b 467 590 415 625 446 611 b 503 504 489 568 503 538 b 468 419 503 471 489 440 z "},"":{"ha":581,"x_min":0,"x_max":0,"o":"m 454 521 b 396 526 435 524 415 525 b 363 561 367 529 365 531 l 363 585 b 517 914 363 725 432 806 b 543 978 535 938 543 958 b 494 1044 543 1004 526 1026 b 465 1053 483 1050 475 1053 b 432 1029 453 1053 442 1046 b 290 835 400 975 332 894 b 275 824 285 828 281 824 b 261 833 271 824 265 826 b 168 968 233 881 199 924 b 96 1019 142 1006 117 1019 b 47 951 67 1019 47 992 b 58 897 47 935 51 917 b 192 699 93 803 192 700 b 199 644 196 686 199 665 b 193 561 199 610 194 572 b 165 513 190 526 185 513 b 131 519 156 513 144 515 b 100 525 119 524 108 525 b 54 479 68 525 54 504 b 100 407 54 453 69 422 b 186 379 122 397 186 403 l 186 378 b 175 174 183 310 182 242 b 164 46 171 131 164 89 b 171 -22 164 24 165 0 b 274 -104 185 -75 219 -104 l 281 -104 b 358 350 353 -100 351 289 b 436 431 367 418 368 419 b 497 442 457 433 478 436 b 521 468 514 447 521 457 b 508 494 521 476 517 486 b 454 521 493 510 475 519 z m 83 249 l 74 154 l 447 136 l 467 224 b 281 249 433 246 372 249 b 179 247 250 249 217 247 b 83 249 150 247 118 249 z "},"":{"ha":688,"x_min":0,"x_max":0,"o":""},"":{"ha":688,"x_min":0,"x_max":0,"o":""},"":{"ha":522,"x_min":0,"x_max":0,"o":"m 163 1163 b 57 1057 104 1163 57 1115 b 163 951 57 999 104 951 b 268 1057 221 951 268 999 b 163 1163 268 1115 221 1163 z m 383 1163 b 278 1057 325 1163 278 1115 b 383 951 278 999 325 951 b 489 1057 442 951 489 999 b 383 1163 489 1115 442 1163 z "},"":{"ha":1136,"x_min":0,"x_max":0,"o":""},"":{"ha":900,"x_min":0,"x_max":0,"o":""},"":{"ha":1311,"x_min":0,"x_max":0,"o":""},"":{"ha":688,"x_min":0,"x_max":0,"o":""},"":{"ha":1136,"x_min":0,"x_max":0,"o":""},"":{"ha":522,"x_min":0,"x_max":0,"o":"m 478 1038 b 442 1092 465 1056 454 1074 b 63 1132 411 1135 151 1113 l 56 1132 b 38 1131 50 1132 43 1132 b 18 1111 25 1128 18 1122 b 19 1101 18 1108 18 1106 b 35 1078 22 1092 28 1085 b 217 990 81 1019 143 993 l 322 990 b 324 992 322 992 322 992 l 454 992 b 486 1015 475 993 486 1001 b 478 1038 486 1022 483 1029 z "},"":{"ha":317,"x_min":0,"x_max":0,"o":"m 256 1044 b 158 1085 231 1069 196 1085 b 61 1044 121 1085 86 1069 b 21 947 36 1019 21 985 b 58 851 21 910 35 876 l 61 849 b 158 808 86 824 121 808 b 256 849 196 808 231 824 b 296 947 281 874 296 908 b 256 1044 296 985 281 1019 z m 211 894 b 158 872 197 881 179 872 b 106 894 138 872 119 881 l 104 896 b 85 947 92 908 85 926 b 106 999 85 967 93 985 b 158 1021 119 1013 138 1021 b 211 999 179 1021 197 1013 b 232 947 224 985 232 967 b 211 894 232 926 224 908 z "},"":{"ha":688,"x_min":0,"x_max":0,"o":""},"":{"ha":1408,"x_min":0,"x_max":0,"o":""},"":{"ha":1408,"x_min":0,"x_max":0,"o":""},"":{"ha":275,"x_min":0,"x_max":0,"o":"m 192 1190 b 129 1149 168 1190 146 1175 b 32 933 117 1126 32 967 b 33 928 32 931 32 929 b 53 915 39 919 46 915 b 65 918 57 915 61 917 b 146 944 93 925 121 929 b 244 1135 215 989 224 1061 b 247 1153 246 1142 247 1147 b 199 1190 247 1176 231 1190 z "},"":{"ha":1639,"x_min":0,"x_max":0,"o":""},"":{"ha":694,"x_min":0,"x_max":0,"o":""},"":{"ha":376,"x_min":0,"x_max":0,"o":"m 188 674 b 69 556 122 674 69 621 b 188 439 69 492 122 439 b 304 556 251 439 304 492 b 188 674 304 621 251 674 z "},"":{"ha":390,"x_min":0,"x_max":0,"o":"m 233 -139 b 139 -28 233 -83 192 -33 b 124 -26 133 -26 128 -26 b 104 -56 108 -26 106 -33 b 82 -232 103 -90 82 -206 l 82 -237 b 240 -356 111 -333 240 -274 b 235 -387 240 -364 238 -375 b 189 -443 222 -429 206 -443 b 106 -385 154 -443 117 -392 b 90 -378 101 -382 96 -378 b 83 -381 89 -378 86 -379 b 76 -397 78 -385 76 -390 l 76 -403 b 224 -536 81 -474 157 -536 b 253 -532 235 -536 243 -535 b 382 -392 339 -507 382 -451 b 269 -239 382 -336 344 -278 b 226 -199 244 -225 226 -221 l 226 -192 b 233 -139 229 -175 231 -157 z "},"":{"ha":1408,"x_min":0,"x_max":0,"o":""},"":{"ha":2114,"x_min":0,"x_max":0,"o":""},"":{"ha":1311,"x_min":0,"x_max":0,"o":""},"":{"ha":2372,"x_min":0,"x_max":0,"o":""},"":{"ha":3292,"x_min":0,"x_max":0,"o":""},"":{"ha":2372,"x_min":0,"x_max":0,"o":""},"":{"ha":610,"x_min":0,"x_max":0,"o":"m 283 -131 b 356 -143 308 -139 332 -143 b 483 -92 403 -143 446 -126 b 583 107 553 -28 583 38 b 547 246 583 151 571 197 b 438 318 531 279 472 311 b 449 176 440 276 449 228 b 425 51 449 136 443 93 b 293 -47 404 4 346 -47 b 208 35 258 -47 226 -25 b 206 67 207 43 206 54 b 213 140 206 93 210 125 b 383 375 236 242 281 329 b 510 624 486 419 510 524 b 507 679 510 642 508 661 b 421 751 504 721 456 740 b 400 756 413 754 406 756 b 365 718 382 756 372 743 b 353 600 354 679 354 639 b 250 463 349 529 313 489 b 147 396 211 447 175 428 b 46 147 85 324 46 243 l 46 128 b 283 -131 51 1 172 -94 z m 486 842 b 528 865 515 842 525 844 b 539 1000 532 910 539 954 b 538 1036 539 1011 539 1024 b 451 1114 532 1082 497 1114 l 449 1114 b 414 1097 435 1113 421 1111 b 358 936 390 1044 361 994 b 368 897 358 922 358 908 b 486 842 400 865 436 842 z "},"":{"ha":885,"x_min":0,"x_max":0,"o":"m 764 1013 b 582 1078 722 1046 647 1078 b 507 1058 554 1078 528 1072 b 415 974 472 1035 442 1007 b 233 699 346 889 285 797 b 103 399 185 601 140 501 b 39 164 76 322 58 243 b 22 33 28 121 22 78 l 22 19 b 113 -78 22 -28 65 -74 l 121 -78 b 156 -42 146 -78 156 -67 l 156 -24 b 219 257 156 60 194 179 b 225 269 224 269 219 267 b 296 261 250 264 272 261 b 408 285 333 261 369 269 b 549 333 454 303 499 325 b 569 336 557 335 564 336 b 582 321 579 336 582 332 b 581 307 582 317 581 313 b 564 188 576 267 571 228 b 542 -31 554 115 543 43 l 542 -39 b 551 -69 542 -50 543 -61 b 665 -149 581 -107 619 -133 b 688 -153 674 -151 681 -153 b 719 -114 707 -153 717 -140 b 736 -3 724 -76 732 -40 b 846 635 760 211 828 435 b 864 803 851 690 864 746 b 764 1013 861 886 832 958 z m 608 464 b 589 442 606 450 603 442 b 578 443 586 442 582 442 b 539 449 565 447 551 449 b 476 440 518 449 497 444 b 265 378 438 432 299 378 b 260 379 263 378 261 378 b 571 903 317 558 453 758 b 639 956 601 940 624 956 b 669 871 661 956 669 921 b 608 464 669 738 614 493 z m 742 1239 b 643 1428 719 1313 713 1385 b 563 1456 618 1444 590 1449 b 551 1457 558 1457 554 1457 b 531 1446 542 1457 535 1454 b 529 1440 529 1444 529 1443 b 626 1225 529 1406 611 1247 b 688 1183 642 1197 663 1183 l 694 1183 b 744 1221 728 1183 744 1197 b 742 1239 744 1226 743 1232 z "},"":{"ha":885,"x_min":0,"x_max":0,"o":"m 764 1013 b 582 1078 722 1046 647 1078 b 507 1058 554 1078 528 1072 b 415 974 472 1035 442 1007 b 233 699 346 889 285 797 b 103 399 185 601 140 501 b 39 164 76 322 58 243 b 22 33 28 121 22 78 l 22 19 b 113 -78 22 -28 65 -74 l 121 -78 b 156 -42 146 -78 156 -67 l 156 -24 b 219 257 156 60 194 179 b 225 269 224 269 219 267 b 296 261 250 264 272 261 b 408 285 333 261 369 269 b 549 333 454 303 499 325 b 569 336 557 335 564 336 b 582 321 579 336 582 332 b 581 307 582 317 581 313 b 564 188 576 267 571 228 b 542 -31 554 115 543 43 l 542 -39 b 551 -69 542 -50 543 -61 b 665 -149 581 -107 619 -133 b 688 -153 674 -151 681 -153 b 719 -114 707 -153 717 -140 b 736 -3 724 -76 732 -40 b 846 635 760 211 828 435 b 864 803 851 690 864 746 b 764 1013 861 886 832 958 z m 608 464 b 589 442 606 450 603 442 b 578 443 586 442 582 442 b 539 449 565 447 551 449 b 476 440 518 449 497 444 b 265 378 438 432 299 378 b 260 379 263 378 261 378 b 571 903 317 558 453 758 b 639 956 601 940 624 956 b 669 871 661 956 669 921 b 608 464 669 738 614 493 z m 818 1457 b 756 1415 794 1457 774 1442 b 658 1200 743 1393 658 1233 b 660 1194 658 1197 660 1196 b 679 1182 665 1186 672 1182 b 692 1185 683 1182 688 1183 b 772 1211 719 1192 747 1196 b 871 1401 842 1256 850 1328 b 874 1419 872 1408 874 1414 b 825 1457 874 1443 857 1457 z "},"":{"ha":885,"x_min":0,"x_max":0,"o":"m 764 1013 b 582 1078 722 1046 647 1078 b 507 1058 554 1078 528 1072 b 415 974 472 1035 442 1007 b 233 699 346 889 285 797 b 103 399 185 601 140 501 b 39 164 76 322 58 243 b 22 33 28 121 22 78 l 22 19 b 113 -78 22 -28 65 -74 l 121 -78 b 156 -42 146 -78 156 -67 l 156 -24 b 219 257 156 60 194 179 b 225 269 224 269 219 267 b 296 261 250 264 272 261 b 408 285 333 261 369 269 b 549 333 454 303 499 325 b 569 336 557 335 564 336 b 582 321 579 336 582 332 b 581 307 582 317 581 313 b 564 188 576 267 571 228 b 542 -31 554 115 543 43 l 542 -39 b 551 -69 542 -50 543 -61 b 665 -149 581 -107 619 -133 b 688 -153 674 -151 681 -153 b 719 -114 707 -153 717 -140 b 736 -3 724 -76 732 -40 b 846 635 760 211 828 435 b 864 803 851 690 864 746 b 764 1013 861 886 832 958 z m 608 464 b 589 442 606 450 603 442 b 578 443 586 442 582 442 b 539 449 565 447 551 449 b 476 440 518 449 497 444 b 265 378 438 432 299 378 b 260 379 263 378 261 378 b 571 903 317 558 453 758 b 639 956 601 940 624 956 b 669 871 661 956 669 921 b 608 464 669 738 614 493 z m 828 1232 b 800 1368 818 1276 813 1328 b 690 1451 783 1419 740 1451 b 674 1450 685 1451 679 1451 b 582 1308 642 1446 603 1344 b 543 1222 568 1281 554 1251 b 540 1208 540 1217 540 1213 b 565 1183 540 1196 549 1188 b 578 1182 569 1182 574 1182 b 626 1208 597 1182 613 1192 b 692 1321 644 1232 678 1296 b 742 1203 707 1297 711 1231 b 792 1186 751 1194 772 1186 b 829 1218 811 1186 829 1194 b 828 1232 829 1222 829 1226 z "},"":{"ha":885,"x_min":0,"x_max":0,"o":"m 764 1013 b 582 1078 722 1046 647 1078 b 507 1058 554 1078 528 1072 b 415 974 472 1035 442 1007 b 233 699 346 889 285 797 b 103 399 185 601 140 501 b 39 164 76 322 58 243 b 22 33 28 121 22 78 l 22 19 b 113 -78 22 -28 65 -74 l 121 -78 b 156 -42 146 -78 156 -67 l 156 -24 b 219 257 156 60 194 179 b 225 269 224 269 219 267 b 296 261 250 264 272 261 b 408 285 333 261 369 269 b 549 333 454 303 499 325 b 569 336 557 335 564 336 b 582 321 579 336 582 332 b 581 307 582 317 581 313 b 564 188 576 267 571 228 b 542 -31 554 115 543 43 l 542 -39 b 551 -69 542 -50 543 -61 b 665 -149 581 -107 619 -133 b 688 -153 674 -151 681 -153 b 719 -114 707 -153 717 -140 b 736 -3 724 -76 732 -40 b 846 635 760 211 828 435 b 864 803 851 690 864 746 b 764 1013 861 886 832 958 z m 608 464 b 589 442 606 450 603 442 b 578 443 586 442 582 442 b 539 449 565 447 551 449 b 476 440 518 449 497 444 b 265 378 438 432 299 378 b 260 379 263 378 261 378 b 571 903 317 558 453 758 b 639 956 601 940 624 956 b 669 871 661 956 669 921 b 608 464 669 738 614 493 z m 438 1264 l 450 1236 b 572 1285 475 1194 510 1282 b 789 1189 635 1288 708 1203 b 961 1346 869 1175 956 1319 b 932 1375 967 1372 932 1375 l 885 1313 b 643 1385 819 1250 724 1361 b 438 1264 563 1408 438 1264 z "},"":{"ha":885,"x_min":0,"x_max":0,"o":"m 764 1013 b 582 1078 722 1046 647 1078 b 507 1058 554 1078 528 1072 b 415 974 472 1035 442 1007 b 233 699 346 889 285 797 b 103 399 185 601 140 501 b 39 164 76 322 58 243 b 22 33 28 121 22 78 l 22 19 b 113 -78 22 -28 65 -74 l 121 -78 b 156 -42 146 -78 156 -67 l 156 -24 b 219 257 156 60 194 179 b 225 269 224 269 219 267 b 296 261 250 264 272 261 b 408 285 333 261 369 269 b 549 333 454 303 499 325 b 569 336 557 335 564 336 b 582 321 579 336 582 332 b 581 307 582 317 581 313 b 564 188 576 267 571 228 b 542 -31 554 115 543 43 l 542 -39 b 551 -69 542 -50 543 -61 b 665 -149 581 -107 619 -133 b 688 -153 674 -151 681 -153 b 719 -114 707 -153 717 -140 b 736 -3 724 -76 732 -40 b 846 635 760 211 828 435 b 864 803 851 690 864 746 b 764 1013 861 886 832 958 z m 608 464 b 589 442 606 450 603 442 b 578 443 586 442 582 442 b 539 449 565 447 551 449 b 476 440 518 449 497 444 b 265 378 438 432 299 378 b 260 379 263 378 261 378 b 571 903 317 558 453 758 b 639 956 601 940 624 956 b 669 871 661 956 669 921 b 608 464 669 738 614 493 z m 574 1388 b 468 1282 515 1388 468 1340 b 574 1176 468 1224 515 1176 b 679 1282 632 1176 679 1224 b 574 1388 679 1340 632 1388 z m 794 1388 b 689 1282 736 1388 689 1340 b 794 1176 689 1224 736 1176 b 900 1282 853 1176 900 1224 b 794 1388 900 1340 853 1388 z "},"":{"ha":885,"x_min":0,"x_max":0,"o":"m 764 1013 b 582 1078 722 1046 647 1078 b 507 1058 554 1078 528 1072 b 415 974 472 1035 442 1007 b 233 699 346 889 285 797 b 103 399 185 601 140 501 b 39 164 76 322 58 243 b 22 33 28 121 22 78 l 22 19 b 113 -78 22 -28 65 -74 l 121 -78 b 156 -42 146 -78 156 -67 l 156 -24 b 219 257 156 60 194 179 b 225 269 224 269 219 267 b 296 261 250 264 272 261 b 408 285 333 261 369 269 b 549 333 454 303 499 325 b 569 336 557 335 564 336 b 582 321 579 336 582 332 b 581 307 582 317 581 313 b 564 188 576 267 571 228 b 542 -31 554 115 543 43 l 542 -39 b 551 -69 542 -50 543 -61 b 665 -149 581 -107 619 -133 b 688 -153 674 -151 681 -153 b 719 -114 707 -153 717 -140 b 736 -3 724 -76 732 -40 b 846 635 760 211 828 435 b 864 803 851 690 864 746 b 764 1013 861 886 832 958 z m 608 464 b 589 442 606 450 603 442 b 578 443 586 442 582 442 b 539 449 565 447 551 449 b 476 440 518 449 497 444 b 265 378 438 432 299 378 b 260 379 263 378 261 378 b 571 903 317 558 453 758 b 639 956 601 940 624 956 b 669 871 661 956 669 921 b 608 464 669 738 614 493 z m 815 1421 b 718 1461 790 1446 756 1461 b 621 1421 679 1461 646 1446 b 581 1324 596 1396 581 1361 b 618 1228 581 1286 594 1253 l 621 1225 b 718 1185 646 1200 679 1185 b 815 1225 756 1185 790 1200 b 856 1324 840 1250 856 1285 b 815 1421 856 1361 840 1396 z m 769 1271 b 718 1249 757 1257 739 1249 b 665 1271 697 1249 679 1257 l 664 1272 b 644 1324 651 1285 644 1303 b 665 1375 644 1343 653 1361 b 718 1397 679 1389 697 1397 b 769 1375 739 1397 757 1389 b 792 1324 783 1361 792 1343 b 769 1271 792 1303 783 1285 z "},"":{"ha":1324,"x_min":0,"x_max":0,"o":"m 608 464 b 589 442 608 449 601 442 b 578 443 586 442 582 442 b 539 449 565 447 551 449 b 476 440 518 449 497 446 b 393 414 458 436 431 426 b 317 390 367 406 340 397 b 265 378 293 382 275 378 b 260 379 263 378 261 378 b 393 654 290 469 335 561 b 571 903 450 746 510 829 b 639 956 600 938 624 956 b 663 932 650 956 658 947 b 669 871 667 917 669 896 b 650 674 669 815 663 750 b 615 494 636 597 625 538 b 608 464 611 479 610 469 z m 554 125 b 546 93 551 114 549 104 b 536 7 539 64 536 36 b 558 -114 536 -35 543 -75 b 685 -267 582 -176 625 -228 b 818 -308 731 -294 775 -308 b 903 -292 847 -308 875 -303 b 1086 -175 968 -265 1029 -226 b 1250 -14 1136 -132 1190 -79 b 1363 133 1300 40 1338 90 b 1396 200 1375 154 1386 176 b 1413 278 1407 224 1413 250 l 1414 283 b 1411 299 1414 289 1413 294 b 1392 321 1410 308 1403 315 b 1378 325 1388 324 1382 325 b 1358 319 1371 325 1364 324 b 1343 304 1351 315 1347 310 b 1226 182 1319 272 1281 232 b 1043 29 1172 132 1111 81 b 750 -153 925 -64 826 -125 b 729 -157 743 -156 736 -157 b 717 -154 725 -157 721 -156 b 708 -144 714 -151 711 -149 b 719 -114 715 -137 718 -128 b 728 -58 721 -96 724 -76 b 736 -3 732 -40 735 -21 b 754 124 742 39 747 81 b 799 196 768 149 783 172 b 881 306 825 233 851 269 b 921 343 893 321 906 333 b 969 363 935 353 951 360 b 996 369 979 364 989 367 b 1007 374 1000 371 1004 372 b 1057 413 1036 382 1053 394 b 1058 422 1058 415 1058 418 b 1036 471 1058 438 1051 453 b 978 529 1014 499 994 518 b 931 544 961 539 946 544 b 885 535 915 544 900 542 b 842 526 872 531 858 528 l 832 526 b 840 583 835 546 838 565 b 894 676 853 615 871 646 b 1024 803 935 731 978 772 b 1126 863 1057 826 1092 846 b 1239 903 1163 881 1200 893 l 1244 904 b 1250 906 1246 904 1249 904 b 1263 907 1254 907 1258 907 b 1268 906 1264 907 1267 907 l 1269 904 b 1268 903 1268 904 1268 904 l 1267 901 b 1268 896 1268 900 1268 897 b 1271 883 1269 892 1269 888 b 1285 863 1274 876 1278 869 b 1306 844 1292 856 1299 849 b 1344 832 1319 836 1332 832 b 1357 833 1349 832 1353 832 b 1390 867 1372 840 1383 851 b 1397 900 1394 876 1397 888 b 1396 914 1397 904 1397 910 b 1379 971 1392 935 1386 954 b 1275 1069 1356 1021 1321 1054 b 1196 1082 1250 1078 1224 1082 b 1132 1076 1175 1082 1154 1081 b 1031 1046 1097 1071 1063 1061 b 843 926 961 1014 899 975 l 838 921 b 764 1013 821 956 796 986 b 681 1058 742 1031 714 1046 b 582 1078 647 1071 614 1078 b 507 1058 554 1078 529 1071 b 415 974 472 1035 442 1007 b 233 699 346 889 285 797 b 103 399 185 601 140 501 b 47 196 81 332 63 264 b 39 164 44 185 42 174 b 22 33 28 121 22 78 l 22 19 b 50 -44 22 -4 32 -25 b 113 -78 68 -64 89 -75 l 121 -78 b 156 -42 144 -79 156 -67 l 156 -24 b 176 115 156 17 163 64 b 218 253 190 167 204 213 b 219 257 219 254 219 256 b 222 264 221 260 221 263 b 222 267 222 265 222 265 l 222 268 b 224 268 222 268 222 268 b 224 269 224 268 224 268 l 225 269 b 296 261 249 264 272 261 b 408 285 333 261 371 269 b 439 297 418 289 429 293 b 549 333 474 314 511 326 b 569 336 557 335 564 336 b 579 333 574 336 578 335 b 582 321 581 331 582 326 l 581 307 b 564 188 576 267 571 228 b 560 161 563 178 561 169 z "},"":{"ha":893,"x_min":0,"x_max":0,"o":"m 350 -135 b 344 -181 349 -149 347 -164 b 336 -232 340 -199 338 -217 b 333 -267 335 -249 333 -260 l 333 -272 b 372 -321 342 -296 354 -312 b 426 -337 389 -329 407 -335 b 472 -350 444 -340 460 -344 b 492 -390 485 -357 492 -369 b 486 -422 492 -399 490 -410 b 465 -465 479 -443 472 -457 b 439 -478 457 -474 449 -478 b 403 -462 426 -478 415 -472 b 371 -433 390 -453 381 -443 b 357 -419 364 -426 360 -421 b 354 -418 356 -419 356 -419 b 342 -412 350 -414 346 -412 b 335 -415 340 -412 338 -414 b 329 -422 332 -417 331 -419 b 328 -432 328 -425 328 -428 l 328 -437 b 379 -531 332 -474 349 -504 b 475 -571 410 -557 442 -571 b 504 -567 485 -571 494 -569 b 601 -508 547 -554 581 -535 b 633 -426 622 -483 633 -456 b 606 -343 633 -399 624 -371 b 521 -274 586 -317 558 -293 b 507 -267 517 -271 511 -268 b 486 -253 497 -262 490 -257 b 478 -233 481 -249 478 -243 l 478 -226 l 482 -199 l 485 -174 b 482 -147 485 -165 483 -156 b 586 -97 518 -140 553 -124 b 713 38 633 -61 675 -17 b 800 204 750 92 779 147 b 832 353 821 261 832 311 b 774 303 806 338 786 321 b 756 282 768 296 763 289 b 640 179 729 256 690 222 b 488 57 590 136 539 94 b 360 -19 435 18 392 -7 b 339 -24 353 -22 346 -24 b 303 -6 324 -24 311 -18 b 288 38 294 7 289 21 b 278 175 281 86 278 132 b 332 493 278 281 296 386 b 401 651 346 538 369 590 b 514 821 433 713 471 769 b 643 921 557 872 600 906 b 704 932 664 928 685 932 b 789 893 735 932 763 919 b 825 863 799 881 811 871 b 844 856 831 858 838 856 b 860 861 849 856 854 857 b 871 885 867 868 871 876 b 869 896 871 889 871 892 b 858 917 867 904 863 911 b 599 1090 793 1008 707 1067 b 563 1094 586 1093 575 1094 b 447 1058 522 1094 483 1082 b 346 968 410 1035 376 1004 b 261 854 314 931 286 893 b 196 750 235 815 214 781 b 85 338 122 619 85 482 b 144 69 85 242 104 153 b 336 -128 183 -14 247 -79 z "},"":{"ha":926,"x_min":0,"x_max":0,"o":"m 903 299 b 883 321 900 308 894 315 b 868 325 878 324 874 325 b 850 319 861 325 856 322 b 835 304 843 315 839 310 b 535 29 790 243 665 129 b 242 -153 424 -57 310 -132 b 221 -157 233 -156 226 -157 b 208 -154 215 -157 211 -156 b 194 -125 201 -150 197 -140 b 190 -64 192 -104 190 -83 b 193 -21 190 -49 192 -35 b 224 79 197 14 207 46 b 290 196 243 119 265 158 b 372 306 315 233 343 269 b 413 343 385 319 397 333 b 461 363 426 353 442 360 b 488 369 471 364 479 367 b 499 374 492 371 496 372 b 549 413 528 382 543 394 b 550 422 550 415 550 419 b 528 471 550 436 543 453 b 422 544 482 528 450 544 b 376 535 407 544 392 539 b 333 526 364 531 350 528 l 326 526 b 317 528 321 526 318 526 b 318 543 317 529 317 535 b 386 676 328 586 353 633 b 515 803 424 728 472 774 b 618 863 549 825 582 846 b 731 903 654 881 692 893 l 736 904 b 754 907 742 906 749 907 b 760 906 756 907 758 907 l 760 904 b 758 901 760 904 758 903 b 763 883 760 894 760 889 b 797 844 767 868 782 854 b 836 832 810 836 824 832 b 849 833 840 832 844 832 b 882 867 864 839 875 851 b 889 900 886 876 889 889 b 888 914 889 906 889 910 b 871 971 883 935 878 954 b 767 1069 849 1022 811 1053 b 686 1082 742 1078 715 1082 b 624 1076 667 1082 644 1081 b 522 1046 589 1071 554 1060 b 335 926 453 1014 389 975 b 201 760 282 881 238 825 b 164 638 181 719 167 679 l 164 628 b 188 517 164 592 171 556 b 208 481 194 504 201 492 b 232 447 217 468 225 457 b 236 440 235 443 236 442 b 232 435 236 440 235 438 b 182 374 214 415 197 394 b 139 308 167 351 153 331 b 79 206 117 275 97 242 b 38 93 61 171 47 133 b 28 7 31 64 28 36 b 50 -114 28 -35 35 -75 b 176 -267 74 -175 115 -229 b 308 -308 222 -296 267 -308 b 394 -292 339 -308 367 -301 b 578 -175 460 -268 521 -222 b 742 -14 624 -136 686 -75 b 854 133 789 39 831 92 b 888 200 867 154 878 176 b 904 278 897 225 904 250 l 904 283 b 903 299 904 289 904 293 z m 729 1236 b 631 1425 707 1310 700 1382 b 550 1453 606 1442 578 1446 b 539 1454 546 1454 543 1454 b 518 1443 531 1454 524 1451 b 517 1438 518 1442 517 1440 b 614 1222 517 1403 600 1244 b 676 1181 631 1194 651 1181 l 683 1181 b 732 1218 715 1181 732 1194 b 729 1236 732 1224 732 1229 z "},"":{"ha":926,"x_min":0,"x_max":0,"o":"m 903 299 b 883 321 900 308 894 315 b 868 325 878 324 874 325 b 850 319 861 325 856 322 b 835 304 843 315 839 310 b 535 29 790 243 665 129 b 242 -153 424 -57 310 -132 b 221 -157 233 -156 226 -157 b 208 -154 215 -157 211 -156 b 194 -125 201 -150 197 -140 b 190 -64 192 -104 190 -83 b 193 -21 190 -49 192 -35 b 224 79 197 14 207 46 b 290 196 243 119 265 158 b 372 306 315 233 343 269 b 413 343 385 319 397 333 b 461 363 426 353 442 360 b 488 369 471 364 479 367 b 499 374 492 371 496 372 b 549 413 528 382 543 394 b 550 422 550 415 550 419 b 528 471 550 436 543 453 b 422 544 482 528 450 544 b 376 535 407 544 392 539 b 333 526 364 531 350 528 l 326 526 b 317 528 321 526 318 526 b 318 543 317 529 317 535 b 386 676 328 586 353 633 b 515 803 424 728 472 774 b 618 863 549 825 582 846 b 731 903 654 881 692 893 l 736 904 b 754 907 742 906 749 907 b 760 906 756 907 758 907 l 760 904 b 758 901 760 904 758 903 b 763 883 760 894 760 889 b 797 844 767 868 782 854 b 836 832 810 836 824 832 b 849 833 840 832 844 832 b 882 867 864 839 875 851 b 889 900 886 876 889 889 b 888 914 889 906 889 910 b 871 971 883 935 878 954 b 767 1069 849 1022 811 1053 b 686 1082 742 1078 715 1082 b 624 1076 667 1082 644 1081 b 522 1046 589 1071 554 1060 b 335 926 453 1014 389 975 b 201 760 282 881 238 825 b 164 638 181 719 167 679 l 164 628 b 188 517 164 592 171 556 b 208 481 194 504 201 492 b 232 447 217 468 225 457 b 236 440 235 443 236 442 b 232 435 236 440 235 438 b 182 374 214 415 197 394 b 139 308 167 351 153 331 b 79 206 117 275 97 242 b 38 93 61 171 47 133 b 28 7 31 64 28 36 b 50 -114 28 -35 35 -75 b 176 -267 74 -175 115 -229 b 308 -308 222 -296 267 -308 b 394 -292 339 -308 367 -301 b 578 -175 460 -268 521 -222 b 742 -14 624 -136 686 -75 b 854 133 789 39 831 92 b 888 200 867 154 878 176 b 904 278 897 225 904 250 l 904 283 b 903 299 904 289 904 293 z m 813 1453 b 750 1411 789 1453 767 1438 b 653 1196 736 1389 653 1229 b 654 1190 653 1193 653 1192 b 674 1178 660 1182 665 1178 b 686 1181 678 1178 682 1179 b 767 1207 714 1188 742 1192 b 865 1397 836 1251 844 1324 b 868 1415 867 1404 868 1410 b 819 1453 868 1439 851 1453 z "},"":{"ha":926,"x_min":0,"x_max":0,"o":"m 903 299 b 883 321 900 308 894 315 b 868 325 878 324 874 325 b 850 319 861 325 856 322 b 835 304 843 315 839 310 b 535 29 790 243 665 129 b 242 -153 424 -57 310 -132 b 221 -157 233 -156 226 -157 b 208 -154 215 -157 211 -156 b 194 -125 201 -150 197 -140 b 190 -64 192 -104 190 -83 b 193 -21 190 -49 192 -35 b 224 79 197 14 207 46 b 290 196 243 119 265 158 b 372 306 315 233 343 269 b 413 343 385 319 397 333 b 461 363 426 353 442 360 b 488 369 471 364 479 367 b 499 374 492 371 496 372 b 549 413 528 382 543 394 b 550 422 550 415 550 419 b 528 471 550 436 543 453 b 422 544 482 528 450 544 b 376 535 407 544 392 539 b 333 526 364 531 350 528 l 326 526 b 317 528 321 526 318 526 b 318 543 317 529 317 535 b 386 676 328 586 353 633 b 515 803 424 728 472 774 b 618 863 549 825 582 846 b 731 903 654 881 692 893 l 736 904 b 754 907 742 906 749 907 b 760 906 756 907 758 907 l 760 904 b 758 901 760 904 758 903 b 763 883 760 894 760 889 b 797 844 767 868 782 854 b 836 832 810 836 824 832 b 849 833 840 832 844 832 b 882 867 864 839 875 851 b 889 900 886 876 889 889 b 888 914 889 906 889 910 b 871 971 883 935 878 954 b 767 1069 849 1022 811 1053 b 686 1082 742 1078 715 1082 b 624 1076 667 1082 644 1081 b 522 1046 589 1071 554 1060 b 335 926 453 1014 389 975 b 201 760 282 881 238 825 b 164 638 181 719 167 679 l 164 628 b 188 517 164 592 171 556 b 208 481 194 504 201 492 b 232 447 217 468 225 457 b 236 440 235 443 236 442 b 232 435 236 440 235 438 b 182 374 214 415 197 394 b 139 308 167 351 153 331 b 79 206 117 275 97 242 b 38 93 61 171 47 133 b 28 7 31 64 28 36 b 50 -114 28 -35 35 -75 b 176 -267 74 -175 115 -229 b 308 -308 222 -296 267 -308 b 394 -292 339 -308 367 -301 b 578 -175 460 -268 521 -222 b 742 -14 624 -136 686 -75 b 854 133 789 39 831 92 b 888 200 867 154 878 176 b 904 278 897 225 904 250 l 904 283 b 903 299 904 289 904 293 z m 857 1235 b 829 1371 847 1279 842 1331 b 719 1454 813 1422 769 1454 b 703 1453 714 1454 708 1454 b 611 1311 671 1449 632 1347 b 572 1225 597 1283 583 1254 b 568 1211 569 1219 568 1215 b 594 1186 568 1199 578 1190 b 607 1185 599 1185 603 1185 b 656 1211 626 1185 642 1194 b 721 1324 674 1235 707 1299 b 771 1206 736 1300 740 1233 b 821 1189 779 1197 801 1189 b 858 1221 840 1189 858 1197 b 857 1235 858 1225 857 1229 z "},"":{"ha":926,"x_min":0,"x_max":0,"o":"m 903 299 b 883 321 900 308 894 315 b 868 325 878 324 874 325 b 850 319 861 325 856 322 b 835 304 843 315 839 310 b 535 29 790 243 665 129 b 242 -153 424 -57 310 -132 b 221 -157 233 -156 226 -157 b 208 -154 215 -157 211 -156 b 194 -125 201 -150 197 -140 b 190 -64 192 -104 190 -83 b 193 -21 190 -49 192 -35 b 224 79 197 14 207 46 b 290 196 243 119 265 158 b 372 306 315 233 343 269 b 413 343 385 319 397 333 b 461 363 426 353 442 360 b 488 369 471 364 479 367 b 499 374 492 371 496 372 b 549 413 528 382 543 394 b 550 422 550 415 550 419 b 528 471 550 436 543 453 b 422 544 482 528 450 544 b 376 535 407 544 392 539 b 333 526 364 531 350 528 l 326 526 b 317 528 321 526 318 526 b 318 543 317 529 317 535 b 386 676 328 586 353 633 b 515 803 424 728 472 774 b 618 863 549 825 582 846 b 731 903 654 881 692 893 l 736 904 b 754 907 742 906 749 907 b 760 906 756 907 758 907 l 760 904 b 758 901 760 904 758 903 b 763 883 760 894 760 889 b 797 844 767 868 782 854 b 836 832 810 836 824 832 b 849 833 840 832 844 832 b 882 867 864 839 875 851 b 889 900 886 876 889 889 b 888 914 889 906 889 910 b 871 971 883 935 878 954 b 767 1069 849 1022 811 1053 b 686 1082 742 1078 715 1082 b 624 1076 667 1082 644 1081 b 522 1046 589 1071 554 1060 b 335 926 453 1014 389 975 b 201 760 282 881 238 825 b 164 638 181 719 167 679 l 164 628 b 188 517 164 592 171 556 b 208 481 194 504 201 492 b 232 447 217 468 225 457 b 236 440 235 443 236 442 b 232 435 236 440 235 438 b 182 374 214 415 197 394 b 139 308 167 351 153 331 b 79 206 117 275 97 242 b 38 93 61 171 47 133 b 28 7 31 64 28 36 b 50 -114 28 -35 35 -75 b 176 -267 74 -175 115 -229 b 308 -308 222 -296 267 -308 b 394 -292 339 -308 367 -301 b 578 -175 460 -268 521 -222 b 742 -14 624 -136 686 -75 b 854 133 789 39 831 92 b 888 200 867 154 878 176 b 904 278 897 225 904 250 l 904 283 b 903 299 904 289 904 293 z m 585 1414 b 479 1308 526 1414 479 1367 b 585 1203 479 1250 526 1203 b 689 1308 642 1203 689 1250 b 585 1414 689 1367 642 1414 z m 806 1414 b 700 1308 747 1414 700 1367 b 806 1203 700 1250 747 1203 b 911 1308 864 1203 911 1250 b 806 1414 911 1367 864 1414 z "},"":{"ha":601,"x_min":0,"x_max":0,"o":"m 728 1060 b 711 1093 724 1071 717 1082 b 682 1114 704 1107 694 1114 b 667 1111 676 1114 672 1113 b 268 1071 635 1099 301 1071 l 239 1071 b 207 1054 217 1071 207 1067 b 213 1032 207 1049 210 1040 b 351 911 233 981 299 926 b 381 889 374 904 381 901 b 378 868 381 885 379 878 b 189 94 340 675 189 278 l 189 79 b 56 64 189 79 89 64 l 43 64 b 25 50 31 64 25 60 b 29 33 25 46 26 40 b 193 -61 56 -37 119 -61 b 478 -6 289 -61 403 -22 b 513 31 499 0 507 13 b 514 44 514 35 514 39 b 453 140 514 82 483 140 b 432 131 446 140 439 138 b 379 104 418 117 400 106 b 539 892 403 218 539 722 b 533 935 539 911 538 925 b 542 939 533 935 533 936 b 675 967 585 951 631 958 b 735 1028 713 974 735 996 b 728 1060 735 1038 732 1049 z m 533 1239 b 435 1428 511 1313 504 1385 b 354 1456 410 1444 382 1449 b 343 1457 350 1457 347 1457 b 322 1446 335 1457 328 1454 b 321 1440 322 1444 321 1443 b 418 1225 321 1406 404 1247 b 481 1183 435 1197 456 1183 l 488 1183 b 536 1221 519 1183 536 1197 b 533 1239 536 1226 535 1232 z "},"":{"ha":601,"x_min":0,"x_max":0,"o":"m 728 1060 b 711 1093 724 1071 717 1082 b 682 1114 704 1107 694 1114 b 667 1111 676 1114 672 1113 b 268 1071 635 1099 301 1071 l 239 1071 b 207 1054 217 1071 207 1067 b 213 1032 207 1049 210 1040 b 351 911 233 981 299 926 b 381 889 374 904 381 901 b 378 868 381 885 379 878 b 189 94 340 675 189 278 l 189 79 b 56 64 189 79 89 64 l 43 64 b 25 50 31 64 25 60 b 29 33 25 46 26 40 b 193 -61 56 -37 119 -61 b 478 -6 289 -61 403 -22 b 513 31 499 0 507 13 b 514 44 514 35 514 39 b 453 140 514 82 483 140 b 432 131 446 140 439 138 b 379 104 418 117 400 106 b 539 892 403 218 539 722 b 533 935 539 911 538 925 b 542 939 533 935 533 936 b 675 967 585 951 631 958 b 735 1028 713 974 735 996 b 728 1060 735 1038 732 1049 z m 538 1457 b 476 1415 514 1457 493 1442 b 379 1200 463 1393 379 1233 b 381 1194 379 1197 379 1196 b 400 1182 386 1186 392 1182 b 413 1185 404 1182 408 1183 b 493 1211 440 1192 468 1196 b 592 1401 563 1256 571 1328 b 594 1419 593 1408 594 1414 b 544 1457 594 1443 578 1457 z "},"":{"ha":601,"x_min":0,"x_max":0,"o":"m 728 1060 b 711 1093 724 1071 717 1082 b 682 1114 704 1107 694 1114 b 667 1111 676 1114 672 1113 b 268 1071 635 1099 301 1071 l 239 1071 b 207 1054 217 1071 207 1067 b 213 1032 207 1049 210 1040 b 351 911 233 981 299 926 b 381 889 374 904 381 901 b 378 868 381 885 379 878 b 189 94 340 675 189 278 l 189 79 b 56 64 189 79 89 64 l 43 64 b 25 50 31 64 25 60 b 29 33 25 46 26 40 b 193 -61 56 -37 119 -61 b 478 -6 289 -61 403 -22 b 513 31 499 0 507 13 b 514 44 514 35 514 39 b 453 140 514 82 483 140 b 432 131 446 140 439 138 b 379 104 418 117 400 106 b 539 892 403 218 539 722 b 533 935 539 911 538 925 b 542 939 533 935 533 936 b 675 967 585 951 631 958 b 735 1028 713 974 735 996 b 728 1060 735 1038 732 1049 z m 592 1232 b 564 1368 582 1276 576 1328 b 454 1451 547 1419 504 1451 b 438 1450 449 1451 443 1451 b 346 1308 406 1446 367 1344 b 307 1222 332 1281 318 1251 b 303 1208 304 1217 303 1213 b 329 1183 303 1196 313 1188 b 342 1182 333 1182 338 1182 b 390 1208 361 1182 376 1192 b 456 1321 408 1232 442 1296 b 506 1203 471 1297 475 1231 b 556 1186 514 1194 536 1186 b 593 1218 575 1186 593 1194 b 592 1232 593 1222 592 1226 z "},"":{"ha":601,"x_min":0,"x_max":0,"o":"m 728 1060 b 711 1093 724 1071 717 1082 b 682 1114 704 1107 694 1114 b 667 1111 676 1114 672 1113 b 268 1071 635 1099 301 1071 l 239 1071 b 207 1054 217 1071 207 1067 b 213 1032 207 1049 210 1040 b 351 911 233 981 299 926 b 381 889 374 904 381 901 b 378 868 381 885 379 878 b 189 94 340 675 189 278 l 189 79 b 56 64 189 79 89 64 l 43 64 b 25 50 31 64 25 60 b 29 33 25 46 26 40 b 193 -61 56 -37 119 -61 b 478 -6 289 -61 403 -22 b 513 31 499 0 507 13 b 514 44 514 35 514 39 b 453 140 514 82 483 140 b 432 131 446 140 439 138 b 379 104 418 117 400 106 b 539 892 403 218 539 722 b 533 935 539 911 538 925 b 542 939 533 935 533 936 b 675 967 585 951 631 958 b 735 1028 713 974 735 996 b 728 1060 735 1038 732 1049 z m 379 1419 b 275 1314 322 1419 275 1372 b 379 1208 275 1256 322 1208 b 485 1314 438 1208 485 1256 b 379 1419 485 1372 438 1419 z m 601 1419 b 496 1314 543 1419 496 1372 b 601 1208 496 1256 543 1208 b 706 1314 658 1208 706 1256 b 601 1419 706 1372 658 1419 z "},"":{"ha":1214,"x_min":0,"x_max":0,"o":"m 1179 688 b 1110 838 1165 744 1142 794 b 986 957 1076 883 1035 924 b 858 1029 946 986 903 1010 b 715 1069 814 1049 767 1063 b 689 1072 707 1071 699 1071 l 658 1075 l 631 1079 b 556 1083 606 1082 581 1083 b 493 1081 535 1083 514 1082 b 360 1047 447 1075 403 1064 b 346 1043 356 1046 350 1044 b 336 1039 342 1042 339 1040 l 314 1031 b 260 1008 296 1024 278 1017 l 260 1007 l 257 1006 b 122 907 206 985 160 953 b 113 885 117 899 114 892 b 121 861 113 876 115 868 b 153 819 131 846 142 832 b 194 786 165 807 179 796 b 233 772 208 776 221 772 l 239 772 b 282 794 251 774 267 782 b 294 806 286 799 290 801 b 307 817 299 810 303 813 b 343 847 318 829 331 839 b 415 886 367 864 390 876 b 493 913 440 896 467 904 b 585 932 524 921 554 928 b 676 939 615 936 646 939 b 789 929 714 939 751 936 b 899 899 826 922 863 911 b 958 861 922 890 942 878 b 994 803 974 846 986 826 b 1014 699 1006 768 1013 733 l 1014 685 b 1003 593 1014 656 1010 625 b 940 435 988 538 967 485 b 847 293 914 386 882 339 b 706 139 804 238 757 186 b 538 14 654 92 599 50 b 336 -57 456 -33 389 -57 b 251 -33 303 -57 275 -49 b 193 32 228 -18 208 4 b 139 221 165 83 147 146 b 126 449 131 294 126 371 l 126 456 l 121 457 l 114 457 b 93 451 110 457 103 456 b 64 422 83 447 74 438 b 36 354 54 407 44 385 l 36 353 b 26 226 29 310 26 267 b 47 61 26 167 33 113 b 142 -108 65 -7 96 -64 b 324 -193 188 -153 247 -181 b 385 -197 343 -196 364 -197 b 569 -169 439 -197 501 -187 b 660 -133 601 -161 631 -149 b 740 -85 688 -119 714 -103 b 869 11 786 -56 829 -24 b 983 125 910 46 947 83 b 1094 283 1026 175 1064 228 b 1172 461 1126 340 1153 399 b 1192 571 1185 499 1192 535 l 1192 583 b 1179 688 1192 618 1188 653 z m 553 489 b 621 494 578 492 601 493 b 663 540 649 497 663 513 l 663 544 b 639 597 660 565 651 582 b 635 603 638 599 636 601 b 608 618 628 613 618 618 b 599 617 606 618 603 618 b 583 614 594 615 590 615 b 604 736 594 658 601 699 b 606 749 606 740 606 744 l 606 753 b 496 881 606 831 569 874 b 475 876 488 881 481 879 b 464 858 469 874 465 868 b 451 807 460 840 456 824 l 440 763 l 421 657 b 411 604 418 639 414 621 b 297 600 374 603 336 601 b 190 597 254 599 219 599 b 142 593 161 596 144 594 b 136 581 138 589 136 585 b 139 565 136 576 138 571 b 222 496 153 531 181 508 b 361 476 263 483 310 476 l 389 476 b 386 456 389 469 388 463 b 374 331 378 415 374 374 b 381 260 374 307 376 283 b 439 207 388 228 407 210 l 447 207 b 496 249 471 207 486 221 b 508 296 500 264 504 281 b 540 418 521 336 531 378 b 547 457 543 431 546 444 b 553 489 549 468 551 479 z "},"":{"ha":706,"x_min":0,"x_max":0,"o":"m 750 989 b 632 1061 732 1025 674 1061 l 628 1061 b 601 1044 615 1061 601 1057 l 601 1043 b 493 428 601 1042 499 447 b 476 451 479 435 478 443 b 172 978 454 596 351 961 b 153 979 165 979 158 979 b 122 932 128 979 124 969 b 7 50 113 682 36 429 l 7 47 b 81 -39 7 4 38 -32 b 122 -43 97 -42 111 -43 b 178 36 163 -43 174 -24 b 242 511 186 151 225 396 b 256 556 243 525 246 540 b 408 74 285 461 346 150 b 532 22 442 33 485 22 b 614 122 564 22 608 96 b 751 925 663 429 699 719 b 757 960 754 938 757 949 b 750 989 757 969 756 979 z m 142 1257 l 154 1229 b 276 1278 179 1188 214 1275 b 493 1182 339 1281 413 1196 b 665 1339 574 1168 660 1313 b 636 1368 671 1365 636 1368 l 589 1306 b 347 1378 524 1243 428 1354 b 142 1257 267 1401 142 1257 z "},"":{"ha":728,"x_min":0,"x_max":0,"o":"m 694 782 b 560 938 672 854 631 911 b 426 1011 485 964 478 985 b 343 1032 401 1024 372 1032 b 236 981 306 1032 268 1018 b 75 689 163 894 113 794 b 22 415 43 600 22 508 l 22 406 b 28 318 25 375 21 347 b 94 157 39 260 60 206 b 174 82 117 125 139 99 l 194 69 b 333 29 240 43 288 29 b 457 61 375 29 417 40 b 596 203 515 93 565 142 b 699 447 636 282 675 363 b 725 614 715 510 725 561 b 694 782 725 665 715 718 z m 583 664 b 544 475 583 596 564 536 b 465 292 525 410 500 349 b 303 136 426 225 378 167 b 253 124 282 128 265 124 b 200 181 228 124 214 140 b 174 336 183 232 174 283 b 183 426 174 365 176 396 b 250 663 201 507 217 588 b 275 714 258 681 267 697 b 494 886 322 819 424 886 b 565 833 529 886 557 869 b 586 708 576 790 586 749 b 583 671 586 696 586 683 z m 569 1240 b 471 1429 547 1314 540 1386 b 390 1457 446 1446 418 1450 b 379 1458 386 1458 382 1458 b 358 1447 369 1458 363 1456 b 357 1442 357 1446 357 1444 b 454 1226 357 1407 439 1249 b 515 1185 469 1199 490 1185 l 522 1185 b 571 1222 556 1185 571 1199 b 569 1240 571 1228 571 1233 z "},"":{"ha":728,"x_min":0,"x_max":0,"o":"m 694 782 b 560 938 672 854 631 911 b 426 1011 485 964 478 985 b 343 1032 401 1024 372 1032 b 236 981 306 1032 268 1018 b 75 689 163 894 113 794 b 22 415 43 600 22 508 l 22 406 b 28 318 25 375 21 347 b 94 157 39 260 60 206 b 174 82 117 125 139 99 l 194 69 b 333 29 240 43 288 29 b 457 61 375 29 417 40 b 596 203 515 93 565 142 b 699 447 636 282 675 363 b 725 614 715 510 725 561 b 694 782 725 665 715 718 z m 583 664 b 544 475 583 596 564 536 b 465 292 525 410 500 349 b 303 136 426 225 378 167 b 253 124 282 128 265 124 b 200 181 228 124 214 140 b 174 336 183 232 174 283 b 183 426 174 365 176 396 b 250 663 201 507 217 588 b 275 714 258 681 267 697 b 494 886 322 819 424 886 b 565 833 529 886 557 869 b 586 708 576 790 586 749 b 583 671 586 696 586 683 z m 546 1457 b 483 1415 522 1457 501 1442 b 386 1200 471 1393 386 1233 b 388 1194 386 1197 388 1196 b 407 1182 393 1186 400 1182 b 419 1185 411 1182 415 1183 b 500 1211 447 1192 475 1196 b 599 1401 569 1256 578 1328 b 601 1419 600 1408 601 1414 b 553 1457 601 1443 585 1457 z "},"":{"ha":728,"x_min":0,"x_max":0,"o":"m 694 782 b 560 938 672 854 631 911 b 426 1011 485 964 478 985 b 343 1032 401 1024 372 1032 b 236 981 306 1032 268 1018 b 75 689 163 894 113 794 b 22 415 43 600 22 508 l 22 406 b 28 318 25 375 21 347 b 94 157 39 260 60 206 b 174 82 117 125 139 99 l 194 69 b 333 29 240 43 288 29 b 457 61 375 29 417 40 b 596 203 515 93 565 142 b 699 447 636 282 675 363 b 725 614 715 510 725 561 b 694 782 725 665 715 718 z m 583 664 b 544 475 583 596 564 536 b 465 292 525 410 500 349 b 303 136 426 225 378 167 b 253 124 282 128 265 124 b 200 181 228 124 214 140 b 174 336 183 232 174 283 b 183 426 174 365 176 396 b 250 663 201 507 217 588 b 275 714 258 681 267 697 b 494 886 322 819 424 886 b 565 833 529 886 557 869 b 586 708 576 790 586 749 b 583 671 586 696 586 683 z m 640 1224 b 613 1360 631 1268 625 1319 b 503 1443 596 1411 553 1443 b 486 1442 497 1443 492 1443 b 394 1300 454 1438 415 1336 b 356 1214 381 1272 367 1243 b 353 1200 353 1208 353 1204 b 378 1175 353 1188 361 1179 b 390 1174 382 1174 386 1174 b 439 1200 410 1174 425 1183 b 504 1313 457 1224 490 1288 b 554 1194 519 1289 524 1222 b 604 1178 564 1186 585 1178 b 642 1210 624 1178 642 1186 b 640 1224 642 1214 642 1218 z "},"":{"ha":728,"x_min":0,"x_max":0,"o":"m 694 782 b 560 938 672 854 631 911 b 426 1011 485 964 478 985 b 343 1032 401 1024 372 1032 b 236 981 306 1032 268 1018 b 75 689 163 894 113 794 b 22 415 43 600 22 508 l 22 406 b 28 318 25 375 21 347 b 94 157 39 260 60 206 b 174 82 117 125 139 99 l 194 69 b 333 29 240 43 288 29 b 457 61 375 29 417 40 b 596 203 515 93 565 142 b 699 447 636 282 675 363 b 725 614 715 510 725 561 b 694 782 725 665 715 718 z m 583 664 b 544 475 583 596 564 536 b 465 292 525 410 500 349 b 303 136 426 225 378 167 b 253 124 282 128 265 124 b 200 181 228 124 214 140 b 174 336 183 232 174 283 b 183 426 174 365 176 396 b 250 663 201 507 217 588 b 275 714 258 681 267 697 b 494 886 322 819 424 886 b 565 833 529 886 557 869 b 586 708 576 790 586 749 b 583 671 586 696 586 683 z m 193 1263 l 206 1235 b 328 1283 231 1193 265 1281 b 544 1188 390 1286 464 1201 b 717 1344 625 1174 711 1318 b 688 1374 722 1371 688 1374 l 640 1311 b 399 1383 575 1249 479 1360 b 193 1263 318 1407 193 1263 z "},"":{"ha":728,"x_min":0,"x_max":0,"o":"m 694 782 b 560 938 672 854 631 911 b 426 1011 485 964 478 985 b 343 1032 401 1024 372 1032 b 236 981 306 1032 268 1018 b 75 689 163 894 113 794 b 22 415 43 600 22 508 l 22 406 b 28 318 25 375 21 347 b 94 157 39 260 60 206 b 174 82 117 125 139 99 l 194 69 b 333 29 240 43 288 29 b 457 61 375 29 417 40 b 596 203 515 93 565 142 b 699 447 636 282 675 363 b 725 614 715 510 725 561 b 694 782 725 665 715 718 z m 583 664 b 544 475 583 596 564 536 b 465 292 525 410 500 349 b 303 136 426 225 378 167 b 253 124 282 128 265 124 b 200 181 228 124 214 140 b 174 336 183 232 174 283 b 183 426 174 365 176 396 b 250 663 201 507 217 588 b 275 714 258 681 267 697 b 494 886 322 819 424 886 b 565 833 529 886 557 869 b 586 708 576 790 586 749 b 583 671 586 696 586 683 z m 401 1414 b 296 1308 343 1414 296 1367 b 401 1203 296 1250 343 1203 b 507 1308 460 1203 507 1250 b 401 1414 507 1367 460 1414 z m 622 1414 b 517 1308 564 1414 517 1367 b 622 1203 517 1250 564 1203 b 728 1308 681 1203 728 1250 b 622 1414 728 1367 681 1414 z "},"":{"ha":614,"x_min":0,"x_max":0,"o":"m 490 468 b 463 511 458 486 451 492 b 476 532 465 517 471 524 l 479 535 b 492 561 483 543 492 560 l 494 565 b 447 710 522 613 493 678 l 444 711 b 407 703 431 719 418 718 b 310 599 381 665 343 633 b 244 589 283 571 278 569 b 200 619 229 600 215 611 l 194 624 b 90 611 142 653 106 639 b 89 547 79 593 78 568 b 175 442 108 515 193 472 l 172 438 b 144 397 163 425 153 411 b 114 331 132 376 122 354 b 147 193 89 268 115 211 b 196 201 164 183 183 185 l 208 224 b 322 364 244 271 278 321 b 494 336 357 397 426 336 b 540 356 518 335 533 343 b 490 468 558 385 538 439 z "},"":{"ha":728,"x_min":0,"x_max":0,"o":"m 356 167 b 371 219 361 183 365 201 b 479 604 406 343 442 472 b 551 863 507 706 532 792 b 565 833 558 856 563 846 l 565 831 b 581 769 571 810 576 790 b 586 708 585 749 586 728 b 583 671 586 696 585 683 l 583 664 b 572 572 583 632 579 601 b 547 485 565 543 557 514 b 544 475 546 482 546 479 b 465 292 526 410 500 349 b 356 167 439 240 403 199 z m 196 194 b 174 336 181 240 174 288 b 183 426 174 365 176 396 b 190 457 185 436 188 447 b 250 663 203 528 224 597 b 275 714 258 681 267 697 b 376 840 300 768 333 810 b 350 746 368 810 360 779 b 238 344 311 608 274 474 b 196 194 221 286 207 236 z m 571 932 b 589 994 578 956 583 976 l 592 1004 b 571 1097 597 1038 590 1068 b 492 1153 551 1126 525 1144 l 489 1153 b 467 1153 479 1156 471 1156 b 456 1131 463 1149 458 1142 b 425 1013 453 1114 442 1074 b 343 1032 399 1025 371 1032 b 288 1021 325 1032 306 1028 b 236 981 269 1013 251 999 b 75 689 165 893 111 796 b 22 415 40 600 22 508 l 22 406 b 24 371 24 393 24 382 b 28 318 22 353 24 336 b 94 157 38 260 60 206 b 168 85 114 126 138 103 b 164 67 167 79 165 72 b 157 -39 153 18 150 -17 b 236 -87 164 -61 190 -78 b 251 -92 242 -89 247 -90 b 290 -60 271 -96 283 -86 b 317 29 297 -35 307 -6 l 333 29 b 457 61 375 29 417 40 b 596 203 517 93 564 140 b 699 447 639 282 672 363 b 725 614 717 507 725 563 b 694 782 725 665 715 722 b 571 932 675 853 635 903 z "},"":{"ha":703,"x_min":0,"x_max":0,"o":"m 700 886 b 579 989 694 996 583 982 b 568 972 568 983 568 978 b 364 114 550 738 440 344 b 314 31 353 81 336 54 b 288 14 304 19 296 14 b 263 35 279 14 271 21 b 204 339 221 108 204 219 b 263 763 204 493 232 660 b 325 965 283 831 293 901 b 329 986 328 972 329 979 b 318 1019 329 997 325 1008 b 218 1094 293 1057 258 1079 b 204 1097 213 1096 208 1097 b 172 1071 190 1097 179 1089 b 108 911 150 1018 124 967 b 42 588 79 806 54 697 b 29 393 35 522 29 458 b 42 224 29 336 33 281 b 317 -81 65 72 151 -46 b 346 -83 326 -82 336 -83 b 700 863 604 -83 700 643 z m 524 1236 b 425 1425 501 1310 494 1382 b 344 1453 400 1442 372 1446 b 335 1454 342 1454 338 1454 b 313 1443 325 1454 318 1451 b 313 1438 313 1442 313 1440 b 408 1222 313 1403 394 1244 b 471 1181 425 1194 446 1181 l 478 1181 b 526 1218 511 1181 526 1194 b 524 1236 526 1224 526 1229 z "},"":{"ha":703,"x_min":0,"x_max":0,"o":"m 700 886 b 579 989 694 996 583 982 b 568 972 568 983 568 978 b 364 114 550 738 440 344 b 314 31 353 81 336 54 b 288 14 304 19 296 14 b 263 35 279 14 271 21 b 204 339 221 108 204 219 b 263 763 204 493 232 660 b 325 965 283 831 293 901 b 329 986 328 972 329 979 b 318 1019 329 997 325 1008 b 218 1094 293 1057 258 1079 b 204 1097 213 1096 208 1097 b 172 1071 190 1097 179 1089 b 108 911 150 1018 124 967 b 42 588 79 806 54 697 b 29 393 35 522 29 458 b 42 224 29 336 33 281 b 317 -81 65 72 151 -46 b 346 -83 326 -82 336 -83 b 700 863 604 -83 700 643 z m 543 1454 b 481 1413 519 1454 499 1439 b 383 1197 468 1390 383 1231 b 385 1192 383 1194 385 1193 b 404 1179 390 1183 397 1179 b 417 1182 408 1179 413 1181 b 497 1208 444 1189 472 1193 b 596 1399 567 1253 575 1325 b 599 1417 597 1406 599 1411 b 550 1454 599 1440 582 1454 z "},"":{"ha":703,"x_min":0,"x_max":0,"o":"m 700 886 b 579 989 694 996 583 982 b 568 972 568 983 568 978 b 364 114 550 738 440 344 b 314 31 353 81 336 54 b 288 14 304 19 296 14 b 263 35 279 14 271 21 b 204 339 221 108 204 219 b 263 763 204 493 232 660 b 325 965 283 831 293 901 b 329 986 328 972 329 979 b 318 1019 329 997 325 1008 b 218 1094 293 1057 258 1079 b 204 1097 213 1096 208 1097 b 172 1071 190 1097 179 1089 b 108 911 150 1018 124 967 b 42 588 79 806 54 697 b 29 393 35 522 29 458 b 42 224 29 336 33 281 b 317 -81 65 72 151 -46 b 346 -83 326 -82 336 -83 b 700 863 604 -83 700 643 z m 596 1229 b 568 1365 586 1274 581 1325 b 458 1449 551 1417 508 1449 b 442 1447 453 1449 447 1449 b 350 1306 410 1443 371 1342 b 311 1219 336 1278 322 1249 b 308 1206 308 1214 308 1210 b 333 1181 308 1193 317 1185 b 346 1179 338 1179 342 1179 b 394 1206 365 1179 381 1189 b 460 1318 413 1229 446 1293 b 510 1200 475 1294 479 1228 b 560 1183 519 1192 540 1183 b 597 1215 579 1183 597 1192 b 596 1229 597 1219 597 1224 z "},"":{"ha":703,"x_min":0,"x_max":0,"o":"m 700 886 b 579 989 694 996 583 982 b 568 972 568 983 568 978 b 364 114 550 738 440 344 b 314 31 353 81 336 54 b 288 14 304 19 296 14 b 263 35 279 14 271 21 b 204 339 221 108 204 219 b 263 763 204 493 232 660 b 325 965 283 831 293 901 b 329 986 328 972 329 979 b 318 1019 329 997 325 1008 b 218 1094 293 1057 258 1079 b 204 1097 213 1096 208 1097 b 172 1071 190 1097 179 1089 b 108 911 150 1018 124 967 b 42 588 79 806 54 697 b 29 393 35 522 29 458 b 42 224 29 336 33 281 b 317 -81 65 72 151 -46 b 346 -83 326 -82 336 -83 b 700 863 604 -83 700 643 z m 363 1419 b 257 1314 304 1419 257 1372 b 363 1208 257 1256 304 1208 b 468 1314 421 1208 468 1256 b 363 1419 468 1372 421 1419 z m 583 1419 b 478 1314 525 1419 478 1372 b 583 1208 478 1256 525 1208 b 689 1314 642 1208 689 1256 b 583 1419 689 1372 642 1419 z "},"":{"ha":511,"x_min":0,"x_max":0,"o":"m 614 1019 b 525 1107 594 1058 564 1088 b 513 1111 521 1110 517 1111 b 493 1097 506 1111 499 1107 b 365 854 451 1024 404 931 b 289 706 340 804 314 756 b 97 1075 228 833 231 996 b 69 1085 89 1081 79 1083 b 61 1086 67 1086 64 1086 b 49 1071 53 1086 49 1081 l 49 1065 b 61 1001 51 1044 57 1022 b 108 813 72 949 97 865 b 185 489 121 758 185 549 b 183 476 185 483 185 479 b 24 88 128 350 54 221 b 22 76 22 83 22 79 b 29 44 22 65 25 56 b 126 -43 49 0 82 -26 b 153 -49 138 -47 146 -49 b 178 -19 165 -49 171 -40 b 314 314 217 94 267 203 b 410 513 343 382 379 446 b 486 671 433 567 463 617 b 536 778 503 707 518 743 b 618 994 557 818 618 933 b 614 1019 618 1004 617 1013 z m 403 1463 b 340 1421 379 1463 358 1447 b 243 1206 328 1399 243 1239 b 244 1200 243 1203 244 1201 b 264 1188 250 1192 257 1188 b 276 1190 268 1188 272 1189 b 357 1217 304 1197 332 1201 b 456 1407 426 1261 435 1333 b 458 1425 457 1414 458 1419 b 410 1463 458 1449 442 1463 z "},"":{"ha":775,"x_min":0,"x_max":0,"o":"m 467 649 b 496 801 476 699 486 750 b 683 854 553 833 617 850 l 690 854 b 739 818 722 858 739 846 b 736 789 739 810 738 800 b 697 678 728 751 715 714 b 586 497 664 615 626 554 b 565 467 579 488 572 476 b 457 324 531 418 494 369 b 433 293 450 314 442 303 b 425 279 431 289 428 285 l 414 285 b 425 376 417 315 421 346 b 443 475 429 408 436 442 b 467 631 453 526 461 578 z m 525 965 b 571 1203 544 1067 560 1146 l 572 1214 b 543 1306 575 1249 565 1279 b 460 1353 521 1332 493 1349 l 457 1353 b 435 1350 446 1354 439 1354 b 426 1326 431 1346 428 1339 b 403 1192 424 1308 415 1263 b 354 935 389 1119 372 1033 b 350 914 353 928 351 921 b 322 899 340 908 332 904 b 143 743 251 858 192 807 b 31 469 83 661 46 571 b 29 450 29 463 29 457 b 53 379 29 424 38 400 b 115 331 68 357 89 340 b 133 328 122 329 129 328 b 157 361 149 328 157 339 b 204 511 161 403 176 453 b 290 633 232 568 261 610 b 292 625 292 629 292 626 b 293 619 293 624 293 621 b 243 375 279 546 263 464 b 172 15 217 256 193 136 b 138 -303 151 -106 139 -211 b 169 -369 138 -332 149 -354 b 253 -410 194 -390 222 -403 b 272 -411 260 -411 267 -411 b 311 -364 299 -411 313 -396 b 338 -110 315 -285 325 -200 b 388 136 350 -19 367 63 l 389 135 b 392 133 390 135 390 133 b 399 128 393 132 396 131 b 429 108 406 122 417 115 b 472 92 446 97 460 92 b 517 114 488 92 501 99 b 713 346 593 182 658 260 l 740 385 b 858 574 785 444 824 507 b 871 594 861 581 865 588 b 901 699 892 628 901 663 b 879 801 901 735 894 769 b 821 876 864 833 844 858 b 557 967 744 936 656 967 b 525 965 547 967 536 967 z "},"":{"ha":950,"x_min":0,"x_max":0,"o":"m 221 1107 b 253 1158 225 1128 236 1144 b 311 1169 269 1169 292 1164 b 708 1161 335 1175 628 1179 b 819 949 797 1140 842 1039 l 818 943 b 521 667 792 797 686 651 b 515 650 518 663 517 657 b 517 610 513 638 513 622 b 528 597 521 599 524 599 b 582 590 547 596 565 593 b 875 292 804 549 881 413 b 871 250 875 278 874 264 b 790 89 860 192 832 135 b 589 -8 736 28 665 -6 b 435 1 532 -10 479 -7 b 282 93 361 14 307 43 b 269 156 269 119 265 140 b 400 214 281 221 400 213 b 407 185 400 211 397 197 b 479 153 413 178 429 163 b 585 147 504 149 539 146 b 718 275 646 149 706 208 b 721 297 719 282 719 289 b 553 439 724 368 664 418 b 510 444 539 442 525 443 l 496 446 b 376 546 443 457 400 493 b 363 679 358 586 354 635 b 400 767 369 711 382 742 b 531 824 433 811 481 831 b 633 881 547 821 592 814 b 667 972 651 910 661 943 b 664 1013 674 1010 669 997 b 360 1003 604 1025 367 1003 l 182 -37 b 150 -35 182 -39 168 -37 b 46 71 106 -26 24 -53 z "},"":{"ha":668,"x_min":0,"x_max":0,"o":"m 636 529 b 453 643 597 568 508 614 b 322 685 410 667 367 685 b 229 654 292 685 261 676 b 158 593 204 636 179 617 b 22 219 68 485 25 360 l 22 215 b 133 19 22 129 58 63 b 199 0 154 8 176 0 b 246 14 214 0 231 4 b 411 201 303 49 376 144 l 411 119 b 468 -17 415 68 426 19 b 511 -35 481 -28 496 -35 b 529 -32 517 -35 524 -35 b 556 19 551 -24 554 0 b 656 465 563 172 622 319 b 657 482 657 471 657 476 b 636 529 657 500 651 514 z m 450 501 b 181 163 411 457 204 167 l 181 171 b 193 244 181 197 186 222 b 336 503 219 342 265 431 b 417 557 361 528 389 557 b 453 538 428 557 440 551 b 460 522 458 532 460 526 b 450 501 460 514 456 508 z m 513 843 b 414 1032 490 917 483 989 b 333 1060 389 1049 361 1053 b 322 1061 331 1061 326 1061 b 301 1050 314 1061 307 1058 b 301 1044 301 1049 301 1047 b 397 829 301 1010 383 851 b 460 788 414 801 435 788 l 467 788 b 515 825 500 788 515 801 b 513 843 515 831 515 836 z "},"":{"ha":668,"x_min":0,"x_max":0,"o":"m 636 529 b 453 643 597 568 508 614 b 322 685 410 667 367 685 b 229 654 292 685 261 676 b 158 593 204 636 179 617 b 22 219 68 485 25 360 l 22 215 b 133 19 22 129 58 63 b 199 0 154 8 176 0 b 246 14 214 0 231 4 b 411 201 303 49 376 144 l 411 119 b 468 -17 415 68 426 19 b 511 -35 481 -28 496 -35 b 529 -32 517 -35 524 -35 b 556 19 551 -24 554 0 b 656 465 563 172 622 319 b 657 482 657 471 657 476 b 636 529 657 500 651 514 z m 450 501 b 181 163 411 457 204 167 l 181 171 b 193 244 181 197 186 222 b 336 503 219 342 265 431 b 417 557 361 528 389 557 b 453 538 428 557 440 551 b 460 522 458 532 460 526 b 450 501 460 514 456 508 z m 515 1056 b 453 1014 492 1056 469 1040 b 356 799 440 992 356 832 b 357 793 356 796 356 794 b 376 781 363 785 369 781 b 389 783 381 781 385 782 b 469 810 417 790 444 794 b 568 1000 539 854 547 926 b 571 1018 569 1007 571 1013 b 522 1056 571 1042 554 1056 z "},"":{"ha":668,"x_min":0,"x_max":0,"o":"m 636 529 b 453 643 597 568 508 614 b 322 685 410 667 367 685 b 229 654 292 685 261 676 b 158 593 204 636 179 617 b 22 219 68 485 25 360 l 22 215 b 133 19 22 129 58 63 b 199 0 154 8 176 0 b 246 14 214 0 231 4 b 411 201 303 49 376 144 l 411 119 b 468 -17 415 68 426 19 b 511 -35 481 -28 496 -35 b 529 -32 517 -35 524 -35 b 556 19 551 -24 554 0 b 656 465 563 172 622 319 b 657 482 657 471 657 476 b 636 529 657 500 651 514 z m 450 501 b 181 163 411 457 204 167 l 181 171 b 193 244 181 197 186 222 b 336 503 219 342 265 431 b 417 557 361 528 389 557 b 453 538 428 557 440 551 b 460 522 458 532 460 526 b 450 501 460 514 456 508 z m 588 835 b 560 971 578 879 572 931 b 450 1054 543 1022 500 1054 b 433 1053 444 1054 439 1054 b 342 911 401 1049 363 947 b 303 825 328 883 314 854 b 299 811 300 819 299 815 b 325 786 299 799 308 790 b 338 785 329 785 333 785 b 386 811 357 785 372 794 b 451 924 404 835 438 899 b 501 806 467 900 471 833 b 551 789 511 797 532 789 b 589 821 571 789 589 797 b 588 835 589 825 589 829 z "},"":{"ha":668,"x_min":0,"x_max":0,"o":"m 636 529 b 453 643 597 568 508 614 b 322 685 410 667 367 685 b 229 654 292 685 261 676 b 158 593 204 636 179 617 b 22 219 68 485 25 360 l 22 215 b 133 19 22 129 58 63 b 199 0 154 8 176 0 b 246 14 214 0 231 4 b 411 201 303 49 376 144 l 411 119 b 468 -17 415 68 426 19 b 511 -35 481 -28 496 -35 b 529 -32 517 -35 524 -35 b 556 19 551 -24 554 0 b 656 465 563 172 622 319 b 657 482 657 471 657 476 b 636 529 657 500 651 514 z m 450 501 b 181 163 411 457 204 167 l 181 171 b 193 244 181 197 186 222 b 336 503 219 342 265 431 b 417 557 361 528 389 557 b 453 538 428 557 440 551 b 460 522 458 532 460 526 b 450 501 460 514 456 508 z m 160 853 l 172 825 b 294 874 197 783 232 871 b 511 778 357 876 431 792 b 683 935 592 764 678 908 b 654 964 689 961 654 964 l 607 901 b 365 974 542 839 446 950 b 160 853 285 997 160 853 z "},"":{"ha":668,"x_min":0,"x_max":0,"o":"m 636 529 b 453 643 597 568 508 614 b 322 685 410 667 367 685 b 229 654 292 685 261 676 b 158 593 204 636 179 617 b 22 219 68 485 25 360 l 22 215 b 133 19 22 129 58 63 b 199 0 154 8 176 0 b 246 14 214 0 231 4 b 411 201 303 49 376 144 l 411 119 b 468 -17 415 68 426 19 b 511 -35 481 -28 496 -35 b 529 -32 517 -35 524 -35 b 556 19 551 -24 554 0 b 656 465 563 172 622 319 b 657 482 657 471 657 476 b 636 529 657 500 651 514 z m 450 501 b 181 163 411 457 204 167 l 181 171 b 193 244 181 197 186 222 b 336 503 219 342 265 431 b 417 557 361 528 389 557 b 453 538 428 557 440 551 b 460 522 458 532 460 526 b 450 501 460 514 456 508 z m 338 1008 b 232 903 279 1008 232 961 b 338 797 232 844 279 797 b 443 903 396 797 443 844 b 338 1008 443 961 396 1008 z m 558 1008 b 453 903 500 1008 453 961 b 558 797 453 844 500 797 b 664 903 617 797 664 844 b 558 1008 664 961 617 1008 z "},"":{"ha":668,"x_min":0,"x_max":0,"o":"m 636 529 b 453 643 597 568 508 614 b 322 685 410 667 367 685 b 229 654 292 685 261 676 b 158 593 204 636 179 617 b 22 219 68 485 25 360 l 22 215 b 133 19 22 129 58 63 b 199 0 154 8 176 0 b 246 14 214 0 231 4 b 411 201 303 49 376 144 l 411 119 b 468 -17 415 68 426 19 b 511 -35 481 -28 496 -35 b 529 -32 517 -35 524 -35 b 556 19 551 -24 554 0 b 656 465 563 172 622 319 b 657 482 657 471 657 476 b 636 529 657 500 651 514 z m 450 501 b 181 163 411 457 204 167 l 181 171 b 193 244 181 197 186 222 b 336 503 219 342 265 431 b 417 557 361 528 389 557 b 453 538 428 557 440 551 b 460 522 458 532 460 526 b 450 501 460 514 456 508 z m 569 1019 b 472 1060 544 1044 510 1060 b 374 1019 433 1060 399 1044 b 333 922 349 994 333 960 b 372 826 333 885 349 851 l 374 824 b 472 783 399 799 433 783 b 569 824 510 783 544 799 b 610 922 594 849 610 883 b 569 1019 610 960 594 994 z m 524 869 b 472 847 511 856 492 847 b 419 869 451 847 433 856 l 418 871 b 399 922 406 883 399 901 b 419 974 399 942 407 960 b 472 996 433 988 451 996 b 524 974 492 996 511 988 b 546 922 538 960 546 942 b 524 869 546 901 538 883 z "},"":{"ha":1010,"x_min":0,"x_max":0,"o":"m 863 601 b 878 606 867 603 872 604 b 894 608 883 607 889 608 b 922 586 913 607 922 600 b 918 569 922 582 921 576 b 750 467 876 511 821 476 b 742 465 747 467 744 467 b 728 464 738 464 732 464 b 708 474 719 464 713 467 b 707 479 707 475 707 478 b 739 524 707 490 718 506 b 808 574 760 542 783 558 b 863 601 832 589 850 597 z m 249 118 b 233 114 244 117 240 115 b 217 111 228 113 222 111 b 190 132 199 113 190 119 b 193 150 190 138 192 143 b 361 253 235 208 290 243 l 369 253 b 385 254 375 254 381 254 b 403 246 393 254 399 251 b 404 240 404 244 404 242 b 372 196 404 229 393 214 b 304 146 351 178 328 161 b 249 118 281 131 261 121 z m 613 285 b 617 299 614 289 615 294 b 631 360 622 318 628 339 b 632 364 631 361 632 363 b 728 357 667 360 699 357 b 883 388 792 357 843 367 b 969 465 922 408 951 433 b 996 563 988 497 996 529 b 950 693 996 611 981 654 b 826 751 919 732 878 751 b 681 694 783 751 735 732 b 592 613 647 671 617 643 b 440 743 561 676 511 719 b 388 751 422 749 406 751 b 322 733 365 751 343 746 b 193 618 268 707 225 669 b 135 494 161 567 142 526 l 135 489 b 133 481 133 486 133 483 b 136 471 133 476 135 474 b 144 467 139 468 142 467 b 150 468 146 467 149 467 b 154 472 151 469 153 471 b 158 475 156 474 157 474 b 199 506 168 482 182 492 b 315 593 232 533 271 563 b 433 639 360 624 399 639 b 479 621 451 639 467 633 b 501 556 492 608 499 586 b 506 493 504 532 506 511 b 500 440 506 476 504 458 l 494 421 b 481 360 489 400 483 381 b 479 356 481 358 479 357 b 385 363 444 360 414 363 b 229 332 321 363 269 353 b 143 254 189 311 161 286 b 115 156 125 222 115 190 b 163 26 115 108 131 65 b 285 -32 193 -12 233 -32 b 431 25 328 -32 376 -12 b 519 107 464 49 494 75 b 671 -24 551 43 601 0 b 725 -32 689 -29 707 -32 b 789 -14 747 -32 768 -26 b 919 101 843 13 888 50 b 976 225 951 153 969 193 b 978 231 978 226 978 229 b 979 239 979 233 979 236 b 975 249 979 243 978 246 b 968 253 972 251 969 253 b 963 251 967 253 964 253 b 957 247 961 250 958 249 b 953 244 956 246 954 246 b 913 214 943 238 931 228 b 797 126 881 186 842 157 b 678 81 751 96 713 81 b 633 100 660 81 646 88 b 610 164 621 113 614 133 b 606 225 607 188 606 207 b 613 283 606 243 608 263 z "},"":{"ha":525,"x_min":0,"x_max":0,"o":"m 132 35 l 132 28 b 124 -25 129 11 126 -7 b 117 -76 121 -43 118 -61 b 113 -111 114 -93 113 -104 l 113 -117 b 151 -165 121 -140 133 -157 b 206 -182 168 -174 186 -179 b 251 -194 224 -185 239 -189 b 271 -235 264 -201 271 -214 b 265 -267 271 -243 269 -254 b 244 -310 260 -287 253 -301 b 219 -322 236 -318 228 -322 b 182 -307 207 -322 194 -317 b 151 -278 169 -297 160 -287 b 136 -264 144 -271 140 -265 l 135 -262 b 121 -257 131 -258 125 -257 b 114 -260 119 -257 117 -258 b 108 -267 111 -261 110 -264 b 107 -276 107 -269 107 -272 l 107 -282 b 158 -375 111 -318 128 -349 b 256 -415 189 -401 221 -415 b 283 -411 265 -415 274 -414 b 381 -353 326 -399 360 -379 b 413 -271 401 -328 413 -300 b 385 -187 413 -243 403 -215 b 300 -118 367 -161 338 -137 b 286 -111 296 -115 290 -112 b 265 -97 276 -107 269 -101 b 257 -78 260 -93 257 -87 l 257 -71 b 261 -43 258 -61 260 -53 l 264 -18 b 260 13 264 -7 263 3 b 304 32 275 18 289 24 b 428 138 350 58 392 94 b 501 257 464 179 489 219 b 504 265 503 260 504 263 b 503 272 504 267 504 269 b 496 283 503 276 500 281 b 489 288 493 285 490 286 b 481 288 486 288 483 288 b 468 282 476 286 472 285 b 465 281 467 281 467 281 b 463 279 464 279 464 279 b 457 275 460 278 458 276 b 386 224 447 267 424 250 b 264 153 347 197 307 174 b 193 128 238 140 214 132 l 185 128 b 156 140 171 128 161 132 b 153 160 154 144 153 151 b 228 415 154 256 179 342 b 436 594 279 492 349 551 b 467 619 453 601 463 610 b 469 632 468 624 469 628 b 460 657 469 639 467 647 b 385 724 443 685 418 707 b 338 735 369 731 354 735 b 299 726 325 735 311 732 b 104 551 221 693 156 635 b 22 289 50 461 22 374 l 22 283 b 50 147 24 235 32 189 b 132 35 68 106 94 68 z "},"":{"ha":585,"x_min":0,"x_max":0,"o":"m 528 244 b 253 81 483 214 340 81 b 185 164 217 81 190 103 b 181 225 182 189 181 208 b 207 364 181 261 188 293 b 301 357 242 358 274 357 b 571 563 494 357 571 461 b 401 751 571 658 504 751 b 256 694 358 751 308 735 b 122 547 201 654 154 608 b 50 292 79 464 50 379 b 83 133 50 240 60 188 b 246 -24 115 58 164 0 b 300 -32 264 -29 282 -32 b 364 -14 322 -32 343 -26 b 551 225 472 31 539 169 b 554 239 553 229 554 235 b 550 249 554 243 553 246 b 543 253 547 251 544 253 b 528 244 538 253 532 247 z m 438 601 b 453 606 442 603 447 604 b 469 608 458 607 464 608 b 497 586 488 608 497 600 b 493 569 497 582 496 576 b 325 467 456 515 392 472 b 303 464 318 467 310 464 b 283 474 294 464 288 467 b 282 479 282 475 282 476 b 438 601 282 513 404 593 z m 439 843 b 340 1032 417 917 410 989 b 260 1060 315 1049 288 1053 b 249 1061 256 1061 253 1061 b 228 1050 240 1061 233 1058 b 226 1044 228 1049 226 1047 b 324 829 226 1010 310 851 b 386 788 340 801 361 788 l 393 788 b 442 825 425 788 442 801 b 439 843 442 831 442 836 z "},"":{"ha":585,"x_min":0,"x_max":0,"o":"m 528 244 b 253 81 483 214 340 81 b 185 164 217 81 190 103 b 181 225 182 189 181 208 b 207 364 181 261 188 293 b 301 357 242 358 274 357 b 571 563 494 357 571 461 b 401 751 571 658 504 751 b 256 694 358 751 308 735 b 122 547 201 654 154 608 b 50 292 79 464 50 379 b 83 133 50 240 60 188 b 246 -24 115 58 164 0 b 300 -32 264 -29 282 -32 b 364 -14 322 -32 343 -26 b 551 225 472 31 539 169 b 554 239 553 229 554 235 b 550 249 554 243 553 246 b 543 253 547 251 544 253 b 528 244 538 253 532 247 z m 438 601 b 453 606 442 603 447 604 b 469 608 458 607 464 608 b 497 586 488 608 497 600 b 493 569 497 582 496 576 b 325 467 456 515 392 472 b 303 464 318 467 310 464 b 283 474 294 464 288 467 b 282 479 282 475 282 476 b 438 601 282 513 404 593 z m 458 1067 b 396 1025 433 1067 413 1051 b 299 810 382 1003 299 843 b 300 804 299 807 299 806 b 319 792 306 796 311 792 b 332 794 324 792 328 793 b 413 821 360 801 388 806 b 511 1011 482 865 490 938 b 514 1029 513 1018 514 1024 b 465 1067 514 1053 497 1067 z "},"":{"ha":585,"x_min":0,"x_max":0,"o":"m 528 244 b 253 81 483 214 340 81 b 185 164 217 81 190 103 b 181 225 182 189 181 208 b 207 364 181 261 188 293 b 301 357 242 358 274 357 b 571 563 494 357 571 461 b 401 751 571 658 504 751 b 256 694 358 751 308 735 b 122 547 201 654 154 608 b 50 292 79 464 50 379 b 83 133 50 240 60 188 b 246 -24 115 58 164 0 b 300 -32 264 -29 282 -32 b 364 -14 322 -32 343 -26 b 551 225 472 31 539 169 b 554 239 553 229 554 235 b 550 249 554 243 553 246 b 543 253 547 251 544 253 b 528 244 538 253 532 247 z m 438 601 b 453 606 442 603 447 604 b 469 608 458 607 464 608 b 497 586 488 608 497 600 b 493 569 497 582 496 576 b 325 467 456 515 392 472 b 303 464 318 467 310 464 b 283 474 294 464 288 467 b 282 479 282 475 282 476 b 438 601 282 513 404 593 z m 553 843 b 525 979 543 888 538 939 b 415 1063 508 1031 465 1063 b 399 1061 410 1063 404 1063 b 307 919 367 1057 328 956 b 268 833 293 892 279 863 b 264 819 265 828 264 824 b 290 794 264 807 274 799 b 303 793 294 793 299 793 b 351 819 322 793 338 803 b 417 932 369 843 403 907 b 467 814 432 908 436 842 b 517 797 475 806 497 797 b 554 829 536 797 554 806 b 553 843 554 833 553 838 z "},"":{"ha":585,"x_min":0,"x_max":0,"o":"m 528 244 b 253 81 483 214 340 81 b 185 164 217 81 190 103 b 181 225 182 189 181 208 b 207 364 181 261 188 293 b 301 357 242 358 274 357 b 571 563 494 357 571 461 b 401 751 571 658 504 751 b 256 694 358 751 308 735 b 122 547 201 654 154 608 b 50 292 79 464 50 379 b 83 133 50 240 60 188 b 246 -24 115 58 164 0 b 300 -32 264 -29 282 -32 b 364 -14 322 -32 343 -26 b 551 225 472 31 539 169 b 554 239 553 229 554 235 b 550 249 554 243 553 246 b 543 253 547 251 544 253 b 528 244 538 253 532 247 z m 438 601 b 453 606 442 603 447 604 b 469 608 458 607 464 608 b 497 586 488 608 497 600 b 493 569 497 582 496 576 b 325 467 456 515 392 472 b 303 464 318 467 310 464 b 283 474 294 464 288 467 b 282 479 282 475 282 476 b 438 601 282 513 404 593 z m 300 1025 b 194 919 242 1025 194 978 b 300 814 194 861 242 814 b 404 919 357 814 404 861 b 300 1025 404 978 357 1025 z m 521 1025 b 415 919 463 1025 415 978 b 521 814 415 861 463 814 b 626 919 579 814 626 861 b 521 1025 626 978 579 1025 z "},"":{"ha":289,"x_min":0,"x_max":0,"o":"m 160 732 b 133 736 149 735 140 738 b 108 694 115 735 107 721 b 22 203 111 636 32 314 b 18 104 19 174 15 138 b 56 13 19 68 29 35 b 131 -26 90 -17 114 -28 b 182 81 164 -24 174 24 b 267 614 211 258 249 436 b 267 632 267 621 267 626 b 160 732 263 688 210 714 z m 286 835 b 188 1024 264 908 257 981 b 107 1051 163 1040 135 1044 b 96 1053 103 1053 99 1053 b 75 1042 86 1053 79 1050 b 74 1036 74 1040 74 1039 b 171 821 74 1001 156 843 b 232 779 186 793 207 779 l 239 779 b 289 817 272 779 289 793 b 286 835 289 822 288 828 z "},"":{"ha":289,"x_min":0,"x_max":0,"o":"m 160 732 b 133 736 149 735 140 738 b 108 694 115 735 107 721 b 22 203 111 636 32 314 b 18 104 19 174 15 138 b 56 13 19 68 29 35 b 131 -26 90 -17 114 -28 b 182 81 164 -24 174 24 b 267 614 211 258 249 436 b 267 632 267 621 267 626 b 160 732 263 688 210 714 z m 301 1067 b 239 1025 278 1067 257 1051 b 142 810 226 1003 142 843 b 143 804 142 807 143 806 b 163 792 149 796 156 792 b 175 794 167 792 171 793 b 256 821 203 801 231 806 b 354 1011 325 865 333 938 b 357 1029 357 1018 357 1024 b 308 1067 357 1053 340 1067 z "},"":{"ha":289,"x_min":0,"x_max":0,"o":"m 160 732 b 133 736 149 735 140 738 b 108 694 115 735 107 721 b 22 203 111 636 32 314 b 18 104 19 174 15 138 b 56 13 19 68 29 35 b 131 -26 90 -17 114 -28 b 182 81 164 -24 174 24 b 267 614 211 258 249 436 b 267 632 267 621 267 626 b 160 732 263 688 210 714 z m 310 840 b 282 976 300 885 294 936 b 172 1060 265 1028 222 1060 b 156 1058 167 1060 161 1060 b 64 917 124 1054 85 953 b 25 831 50 889 36 860 b 22 817 24 825 22 821 b 47 792 22 804 31 796 b 60 790 51 790 56 790 b 108 817 81 790 94 800 b 174 929 126 840 160 904 b 224 811 189 906 193 839 b 274 794 233 803 254 794 b 311 826 293 794 311 803 b 310 840 311 831 311 835 z "},"":{"ha":289,"x_min":0,"x_max":0,"o":"m 160 732 b 133 736 149 735 140 738 b 108 694 115 735 107 721 b 22 203 111 636 32 314 b 18 104 19 174 15 138 b 56 13 19 68 29 35 b 131 -26 90 -17 114 -28 b 182 81 164 -24 174 24 b 267 614 211 258 249 436 b 267 632 267 621 267 626 b 160 732 263 688 210 714 z m 81 1047 b -37 929 15 1047 -37 994 b 81 813 -37 865 15 813 b 197 929 144 813 197 865 b 81 1047 197 994 144 1047 z m 325 1047 b 208 929 261 1047 208 994 b 325 813 208 865 261 813 b 443 929 390 813 443 865 b 325 1047 443 994 390 1047 z "},"":{"ha":738,"x_min":0,"x_max":0,"o":"m 614 286 b 625 314 617 292 621 301 b 626 683 650 383 693 540 b 599 733 618 701 608 717 l 681 758 b 694 774 688 761 692 767 b 686 835 703 796 686 835 l 551 794 b 418 875 518 828 476 854 b 349 896 397 883 374 890 b 293 849 319 903 303 876 b 281 804 285 826 281 804 b 346 785 304 799 326 792 b 414 753 371 775 394 764 l 342 729 b 326 715 333 728 328 722 b 342 653 317 693 342 653 l 485 697 b 526 636 503 679 517 658 b 553 519 544 599 553 558 b 417 624 519 567 472 603 b 8 419 254 683 71 592 b 188 0 -56 247 25 60 b 594 204 349 -60 531 31 b 614 286 604 231 611 258 z m 225 101 b 111 382 119 140 68 267 b 378 521 153 497 274 560 b 492 242 483 482 535 357 b 225 101 450 126 329 64 z "},"":{"ha":619,"x_min":0,"x_max":0,"o":"m 500 654 b 475 660 490 658 482 660 b 446 632 463 660 454 651 b 233 321 421 576 254 321 b 274 558 233 324 272 550 b 276 585 275 568 276 576 b 144 678 276 651 219 681 b 111 651 125 678 114 672 b 14 151 100 564 36 229 b 8 117 10 139 8 128 b 110 31 8 65 49 39 b 133 26 117 28 125 26 b 156 36 142 26 150 29 b 404 424 249 169 315 296 b 414 421 407 422 410 422 b 406 365 411 403 408 383 b 364 143 392 292 379 217 b 361 111 363 132 361 121 b 372 56 361 92 364 74 b 457 1 383 28 414 11 l 464 1 b 521 51 494 4 507 25 b 558 158 542 90 551 124 b 618 543 582 283 593 418 b 619 551 618 546 619 549 b 500 654 619 599 551 646 z m 138 839 l 150 811 b 272 860 175 769 210 857 b 489 764 335 863 408 778 b 661 921 569 750 656 894 b 632 950 667 947 632 950 l 585 888 b 343 960 519 825 424 936 b 138 839 263 983 138 839 z "},"":{"ha":436,"x_min":0,"x_max":0,"o":"m 258 667 b 224 672 246 671 235 672 b 22 285 89 672 22 394 l 22 282 b 121 60 25 194 44 117 b 207 31 149 40 178 31 b 299 76 243 31 276 46 b 428 432 364 172 428 310 b 258 667 428 535 383 624 z m 185 147 b 163 226 174 151 163 190 b 189 285 163 256 169 283 b 281 308 219 289 249 299 b 185 147 258 247 225 179 z m 288 432 b 197 372 261 413 235 390 b 276 608 197 415 219 563 b 324 513 307 590 324 551 b 288 432 324 481 311 449 z m 347 829 b 249 1018 325 903 318 975 b 168 1046 224 1035 196 1039 b 157 1047 164 1047 160 1047 b 136 1036 147 1047 140 1044 b 135 1031 135 1035 135 1033 b 232 815 135 996 217 838 b 293 774 247 788 268 774 l 300 774 b 350 811 333 774 350 788 b 347 829 350 817 349 822 z "},"":{"ha":436,"x_min":0,"x_max":0,"o":"m 258 667 b 224 672 246 671 235 672 b 22 285 89 672 22 394 l 22 282 b 121 60 25 194 44 117 b 207 31 149 40 178 31 b 299 76 243 31 276 46 b 428 432 364 172 428 310 b 258 667 428 535 383 624 z m 185 147 b 163 226 174 151 163 190 b 189 285 163 256 169 283 b 281 308 219 289 249 299 b 185 147 258 247 225 179 z m 288 432 b 197 372 261 413 235 390 b 276 608 197 415 219 563 b 324 513 307 590 324 551 b 288 432 324 481 311 449 z m 375 1050 b 313 1008 351 1050 331 1035 b 215 793 300 986 215 826 b 217 788 215 790 217 789 b 236 775 222 779 229 775 b 249 778 240 775 244 776 b 329 804 276 785 304 789 b 428 994 399 849 407 921 b 431 1013 429 1001 431 1007 b 382 1050 431 1036 414 1050 z "},"":{"ha":436,"x_min":0,"x_max":0,"o":"m 258 667 b 224 672 246 671 235 672 b 22 285 89 672 22 394 l 22 282 b 121 60 25 194 44 117 b 207 31 149 40 178 31 b 299 76 243 31 276 46 b 428 432 364 172 428 310 b 258 667 428 535 383 624 z m 185 147 b 163 226 174 151 163 190 b 189 285 163 256 169 283 b 281 308 219 289 249 299 b 185 147 258 247 225 179 z m 288 432 b 197 372 261 413 235 390 b 276 608 197 415 219 563 b 324 513 307 590 324 551 b 288 432 324 481 311 449 z m 425 818 b 397 954 415 863 410 914 b 288 1038 381 1006 338 1038 b 271 1036 282 1038 276 1038 b 179 894 239 1032 200 931 b 140 808 165 867 151 838 b 138 794 138 803 138 799 b 163 769 138 782 146 774 b 175 768 167 768 171 768 b 224 794 194 768 210 778 b 289 907 242 818 275 882 b 339 789 304 883 308 817 b 389 772 349 781 369 772 b 426 804 408 772 426 781 b 425 818 426 808 426 813 z "},"":{"ha":436,"x_min":0,"x_max":0,"o":"m 258 667 b 224 672 246 671 235 672 b 22 285 89 672 22 394 l 22 282 b 121 60 25 194 44 117 b 207 31 149 40 178 31 b 299 76 243 31 276 46 b 428 432 364 172 428 310 b 258 667 428 535 383 624 z m 185 147 b 163 226 174 151 163 190 b 189 285 163 256 169 283 b 281 308 219 289 249 299 b 185 147 258 247 225 179 z m 288 432 b 197 372 261 413 235 390 b 276 608 197 415 219 563 b 324 513 307 590 324 551 b 288 432 324 481 311 449 z m 39 853 l 51 825 b 174 874 76 783 111 871 b 390 778 236 876 310 792 b 563 935 471 764 557 908 b 533 964 568 961 533 964 l 486 901 b 244 974 421 839 325 950 b 39 853 164 997 39 853 z "},"":{"ha":436,"x_min":0,"x_max":0,"o":"m 258 667 b 224 672 246 671 235 672 b 22 285 89 672 22 394 l 22 282 b 121 60 25 194 44 117 b 207 31 149 40 178 31 b 299 76 243 31 276 46 b 428 432 364 172 428 310 b 258 667 428 535 383 624 z m 185 147 b 163 226 174 151 163 190 b 189 285 163 256 169 283 b 281 308 219 289 249 299 b 185 147 258 247 225 179 z m 288 432 b 197 372 261 413 235 390 b 276 608 197 415 219 563 b 324 513 307 590 324 551 b 288 432 324 481 311 449 z m 157 1011 b 51 906 99 1011 51 964 b 157 800 51 847 99 800 b 263 906 215 800 263 847 b 157 1011 263 964 215 1011 z m 378 1011 b 272 906 319 1011 272 964 b 378 800 272 847 319 800 b 483 906 436 800 483 847 b 378 1011 483 964 436 1011 z "},"":{"ha":688,"x_min":0,"x_max":0,"o":"m 353 -206 b 342 -204 349 -204 346 -204 b 317 -232 326 -204 319 -212 b 310 -272 314 -244 314 -258 b 307 -292 308 -279 307 -285 b 321 -335 307 -307 313 -321 b 367 -386 332 -354 347 -372 b 401 -400 379 -396 392 -400 b 440 -369 417 -400 429 -390 b 453 -329 447 -356 453 -342 b 353 -206 451 -289 389 -212 z m 367 399 b 357 400 364 399 360 400 b 331 372 342 400 335 390 b 325 332 329 358 329 344 b 322 313 324 325 322 318 b 335 269 322 297 326 283 b 382 217 347 249 363 231 b 415 203 394 208 404 203 b 456 235 431 203 443 214 b 467 271 461 246 467 258 l 467 275 b 367 399 467 314 404 392 z m 658 1 b 622 56 646 19 635 38 b 103 93 592 99 192 74 l 96 93 b 78 92 90 93 83 93 b 58 72 65 89 58 83 b 60 63 58 69 58 67 b 75 39 63 53 68 46 b 257 -49 121 -19 183 -46 l 421 -46 b 504 -44 503 -44 503 -44 l 635 -44 b 667 -21 656 -43 667 -35 b 658 1 667 -14 664 -7 z "},"":{"ha":436,"x_min":0,"x_max":0,"o":"m 258 667 b 224 672 246 671 235 672 b 22 285 89 672 22 394 l 22 282 b 121 60 25 194 44 117 b 207 31 149 40 178 31 b 299 76 243 31 276 46 b 428 432 364 172 428 310 b 258 667 428 535 383 624 z m 185 147 b 163 226 174 151 163 190 b 189 285 163 256 169 283 b 281 308 219 289 249 299 b 185 147 258 247 225 179 z m 288 432 b 197 372 261 413 235 390 b 276 608 197 415 219 563 b 324 513 307 590 324 551 b 288 432 324 481 311 449 z m 88 -267 b 103 -272 93 -269 97 -271 b 142 -239 122 -276 135 -265 b 440 815 200 -51 386 626 l 443 825 b 343 974 456 890 408 960 l 340 974 b 308 950 319 978 313 975 b 17 -112 292 874 51 56 b 88 -267 -4 -211 -8 -244 z "},"":{"ha":597,"x_min":0,"x_max":0,"o":"m 469 625 b 250 115 442 497 335 196 b 231 101 244 110 239 101 b 225 103 229 101 226 103 b 208 157 214 107 208 126 b 296 588 208 274 282 542 b 301 611 299 594 301 603 b 296 631 301 618 300 624 b 194 721 278 663 235 715 b 185 722 192 722 188 722 b 157 696 169 722 161 714 b 85 447 140 610 106 531 b 53 239 68 376 53 304 b 126 60 53 167 71 103 b 210 28 156 38 183 28 b 363 110 260 28 308 61 b 354 46 363 110 354 68 b 358 31 354 38 356 31 b 390 29 369 29 381 29 b 513 182 467 29 494 69 b 583 557 540 353 578 475 l 583 558 b 503 643 583 617 536 643 b 469 625 486 643 472 638 z m 479 838 b 381 1026 457 911 450 983 b 300 1054 356 1043 328 1047 b 290 1056 297 1056 293 1056 b 268 1044 281 1056 274 1053 b 268 1039 268 1043 268 1042 b 364 824 268 1004 350 846 b 426 782 381 796 401 782 l 433 782 b 482 819 467 782 482 796 b 479 838 482 825 482 831 z "},"":{"ha":597,"x_min":0,"x_max":0,"o":"m 469 625 b 250 115 442 497 335 196 b 231 101 244 110 239 101 b 225 103 229 101 226 103 b 208 157 214 107 208 126 b 296 588 208 274 282 542 b 301 611 299 594 301 603 b 296 631 301 618 300 624 b 194 721 278 663 235 715 b 185 722 192 722 188 722 b 157 696 169 722 161 714 b 85 447 140 610 106 531 b 53 239 68 376 53 304 b 126 60 53 167 71 103 b 210 28 156 38 183 28 b 363 110 260 28 308 61 b 354 46 363 110 354 68 b 358 31 354 38 356 31 b 390 29 369 29 381 29 b 513 182 467 29 494 69 b 583 557 540 353 578 475 l 583 558 b 503 643 583 617 536 643 b 469 625 486 643 472 638 z m 507 1050 b 444 1008 483 1050 463 1035 b 347 793 432 986 347 826 b 349 788 347 790 349 789 b 368 775 354 779 361 775 b 381 778 372 775 376 776 b 461 804 408 785 436 789 b 560 994 531 849 539 921 b 563 1013 561 1001 563 1007 b 514 1050 563 1036 546 1050 z "},"":{"ha":597,"x_min":0,"x_max":0,"o":"m 469 625 b 250 115 442 497 335 196 b 231 101 244 110 239 101 b 225 103 229 101 226 103 b 208 157 214 107 208 126 b 296 588 208 274 282 542 b 301 611 299 594 301 603 b 296 631 301 618 300 624 b 194 721 278 663 235 715 b 185 722 192 722 188 722 b 157 696 169 722 161 714 b 85 447 140 610 106 531 b 53 239 68 376 53 304 b 126 60 53 167 71 103 b 210 28 156 38 183 28 b 363 110 260 28 308 61 b 354 46 363 110 354 68 b 358 31 354 38 356 31 b 390 29 369 29 381 29 b 513 182 467 29 494 69 b 583 557 540 353 578 475 l 583 558 b 503 643 583 617 536 643 b 469 625 486 643 472 638 z m 557 824 b 529 960 547 868 542 919 b 419 1043 513 1011 469 1043 b 403 1042 414 1043 408 1043 b 311 900 371 1038 332 936 b 272 814 297 872 283 843 b 269 800 269 808 269 804 b 294 775 269 788 278 779 b 307 774 299 774 303 774 b 356 800 326 774 342 783 b 421 913 374 824 407 888 b 471 794 436 889 440 822 b 521 778 481 786 501 778 b 558 810 540 778 558 786 b 557 824 558 814 558 818 z "},"":{"ha":597,"x_min":0,"x_max":0,"o":"m 469 625 b 250 115 442 497 335 196 b 231 101 244 110 239 101 b 225 103 229 101 226 103 b 208 157 214 107 208 126 b 296 588 208 274 282 542 b 301 611 299 594 301 603 b 296 631 301 618 300 624 b 194 721 278 663 235 715 b 185 722 192 722 188 722 b 157 696 169 722 161 714 b 85 447 140 610 106 531 b 53 239 68 376 53 304 b 126 60 53 167 71 103 b 210 28 156 38 183 28 b 363 110 260 28 308 61 b 354 46 363 110 354 68 b 358 31 354 38 356 31 b 390 29 369 29 381 29 b 513 182 467 29 494 69 b 583 557 540 353 578 475 l 583 558 b 503 643 583 617 536 643 b 469 625 486 643 472 638 z m 301 1008 b 196 903 243 1008 196 961 b 301 797 196 844 243 797 b 407 903 360 797 407 844 b 301 1008 407 961 360 1008 z m 522 1008 b 417 903 464 1008 417 961 b 522 797 417 844 464 797 b 628 903 581 797 628 844 b 522 1008 628 961 581 1008 z "},"":{"ha":571,"x_min":0,"x_max":0,"o":"m 419 739 b 254 418 418 738 322 418 b 218 460 240 418 228 431 b 215 482 217 465 215 474 b 240 618 215 524 232 592 b 260 682 247 639 251 661 b 265 710 264 692 265 701 b 236 767 265 731 254 749 b 154 800 219 782 200 790 b 138 803 147 801 143 803 b 115 782 128 803 121 797 b 47 517 88 699 47 606 b 106 361 47 463 63 410 b 211 322 131 333 158 324 b 365 424 281 321 349 392 l 365 422 b 196 -150 365 361 268 -150 l 193 -150 b 165 -18 175 -146 165 -43 l 165 -11 b 142 15 165 7 154 15 b 96 -40 124 15 100 -3 b 94 -69 94 -50 94 -60 b 238 -244 94 -156 140 -244 l 251 -244 b 569 636 457 -226 561 525 l 569 639 b 457 769 569 682 522 775 b 419 739 443 768 431 760 z m 438 1064 b 375 1022 414 1064 392 1049 b 278 807 363 1000 278 840 b 279 801 278 804 278 803 b 299 789 285 793 292 789 b 311 792 303 789 307 790 b 392 818 339 799 367 803 b 490 1008 461 863 469 935 b 493 1026 492 1015 493 1021 b 444 1064 493 1050 476 1064 z "},"":{"ha":600,"x_min":0,"x_max":0,"o":"m 333 601 b 399 910 361 736 383 839 l 401 919 b 374 1013 404 954 394 985 b 290 1061 353 1039 325 1056 l 289 1061 b 267 1060 278 1063 271 1063 b 257 1036 263 1056 258 1049 b 231 901 254 1018 246 972 b 190 713 219 846 206 783 b 175 708 185 713 179 710 b 167 692 169 704 167 699 l 167 674 b 144 492 167 631 160 569 b 142 482 143 489 143 485 b 93 244 125 401 108 322 b 28 -85 61 113 40 3 b 26 -96 26 -89 26 -92 b 22 -140 24 -111 22 -125 l 22 -150 b 54 -215 24 -175 35 -197 b 118 -253 74 -233 94 -246 b 142 -257 128 -256 135 -257 b 178 -214 164 -257 176 -243 b 201 -31 181 -168 188 -108 b 233 122 210 13 221 64 b 253 215 240 153 247 183 b 292 349 265 260 278 304 b 401 558 324 450 361 519 b 410 513 407 551 410 536 b 403 410 410 485 407 450 b 386 294 397 368 392 329 b 372 222 379 260 375 235 b 354 176 368 206 363 190 b 331 156 347 163 339 156 b 306 169 324 156 315 160 b 275 188 299 179 288 186 l 269 188 b 256 174 260 186 256 182 b 275 131 256 163 263 149 b 314 89 288 113 300 99 b 404 60 349 69 379 60 b 478 92 435 60 460 71 b 521 171 496 113 510 139 b 550 267 532 203 542 235 b 582 481 571 340 582 413 b 561 599 582 525 575 564 b 486 669 546 633 521 657 b 440 678 469 675 454 678 b 363 642 407 678 381 665 b 333 601 351 629 343 615 z "},"":{"ha":571,"x_min":0,"x_max":0,"o":"m 419 739 b 254 418 418 738 322 418 b 218 460 240 418 228 431 b 215 482 217 465 215 474 b 240 618 215 524 232 592 b 260 682 247 639 251 661 b 265 710 264 692 265 701 b 236 767 265 731 254 749 b 154 800 219 782 200 790 b 138 803 147 801 143 803 b 115 782 128 803 121 797 b 47 517 88 699 47 606 b 106 361 47 463 63 410 b 211 322 131 333 158 324 b 365 424 281 321 349 392 l 365 422 b 196 -150 365 361 268 -150 l 193 -150 b 165 -18 175 -146 165 -43 l 165 -11 b 142 15 165 7 154 15 b 96 -40 124 15 100 -3 b 94 -69 94 -50 94 -60 b 238 -244 94 -156 140 -244 l 251 -244 b 569 636 457 -226 561 525 l 569 639 b 457 769 569 682 522 775 b 419 739 443 768 431 760 z m 249 1086 b 143 981 190 1086 143 1039 b 249 875 143 922 190 875 b 354 981 307 875 354 922 b 249 1086 354 1039 307 1086 z m 469 1086 b 364 981 411 1086 364 1039 b 469 875 364 922 411 875 b 575 981 528 875 575 922 b 469 1086 575 1039 528 1086 z "},"":{"ha":289,"x_min":0,"x_max":0,"o":"m 160 732 b 133 736 149 735 140 738 b 108 694 115 735 107 721 b 22 203 111 636 32 314 b 18 104 19 174 15 138 b 56 13 19 68 29 35 b 131 -26 90 -17 114 -28 b 182 81 164 -24 174 24 b 267 614 211 258 249 436 b 267 632 267 621 267 626 b 160 732 263 688 210 714 z "},"":{"ha":275,"x_min":0,"x_max":0,"o":"m 244 972 b 146 1161 222 1046 215 1118 b 65 1189 121 1178 93 1182 b 54 1190 61 1190 58 1190 b 33 1179 46 1190 39 1188 b 32 1174 32 1178 32 1176 b 129 958 32 1139 115 981 b 190 917 144 931 167 917 l 199 917 b 247 954 231 917 247 931 b 244 972 247 960 246 965 z "},"":{"ha":275,"x_min":0,"x_max":0,"o":"m 192 1190 b 129 1149 168 1190 146 1175 b 32 933 117 1126 32 967 b 33 928 32 931 32 929 b 53 915 39 919 46 915 b 65 918 57 915 61 917 b 146 944 93 925 121 929 b 244 1135 215 989 224 1061 b 247 1153 246 1142 247 1147 b 199 1190 247 1176 231 1190 z "},"":{"ha":349,"x_min":0,"x_max":0,"o":"m 314 981 b 286 1117 304 1025 299 1076 b 176 1200 269 1168 226 1200 b 160 1199 171 1200 165 1200 b 68 1057 128 1194 89 1093 b 29 971 54 1029 40 1000 b 26 957 26 965 26 961 b 51 932 26 944 35 936 b 64 931 56 931 60 931 b 113 957 85 931 99 940 b 178 1069 131 981 164 1044 b 228 951 193 1046 197 979 b 278 935 238 943 258 935 b 315 967 297 935 315 943 b 314 981 315 971 315 975 z "},"":{"ha":543,"x_min":0,"x_max":0,"o":"m 11 1031 l 24 1003 b 146 1051 49 961 83 1049 b 363 956 208 1054 282 969 b 535 1113 443 942 529 1086 b 506 1142 540 1139 506 1142 l 458 1079 b 217 1151 393 1017 297 1128 b 11 1031 136 1175 11 1031 z "},"":{"ha":522,"x_min":0,"x_max":0,"o":"m 478 1038 b 442 1092 465 1056 454 1074 b 63 1132 411 1135 151 1113 l 56 1132 b 38 1131 50 1132 43 1132 b 18 1111 25 1128 18 1122 b 19 1101 18 1108 18 1106 b 35 1078 22 1092 28 1085 b 217 990 81 1019 143 993 l 322 990 b 324 992 322 992 322 992 l 454 992 b 486 1015 475 993 486 1001 b 478 1038 486 1022 483 1029 z "},"":{"ha":0,"x_min":0,"x_max":0,"o":"m 385 1163 b 267 1044 319 1163 267 1110 b 385 928 267 981 319 928 b 501 1044 449 928 501 981 b 385 1163 501 1110 449 1163 z "},"":{"ha":522,"x_min":0,"x_max":0,"o":"m 163 1163 b 57 1057 104 1163 57 1115 b 163 951 57 999 104 951 b 268 1057 221 951 268 999 b 163 1163 268 1115 221 1163 z m 383 1163 b 278 1057 325 1163 278 1115 b 383 951 278 999 325 951 b 489 1057 442 951 489 999 b 383 1163 489 1115 442 1163 z "},"":{"ha":317,"x_min":0,"x_max":0,"o":"m 256 1157 b 158 1197 231 1182 196 1197 b 61 1157 121 1197 86 1182 b 21 1060 36 1132 21 1097 b 58 964 21 1022 35 989 l 61 961 b 158 921 86 936 121 921 b 256 961 196 921 231 936 b 296 1060 281 986 296 1021 b 256 1157 296 1097 281 1132 z m 211 1007 b 158 985 197 993 179 985 b 106 1007 138 985 119 993 l 104 1008 b 85 1060 92 1021 85 1039 b 106 1111 85 1079 93 1097 b 158 1133 119 1125 138 1133 b 211 1111 179 1133 197 1125 b 232 1060 224 1097 232 1079 b 211 1007 232 1039 224 1021 z "},"":{"ha":349,"x_min":0,"x_max":0,"o":"m 314 981 b 286 1117 304 1025 299 1076 b 176 1200 269 1168 226 1200 b 160 1199 171 1200 165 1200 b 68 1057 128 1194 89 1093 b 29 971 54 1029 40 1000 b 26 957 26 965 26 961 b 51 932 26 944 35 936 b 64 931 56 931 60 931 b 113 957 85 931 99 940 b 178 1069 131 981 164 1044 b 228 951 193 1046 197 979 b 278 935 238 943 258 935 b 315 967 297 935 315 943 b 314 981 315 971 315 975 z "},"":{"ha":390,"x_min":0,"x_max":0,"o":"m 233 -139 b 139 -28 233 -83 192 -33 b 124 -26 133 -26 128 -26 b 104 -56 108 -26 106 -33 b 82 -232 103 -90 82 -206 l 82 -237 b 240 -356 111 -333 240 -274 b 235 -387 240 -364 238 -375 b 189 -443 222 -429 206 -443 b 106 -385 154 -443 117 -392 b 90 -378 101 -382 96 -378 b 83 -381 89 -378 86 -379 b 76 -397 78 -385 76 -390 l 76 -403 b 224 -536 81 -474 157 -536 b 253 -532 235 -536 243 -535 b 382 -392 339 -507 382 -451 b 269 -239 382 -336 344 -278 b 226 -199 244 -225 226 -221 l 226 -192 b 233 -139 229 -175 231 -157 z "},"":{"ha":751,"x_min":0,"x_max":0,"o":"m 722 396 b 686 450 710 414 699 432 b 68 490 656 493 157 471 l 61 490 b 43 489 56 490 49 490 b 24 469 31 486 24 481 b 25 460 24 467 24 464 b 40 436 28 450 33 443 b 222 349 86 378 149 351 l 567 349 b 568 350 567 350 567 350 l 699 350 b 731 374 719 351 731 360 b 722 396 731 381 728 388 z "},"":{"ha":1067,"x_min":0,"x_max":0,"o":"m 1038 396 b 1001 450 1025 414 1014 432 b 68 490 971 493 157 471 l 61 490 b 43 489 56 490 49 490 b 24 469 31 486 24 481 b 25 460 24 467 24 464 b 40 436 28 450 33 443 b 222 349 86 378 149 351 l 882 349 b 883 350 882 350 882 350 l 1014 350 b 1046 374 1035 351 1046 360 b 1038 396 1046 381 1043 388 z "},"":{"ha":217,"x_min":0,"x_max":0,"o":"m 54 1129 b 25 1046 33 1108 25 1078 b 81 925 25 997 44 947 b 124 913 94 917 106 913 b 193 944 150 914 172 928 b 203 963 200 950 203 956 b 194 983 203 969 200 976 b 154 1056 176 1006 167 1031 b 146 1090 149 1067 146 1079 b 163 1132 146 1104 151 1119 b 176 1153 168 1138 172 1146 b 185 1175 181 1160 185 1168 b 178 1190 185 1181 182 1185 b 161 1197 172 1196 167 1197 b 139 1192 153 1197 146 1194 b 54 1129 107 1176 79 1154 z "},"":{"ha":207,"x_min":0,"x_max":0,"o":"m 174 1129 b 89 1192 149 1154 121 1176 b 67 1197 82 1194 75 1197 b 50 1190 61 1197 56 1196 b 43 1175 46 1185 43 1181 b 51 1153 43 1168 47 1160 b 65 1132 56 1146 60 1138 b 82 1092 76 1119 82 1106 b 72 1056 82 1079 78 1068 b 33 983 61 1031 51 1006 b 25 963 28 976 25 969 b 35 944 25 956 28 950 b 104 913 56 928 78 914 b 147 925 122 913 133 917 b 203 1046 182 947 203 999 b 174 1129 203 1079 193 1110 z "},"":{"ha":200,"x_min":0,"x_max":0,"o":"m 167 17 b 82 79 142 42 114 64 b 60 85 75 82 68 85 b 43 78 54 85 49 83 b 36 63 39 72 36 68 b 44 40 36 56 40 47 b 58 19 49 33 53 25 b 75 -21 69 7 75 -7 b 65 -57 75 -33 71 -44 b 26 -129 54 -82 44 -107 b 18 -150 21 -136 18 -143 b 28 -168 18 -157 21 -162 b 97 -200 49 -185 71 -199 b 140 -187 115 -200 126 -196 b 196 -67 175 -165 196 -114 b 167 17 196 -33 186 -3 z "},"":{"ha":467,"x_min":0,"x_max":0,"o":"m 276 1129 b 247 1046 257 1110 247 1079 b 303 925 247 999 268 947 b 346 913 317 917 328 913 b 415 944 372 914 394 928 b 425 963 422 950 425 956 b 417 983 425 969 422 976 b 378 1056 399 1006 389 1031 b 368 1092 372 1068 368 1079 b 385 1132 368 1106 374 1119 b 399 1153 390 1138 394 1146 b 407 1175 403 1160 407 1168 b 400 1190 407 1181 404 1185 b 383 1197 394 1196 389 1197 b 361 1192 375 1197 368 1194 b 276 1129 329 1176 301 1154 z m 54 1129 b 25 1046 33 1108 25 1078 b 81 925 25 997 44 947 b 124 913 94 917 106 913 b 193 944 150 914 172 928 b 203 963 200 950 203 956 b 194 983 203 969 200 976 b 154 1056 176 1006 167 1031 b 146 1090 149 1067 146 1079 b 163 1132 146 1104 151 1119 b 176 1153 168 1138 172 1146 b 185 1175 181 1160 185 1168 b 178 1190 185 1181 182 1185 b 161 1197 172 1196 167 1197 b 139 1192 153 1197 146 1194 b 54 1129 107 1176 79 1154 z "},"":{"ha":467,"x_min":0,"x_max":0,"o":"m 174 1129 b 89 1192 149 1154 121 1176 b 67 1197 82 1194 75 1197 b 50 1190 61 1197 56 1196 b 43 1175 46 1185 43 1181 b 51 1153 43 1168 47 1160 b 65 1132 56 1146 60 1138 b 82 1092 76 1119 82 1106 b 72 1056 82 1079 78 1068 b 33 983 61 1031 51 1006 b 25 963 28 976 25 969 b 35 944 25 956 28 950 b 104 913 56 928 78 914 b 147 925 122 913 133 917 b 203 1046 182 947 203 999 b 174 1129 203 1079 193 1110 z m 396 1129 b 311 1192 371 1154 343 1176 b 289 1197 304 1194 297 1197 b 272 1190 283 1197 278 1196 b 265 1175 268 1185 265 1181 b 274 1153 265 1168 269 1160 b 288 1132 278 1146 282 1138 b 304 1090 299 1119 304 1104 b 296 1056 304 1079 301 1067 b 256 983 283 1031 274 1006 b 247 963 250 976 247 969 b 257 944 247 956 250 950 b 326 913 278 928 300 914 b 369 925 344 913 356 917 b 425 1046 406 947 425 997 b 396 1129 425 1078 417 1108 z "},"":{"ha":467,"x_min":0,"x_max":0,"o":"m 167 17 b 82 79 142 42 114 64 b 60 85 75 82 68 85 b 43 78 54 85 49 83 b 36 63 39 72 36 68 b 44 40 36 56 40 47 b 58 19 49 33 53 25 b 75 -21 69 7 75 -7 b 65 -57 75 -33 71 -44 b 26 -129 54 -82 44 -107 b 18 -150 21 -136 18 -143 b 28 -168 18 -157 21 -162 b 97 -200 49 -185 71 -199 b 140 -187 115 -200 126 -196 b 196 -67 175 -165 196 -114 b 167 17 196 -33 186 -3 z m 389 17 b 304 79 364 42 336 64 b 282 85 297 82 290 85 b 265 78 276 85 271 83 b 258 63 261 72 258 68 b 267 40 258 56 263 47 b 281 19 271 33 275 25 b 297 -22 292 7 297 -8 b 289 -57 297 -33 294 -46 b 249 -129 276 -82 267 -107 b 240 -150 243 -136 240 -143 b 250 -168 240 -157 243 -162 b 319 -200 271 -185 293 -199 b 363 -187 338 -200 349 -196 b 418 -67 399 -165 418 -115 b 389 17 418 -35 410 -4 z "},"":{"ha":688,"x_min":0,"x_max":0,"o":"m 349 -85 b 364 -86 354 -86 360 -86 b 394 -44 385 -85 393 -72 b 421 1050 403 151 415 854 l 421 1061 b 286 1179 417 1126 353 1183 l 285 1179 b 258 1149 263 1178 257 1174 b 240 47 263 1069 233 218 b 349 -85 246 -54 251 -87 z m 571 857 b 535 911 558 875 547 893 b 156 951 504 954 244 932 l 149 951 b 131 950 143 951 136 951 b 111 931 118 947 111 942 b 113 921 111 928 111 925 b 128 897 115 911 121 904 b 310 810 174 839 236 813 l 415 810 b 417 811 415 811 415 811 l 547 811 b 579 835 568 813 579 821 b 571 857 579 842 576 849 z "},"":{"ha":688,"x_min":0,"x_max":0,"o":"m 349 -85 b 364 -86 354 -86 360 -86 b 394 -44 385 -85 393 -72 b 421 1050 403 151 415 854 l 421 1061 b 286 1179 417 1126 353 1183 l 285 1179 b 258 1149 263 1178 257 1174 b 240 47 263 1069 233 218 b 349 -85 246 -54 251 -87 z m 571 857 b 535 911 558 875 547 893 b 156 951 504 954 244 932 l 149 951 b 131 950 143 951 136 951 b 111 931 118 947 111 942 b 113 921 111 928 111 925 b 128 897 115 911 121 904 b 310 810 174 839 236 813 l 415 810 b 417 811 415 811 415 811 l 547 811 b 579 835 568 813 579 821 b 571 857 579 842 576 849 z m 571 213 b 535 267 558 231 547 249 b 156 307 504 310 244 288 l 149 307 b 131 306 143 307 136 307 b 111 286 118 303 111 297 b 113 276 111 283 111 281 b 128 253 115 267 121 260 b 310 165 174 194 236 168 l 415 165 b 417 167 415 167 415 167 l 547 167 b 579 190 568 168 579 176 b 571 213 579 197 576 204 z "},"":{"ha":499,"x_min":0,"x_max":0,"o":"m 256 676 b 58 464 147 676 58 581 b 256 251 58 346 147 251 b 453 464 365 251 453 346 b 256 676 453 581 365 676 z "},"":{"ha":1204,"x_min":0,"x_max":0,"o":"m 163 -1 b 57 -107 104 -1 57 -49 b 163 -212 57 -165 104 -212 b 268 -107 221 -212 268 -165 b 163 -1 268 -49 221 -1 z m 614 -1 b 508 -107 556 -1 508 -49 b 614 -212 508 -165 556 -212 b 719 -107 672 -212 719 -165 b 614 -1 719 -49 672 -1 z m 1032 -1 b 926 -107 974 -1 926 -49 b 1032 -212 926 -165 974 -212 b 1138 -107 1090 -212 1138 -165 b 1032 -1 1138 -49 1090 -1 z "},"":{"ha":428,"x_min":0,"x_max":0,"o":""},"":{"ha":428,"x_min":0,"x_max":0,"o":""},"":{"ha":232,"x_min":0,"x_max":0,"o":""},"":{"ha":878,"x_min":0,"x_max":0,"o":"m 854 939 b 750 1015 840 1003 801 1015 b 700 1013 735 1015 718 1014 l 683 1013 b 606 1017 664 1013 636 1014 b 474 1024 565 1019 518 1024 b 417 1021 454 1024 435 1022 b 282 929 340 1014 282 992 l 282 921 b 271 756 276 846 274 796 b 228 392 267 660 264 619 l 228 386 b 208 242 219 339 213 292 b 28 210 114 226 31 214 b 24 200 25 207 24 203 b 29 183 24 194 26 189 b 182 118 56 133 113 118 l 207 118 b 233 14 210 85 214 49 b 265 -25 242 -3 253 -15 b 308 -47 278 -35 292 -42 b 331 -50 317 -49 324 -50 b 350 -46 339 -50 344 -49 b 361 -14 358 -40 361 -29 l 361 -6 b 360 29 360 6 360 18 b 361 79 360 46 360 63 l 361 107 b 364 142 363 118 363 131 b 515 175 421 154 475 168 b 551 215 540 181 551 194 b 550 231 551 221 551 225 b 515 283 546 253 531 268 b 492 296 508 292 500 296 b 479 293 488 296 483 296 b 378 269 465 288 426 279 b 379 281 378 274 379 276 l 379 283 b 392 339 382 301 386 321 b 408 394 396 358 403 376 b 449 447 413 410 429 429 b 519 493 472 468 501 486 l 529 497 b 672 538 575 514 622 532 b 704 540 683 539 693 539 b 763 547 724 540 743 542 b 789 565 776 551 785 557 b 792 575 790 568 792 572 b 785 597 792 582 789 589 b 779 607 783 600 782 604 l 771 615 b 628 664 725 653 675 664 b 476 632 569 664 514 644 b 444 622 463 628 451 624 b 458 792 446 647 451 731 b 465 854 463 828 465 854 b 526 857 467 854 493 856 b 696 861 592 858 683 861 b 769 869 721 863 746 865 b 796 874 779 871 788 872 b 810 876 800 874 806 875 b 824 882 815 878 819 879 b 850 906 836 888 844 896 b 856 926 854 913 856 919 b 854 939 856 931 856 935 z "},"":{"ha":754,"x_min":0,"x_max":0,"o":"m 722 -44 b 490 85 671 35 581 85 b 403 68 460 85 431 79 b 447 221 435 115 447 168 b 442 282 447 242 444 263 b 535 296 476 288 508 293 b 574 339 561 300 574 314 l 574 347 b 542 404 571 371 556 388 b 517 418 535 413 526 418 b 506 415 514 418 510 417 b 411 401 493 411 457 406 b 360 508 388 465 360 508 b 511 519 407 518 463 515 b 550 550 529 522 546 528 b 553 572 551 558 553 565 b 444 646 553 631 497 646 b 350 633 396 646 350 633 b 349 657 350 642 349 649 b 640 908 349 831 468 907 b 681 939 667 908 681 919 b 675 963 681 946 679 954 b 608 1019 663 992 639 1010 b 532 1031 583 1026 557 1031 b 419 1011 493 1031 456 1022 b 203 760 310 976 235 865 b 182 604 192 722 183 643 b 39 569 182 604 75 574 b 21 547 26 568 21 561 b 106 454 21 494 57 454 b 122 456 111 454 117 454 b 211 471 146 460 188 467 b 240 385 211 471 226 436 b 50 367 142 376 54 369 b 46 356 46 363 46 360 b 50 339 46 350 47 344 b 233 263 75 279 149 263 l 264 263 b 265 222 265 249 265 236 b 81 32 265 122 225 32 l 75 32 b 44 10 54 32 44 25 b 47 -8 44 4 46 -1 b 228 -117 68 -64 163 -117 l 232 -117 b 471 -81 313 -112 392 -93 b 556 -74 499 -76 528 -74 b 686 -87 599 -74 643 -79 b 707 -92 694 -89 701 -92 b 724 -83 714 -92 719 -89 b 729 -65 728 -78 729 -72 b 722 -44 729 -58 726 -50 z "},"":{"ha":1375,"x_min":0,"x_max":0,"o":""},"":{"ha":840,"x_min":0,"x_max":0,"o":"m 817 868 b 808 885 815 874 811 879 b 590 1031 753 961 681 1013 b 560 1033 579 1033 569 1033 b 251 744 424 1033 311 846 b 207 651 235 715 219 683 b 29 619 114 636 32 624 b 25 610 26 617 25 613 b 31 593 25 604 28 599 b 171 528 54 547 107 529 b 160 449 167 501 163 475 b 40 428 93 439 43 431 b 36 417 38 424 36 421 b 42 400 36 411 39 406 b 161 336 63 360 107 340 b 369 7 175 200 239 76 b 451 -14 397 -7 424 -14 b 786 411 629 -14 786 271 b 721 351 754 394 740 371 b 389 99 658 292 467 125 b 371 96 383 96 376 96 b 328 146 346 96 331 118 b 321 260 324 186 321 224 b 326 349 321 290 322 319 b 528 393 401 363 476 383 b 564 433 553 397 564 411 b 563 447 564 438 564 442 b 528 501 558 471 543 486 b 504 513 521 508 514 513 b 490 510 500 513 496 513 b 351 481 475 503 418 492 b 365 529 356 496 361 513 l 374 554 b 517 586 428 565 479 579 b 553 626 542 590 553 604 b 551 640 553 631 553 635 b 517 694 547 663 532 678 b 493 706 510 701 501 706 b 479 703 489 706 485 706 b 442 693 472 700 460 696 b 628 889 493 781 563 867 b 678 897 644 894 661 897 b 749 865 703 897 728 889 b 779 839 758 856 768 847 b 794 833 785 835 789 833 b 808 839 799 833 804 835 b 818 858 815 844 818 851 b 817 868 818 861 818 865 z "},"":{"ha":3154,"x_min":0,"x_max":0,"o":""},"":{"ha":2079,"x_min":0,"x_max":0,"o":""},"":{"ha":689,"x_min":0,"x_max":0,"o":""},"":{"ha":733,"x_min":0,"x_max":0,"o":""},"":{"ha":1026,"x_min":0,"x_max":0,"o":""},"":{"ha":818,"x_min":0,"x_max":0,"o":""},"":{"ha":522,"x_min":0,"x_max":0,"o":"m 483 396 b 447 450 471 414 460 432 b 68 490 417 493 157 471 l 61 490 b 43 489 56 490 49 490 b 24 469 31 486 24 481 b 25 460 24 467 24 464 b 40 436 28 450 33 443 b 222 349 86 378 149 351 l 328 349 b 329 350 328 350 328 350 l 460 350 b 492 374 481 351 492 360 b 483 396 492 381 489 388 z "},"":{"ha":688,"x_min":0,"x_max":0,"o":""},"":{"ha":688,"x_min":0,"x_max":0,"o":""},"":{"ha":451,"x_min":0,"x_max":0,"o":""},"":{"ha":688,"x_min":0,"x_max":0,"o":""},"":{"ha":504,"x_min":0,"x_max":0,"o":"m 481 286 b 211 432 444 390 288 392 b 235 461 217 449 228 454 b 404 615 294 508 350 563 b 432 668 422 633 432 651 b 408 719 432 685 424 701 b 354 761 394 738 376 753 b 329 767 346 764 338 767 b 294 750 317 767 306 761 b 190 651 261 715 225 683 b 49 533 143 611 97 571 b 15 478 25 514 15 496 b 449 253 15 371 368 281 b 465 247 454 250 460 247 b 479 254 471 247 475 250 b 485 269 483 260 485 264 b 481 286 485 275 483 281 z m 478 75 b 442 129 465 93 454 111 b 63 169 411 172 151 150 l 56 169 b 38 168 50 169 43 169 b 18 149 25 165 18 160 b 19 139 18 146 18 143 b 35 115 22 129 28 122 b 217 28 81 57 143 31 l 322 28 b 324 29 322 29 322 29 l 454 29 b 486 53 475 31 486 39 b 478 75 486 60 483 67 z "},"":{"ha":504,"x_min":0,"x_max":0,"o":"m 21 286 b 17 269 18 281 17 275 b 22 254 17 264 18 260 b 35 247 26 250 31 247 b 53 253 42 247 47 250 b 486 478 133 281 486 371 b 453 533 486 496 476 514 b 311 651 404 571 358 611 b 207 750 276 683 240 715 b 172 767 196 761 185 767 b 147 761 164 767 156 764 b 93 719 125 753 107 738 b 69 668 78 701 69 685 b 97 615 69 651 78 633 b 267 461 151 563 207 508 b 290 432 274 454 285 449 b 21 286 214 392 57 390 z m 24 75 b 15 53 18 67 15 60 b 47 29 15 39 26 31 l 178 29 b 179 28 179 29 179 29 l 285 28 b 467 115 358 31 421 57 b 482 139 474 122 479 129 b 483 149 482 143 483 146 b 464 168 483 160 476 165 b 446 169 458 169 451 169 l 439 169 b 60 129 350 150 90 172 b 24 75 47 111 36 93 z "},"":{"ha":1490,"x_min":0,"x_max":0,"o":""},"":{"ha":1501,"x_min":0,"x_max":0,"o":""},"":{"ha":692,"x_min":0,"x_max":0,"o":"m 782 857 b 667 868 769 857 722 863 b 681 944 672 894 676 919 l 681 946 b 557 1043 681 988 601 1043 l 550 1043 b 529 1022 538 1042 532 1033 b 496 886 518 986 507 939 b 428 893 461 890 436 893 l 426 892 l 425 893 l 428 893 b 438 924 432 897 438 919 b 439 940 438 929 439 935 b 304 1086 439 1042 353 1086 b 272 1067 285 1086 272 1079 l 272 1056 b 190 864 272 997 250 876 b 42 831 140 853 93 835 b 25 817 31 829 25 824 b 29 804 25 813 26 808 b 161 731 57 757 103 731 l 168 731 b 186 714 181 731 186 724 b 185 704 186 711 186 707 b 179 685 183 697 182 690 b 92 122 156 607 92 247 b 93 100 92 114 93 106 b 203 -7 97 46 153 7 b 229 -11 214 -10 222 -11 b 258 29 249 -11 254 0 b 397 753 296 263 324 540 b 472 767 401 763 431 767 b 407 204 436 579 407 356 b 415 93 407 160 410 122 b 458 6 422 61 438 32 b 528 -21 469 -10 504 -21 b 540 -19 532 -21 536 -21 b 567 32 563 -11 567 11 b 565 60 567 42 565 51 b 564 135 564 85 564 110 b 646 764 564 339 606 558 b 824 800 732 764 811 769 b 826 814 825 804 826 808 b 786 857 826 833 813 857 z "},"":{"ha":535,"x_min":0,"x_max":0,"o":"m 539 811 b 414 908 539 851 460 908 l 407 908 b 386 888 394 907 390 899 b 294 268 339 725 294 463 b 306 126 294 214 299 165 b 347 38 311 93 326 64 b 415 11 360 24 393 11 b 431 14 421 11 426 13 b 456 63 451 21 456 42 b 454 93 456 74 454 85 b 451 196 453 129 451 163 b 539 810 451 417 494 567 z m 321 978 b 197 1076 321 1019 242 1076 l 190 1076 b 169 1054 178 1074 172 1065 b 47 236 118 879 47 469 b 56 126 47 192 50 156 b 99 38 63 93 78 64 b 165 11 110 24 143 11 b 181 14 171 11 176 13 b 207 65 203 22 207 44 b 206 93 207 75 206 85 b 204 167 204 117 204 142 b 321 976 204 431 274 724 z "}}}
